MontserratZ-Thin.ufo
<glyph name="exclam" format="2">
  <advance width="242"/>
  <unicode hex="0021"/>
  <outline>
    <contour>
      <point x="114" y="188" type="line"/>
      <point x="110" y="700" type="line"/>
      <point x="132" y="700" type="line"/>
      <point x="128" y="188" type="line"/>
    </contour>
    <contour>
      <point x="121" y="-3" type="qcurve" smooth="yes"/>
      <point x="111" y="-3"/>
      <point x="95" y="13"/>
      <point x="95" y="23" type="qcurve" smooth="yes"/>
      <point x="95" y="34"/>
      <point x="111" y="49"/>
      <point x="121" y="49" type="qcurve" smooth="yes"/>
      <point x="132" y="49"/>
      <point x="147" y="34"/>
      <point x="147" y="23" type="qcurve" smooth="yes"/>
      <point x="147" y="13"/>
      <point x="132" y="-3"/>
    </contour>
  </outline>
</glyph>
<glyph name="percent" format="2">
  <advance width="800"/>
  <unicode hex="0025"/>
  <outline>
    <contour>
      <point x="150" y="0" type="line"/>
      <point x="628" y="700" type="line"/>
      <point x="650" y="700" type="line"/>
      <point x="172" y="0" type="line"/>
    </contour>
    <contour>
      <point x="199" y="327" type="qcurve" smooth="yes"/>
      <point x="156" y="327"/>
      <point x="88" y="373"/>
      <point x="50" y="458"/>
      <point x="50" y="515" type="qcurve" smooth="yes"/>
      <point x="50" y="572"/>
      <point x="88" y="657"/>
      <point x="156" y="703"/>
      <point x="199" y="703" type="qcurve" smooth="yes"/>
      <point x="243" y="703"/>
      <point x="310" y="657"/>
      <point x="348" y="572"/>
      <point x="348" y="515" type="qcurve" smooth="yes"/>
      <point x="348" y="458"/>
      <point x="310" y="373"/>
      <point x="243" y="327"/>
    </contour>
    <contour>
      <point x="199" y="346" type="qcurve" smooth="yes"/>
      <point x="256" y="346"/>
      <point x="328" y="436"/>
      <point x="328" y="515" type="qcurve" smooth="yes"/>
      <point x="328" y="594"/>
      <point x="256" y="684"/>
      <point x="199" y="684" type="qcurve" smooth="yes"/>
      <point x="142" y="684"/>
      <point x="70" y="594"/>
      <point x="70" y="515" type="qcurve" smooth="yes"/>
      <point x="70" y="436"/>
      <point x="142" y="346"/>
    </contour>
    <contour>
      <point x="601" y="-3" type="qcurve" smooth="yes"/>
      <point x="558" y="-3"/>
      <point x="490" y="43"/>
      <point x="452" y="128"/>
      <point x="452" y="185" type="qcurve" smooth="yes"/>
      <point x="452" y="242"/>
      <point x="490" y="327"/>
      <point x="558" y="373"/>
      <point x="601" y="373" type="qcurve" smooth="yes"/>
      <point x="645" y="373"/>
      <point x="712" y="327"/>
      <point x="750" y="242"/>
      <point x="750" y="185" type="qcurve" smooth="yes"/>
      <point x="750" y="128"/>
      <point x="712" y="43"/>
      <point x="645" y="-3"/>
    </contour>
    <contour>
      <point x="601" y="16" type="qcurve" smooth="yes"/>
      <point x="658" y="16"/>
      <point x="730" y="106"/>
      <point x="730" y="185" type="qcurve" smooth="yes"/>
      <point x="730" y="264"/>
      <point x="658" y="354"/>
      <point x="601" y="354" type="qcurve" smooth="yes"/>
      <point x="544" y="354"/>
      <point x="472" y="264"/>
      <point x="472" y="185" type="qcurve" smooth="yes"/>
      <point x="472" y="106"/>
      <point x="544" y="16"/>
    </contour>
  </outline>
</glyph>
<glyph name="parenleft" format="2">
  <advance width="311"/>
  <unicode hex="0028"/>
  <outline>
    <contour>
      <point x="234" y="-194" type="line"/>
      <point x="181" y="-103"/>
      <point x="123" y="135"/>
      <point x="123" y="274" type="qcurve" smooth="yes"/>
      <point x="123" y="413"/>
      <point x="181" y="654"/>
      <point x="234" y="742" type="qcurve"/>
      <point x="253" y="742" type="line"/>
      <point x="196" y="646"/>
      <point x="143" y="413"/>
      <point x="143" y="274" type="qcurve" smooth="yes"/>
      <point x="143" y="135"/>
      <point x="196" y="-98"/>
      <point x="253" y="-194" type="qcurve"/>
    </contour>
  </outline>
</glyph>
<glyph name="hyphen" format="2">
  <advance width="380"/>
  <unicode hex="002D"/>
  <outline>
    <contour>
      <point x="65" y="255" type="line"/>
      <point x="65" y="274" type="line"/>
      <point x="315" y="274" type="line"/>
      <point x="315" y="255" type="line"/>
    </contour>
  </outline>
</glyph>
<glyph name="five" format="2">
  <advance width="548"/>
  <unicode hex="0035"/>
  <outline>
    <contour>
      <point x="270" y="-3" type="qcurve" smooth="yes"/>
      <point x="193" y="-3"/>
      <point x="64" y="53"/>
      <point x="32" y="96" type="qcurve"/>
      <point x="45" y="109" type="line"/>
      <point x="74" y="70"/>
      <point x="194" y="16"/>
      <point x="270" y="16" type="qcurve" smooth="yes"/>
      <point x="378" y="16"/>
      <point x="483" y="118"/>
      <point x="483" y="196" type="qcurve" smooth="yes"/>
      <point x="483" y="253"/>
      <point x="432" y="335"/>
      <point x="312" y="378"/>
      <point x="208" y="378" type="qcurve" smooth="yes"/>
      <point x="76" y="378" type="line"/>
      <point x="113" y="700" type="line"/>
      <point x="468" y="700" type="line"/>
      <point x="468" y="681" type="line"/>
      <point x="124" y="681" type="line"/>
      <point x="131" y="689" type="line"/>
      <point x="96" y="387" type="line"/>
      <point x="90" y="397" type="line"/>
      <point x="212" y="397" type="line" smooth="yes"/>
      <point x="320" y="397"/>
      <point x="447" y="348"/>
      <point x="503" y="258"/>
      <point x="503" y="196" type="qcurve" smooth="yes"/>
      <point x="503" y="140"/>
      <point x="451" y="49"/>
      <point x="348" y="-3"/>
    </contour>
  </outline>
</glyph>
<glyph name="six" format="2">
  <advance width="592"/>
  <unicode hex="0036"/>
  <outline>
    <contour>
      <point x="332" y="-3" type="qcurve" smooth="yes"/>
      <point x="241" y="-3"/>
      <point x="120" y="83"/>
      <point x="59" y="242"/>
      <point x="59" y="350" type="qcurve" smooth="yes"/>
      <point x="59" y="468"/>
      <point x="134" y="624"/>
      <point x="268" y="703"/>
      <point x="357" y="703" type="qcurve" smooth="yes"/>
      <point x="399" y="703"/>
      <point x="475" y="689"/>
      <point x="506" y="670" type="qcurve"/>
      <point x="496" y="653" type="line"/>
      <point x="470" y="670"/>
      <point x="398" y="684"/>
      <point x="357" y="684" type="qcurve" smooth="yes"/>
      <point x="231" y="684"/>
      <point x="79" y="518"/>
      <point x="79" y="352" type="qcurve" smooth="yes"/>
      <point x="79" y="327"/>
      <point x="86" y="248"/>
      <point x="98" y="210" type="qcurve"/>
      <point x="90" y="195" type="line"/>
      <point x="92" y="261"/>
      <point x="155" y="356"/>
      <point x="261" y="406"/>
      <point x="325" y="406" type="qcurve" smooth="yes"/>
      <point x="395" y="406"/>
      <point x="498" y="356"/>
      <point x="555" y="264"/>
      <point x="555" y="202" type="qcurve" smooth="yes"/>
      <point x="555" y="140"/>
      <point x="498" y="48"/>
      <point x="397" y="-3"/>
    </contour>
    <contour>
      <point x="332" y="16" type="qcurve" smooth="yes"/>
      <point x="392" y="16"/>
      <point x="483" y="62"/>
      <point x="535" y="146"/>
      <point x="535" y="202" type="qcurve" smooth="yes"/>
      <point x="535" y="286"/>
      <point x="423" y="387"/>
      <point x="325" y="387" type="qcurve" smooth="yes"/>
      <point x="261" y="387"/>
      <point x="164" y="337"/>
      <point x="110" y="252"/>
      <point x="110" y="200" type="qcurve" smooth="yes"/>
      <point x="110" y="156"/>
      <point x="160" y="71"/>
      <point x="259" y="16"/>
    </contour>
  </outline>
</glyph>
<glyph name="eight" format="2">
  <advance width="624"/>
  <unicode hex="0038"/>
  <outline>
    <contour>
      <point x="311" y="-3" type="qcurve" smooth="yes"/>
      <point x="230" y="-3"/>
      <point x="116" y="43"/>
      <point x="55" y="129"/>
      <point x="55" y="188" type="qcurve" smooth="yes"/>
      <point x="55" y="245"/>
      <point x="116" y="328"/>
      <point x="230" y="372"/>
      <point x="311" y="372" type="qcurve" smooth="yes"/>
      <point x="392" y="372"/>
      <point x="507" y="328"/>
      <point x="569" y="245"/>
      <point x="569" y="188" type="qcurve" smooth="yes"/>
      <point x="569" y="129"/>
      <point x="508" y="43"/>
      <point x="392" y="-3"/>
    </contour>
    <contour>
      <point x="311" y="16" type="qcurve" smooth="yes"/>
      <point x="424" y="16"/>
      <point x="549" y="108"/>
      <point x="549" y="187" type="qcurve" smooth="yes"/>
      <point x="549" y="264"/>
      <point x="424" y="356"/>
      <point x="311" y="356" type="qcurve" smooth="yes"/>
      <point x="199" y="356"/>
      <point x="75" y="264"/>
      <point x="75" y="187" type="qcurve" smooth="yes"/>
      <point x="75" y="108"/>
      <point x="199" y="16"/>
    </contour>
    <contour>
      <point x="311" y="359" type="qcurve" smooth="yes"/>
      <point x="237" y="359"/>
      <point x="134" y="400"/>
      <point x="80" y="476"/>
      <point x="80" y="528" type="qcurve" smooth="yes"/>
      <point x="80" y="582"/>
      <point x="137" y="661"/>
      <point x="241" y="703"/>
      <point x="311" y="703" type="qcurve" smooth="yes"/>
      <point x="382" y="703"/>
      <point x="486" y="661"/>
      <point x="544" y="582"/>
      <point x="544" y="528" type="qcurve" smooth="yes"/>
      <point x="544" y="476"/>
      <point x="489" y="400"/>
      <point x="385" y="359"/>
    </contour>
    <contour>
      <point x="311" y="375" type="qcurve" smooth="yes"/>
      <point x="412" y="375"/>
      <point x="524" y="458"/>
      <point x="524" y="528" type="qcurve" smooth="yes"/>
      <point x="524" y="600"/>
      <point x="409" y="684"/>
      <point x="311" y="684" type="qcurve" smooth="yes"/>
      <point x="214" y="684"/>
      <point x="100" y="600"/>
      <point x="100" y="529" type="qcurve" smooth="yes"/>
      <point x="100" y="459"/>
      <point x="211" y="375"/>
    </contour>
  </outline>
</glyph>
<glyph name="equal" format="2">
  <advance width="560"/>
  <unicode hex="003D"/>
  <outline>
    <contour>
      <point x="75" y="450" type="line"/>
      <point x="75" y="469" type="line"/>
      <point x="485" y="469" type="line"/>
      <point x="485" y="450" type="line"/>
    </contour>
    <contour>
      <point x="75" y="231" type="line"/>
      <point x="75" y="250" type="line"/>
      <point x="485" y="250" type="line"/>
      <point x="485" y="231" type="line"/>
    </contour>
  </outline>
</glyph>
<glyph name="L" format="2">
  <advance width="580"/>
  <unicode hex="004C"/>
  <anchor x="189" y="700" name="t.uni0308"/>
  <anchor x="506" y="480" name="t.periodcentered.loclCAT"/>
  <anchor x="189" y="419" name="t.uni0307_1"/>
  <anchor x="413" y="700" name="t.uni031B_2"/>
  <anchor x="338" y="0" name="b.uni0324_3"/>
  <outline>
    <contour>
      <point x="133" y="0" type="line"/>
      <point x="133" y="700" type="line"/>
      <point x="153" y="700" type="line"/>
      <point x="153" y="19" type="line"/>
      <point x="570" y="19" type="line"/>
      <point x="570" y="0" type="line"/>
    </contour>
  </outline>
</glyph>
<glyph name="Q" format="2">
  <advance width="836"/>
  <unicode hex="0051"/>
  <anchor x="428" y="700" name="t.uni0308"/>
  <outline>
    <contour>
      <point x="418" y="-3" type="qcurve" smooth="yes"/>
      <point x="341" y="-3"/>
      <point x="210" y="50"/>
      <point x="113" y="146"/>
      <point x="59" y="274"/>
      <point x="59" y="350" type="qcurve" smooth="yes"/>
      <point x="59" y="426"/>
      <point x="113" y="554"/>
      <point x="210" y="650"/>
      <point x="341" y="703"/>
      <point x="418" y="703" type="qcurve" smooth="yes"/>
      <point x="495" y="703"/>
      <point x="626" y="650"/>
      <point x="723" y="554"/>
      <point x="777" y="426"/>
      <point x="777" y="350" type="qcurve" smooth="yes"/>
      <point x="777" y="274"/>
      <point x="723" y="146"/>
      <point x="626" y="50"/>
      <point x="495" y="-3"/>
    </contour>
    <contour>
      <point x="648" y="-124" type="qcurve" smooth="yes"/>
      <point x="621" y="-124"/>
      <point x="569" y="-109"/>
      <point x="514" y="-78"/>
      <point x="457" y="-30"/>
      <point x="425" y="3" type="qcurve"/>
      <point x="451" y="8" type="line"/>
      <point x="485" y="-29"/>
      <point x="552" y="-80"/>
      <point x="617" y="-105"/>
      <point x="648" y="-105" type="qcurve" smooth="yes"/>
      <point x="734" y="-105"/>
      <point x="793" y="-34" type="qcurve"/>
      <point x="807" y="-48" type="line"/>
      <point x="745" y="-124"/>
    </contour>
    <contour>
      <point x="418" y="16" type="qcurve" smooth="yes"/>
      <point x="490" y="16"/>
      <point x="614" y="67"/>
      <point x="706" y="158"/>
      <point x="757" y="279"/>
      <point x="757" y="350" type="qcurve" smooth="yes"/>
      <point x="757" y="421"/>
      <point x="706" y="542"/>
      <point x="614" y="633"/>
      <point x="490" y="684"/>
      <point x="418" y="684" type="qcurve" smooth="yes"/>
      <point x="346" y="684"/>
      <point x="222" y="633"/>
      <point x="130" y="542"/>
      <point x="79" y="421"/>
      <point x="79" y="350" type="qcurve" smooth="yes"/>
      <point x="79" y="279"/>
      <point x="130" y="158"/>
      <point x="222" y="67"/>
      <point x="346" y="16"/>
    </contour>
  </outline>
</glyph>
<glyph name="R" format="2">
  <advance width="716"/>
  <unicode hex="0052"/>
  <anchor x="385" y="700" name="t.uni0308"/>
  <anchor x="385" y="0" name="b.uni0324_3"/>
  <outline>
    <contour>
      <point x="133" y="0" type="line"/>
      <point x="133" y="700" type="line"/>
      <point x="370" y="700" type="line" smooth="yes"/>
      <point x="456" y="700"/>
      <point x="579" y="645"/>
      <point x="645" y="543"/>
      <point x="645" y="470" type="qcurve" smooth="yes"/>
      <point x="645" y="398"/>
      <point x="579" y="295"/>
      <point x="456" y="240"/>
      <point x="370" y="240" type="qcurve" smooth="yes"/>
      <point x="144" y="240" type="line"/>
      <point x="153" y="249" type="line"/>
      <point x="153" y="0" type="line"/>
    </contour>
    <contour>
      <point x="630" y="0" type="line"/>
      <point x="447" y="254" type="line"/>
      <point x="472" y="254" type="line"/>
      <point x="655" y="0" type="line"/>
    </contour>
    <contour>
      <point x="153" y="251" type="line"/>
      <point x="144" y="259" type="line"/>
      <point x="372" y="259" type="line" smooth="yes"/>
      <point x="495" y="259"/>
      <point x="625" y="370"/>
      <point x="625" y="470" type="qcurve" smooth="yes"/>
      <point x="625" y="571"/>
      <point x="495" y="681"/>
      <point x="372" y="681" type="qcurve" smooth="yes"/>
      <point x="144" y="681" type="line"/>
      <point x="153" y="689" type="line"/>
    </contour>
  </outline>
</glyph>
<glyph name="U" format="2">
  <advance width="794"/>
  <unicode hex="0055"/>
  <anchor x="393" y="700" name="t.uni0308"/>
  <anchor x="626" y="700" name="t.uni031B_2"/>
  <anchor x="393" y="0" name="b.uni0324_3"/>
  <anchor x="636" y="0" name="m.uni0328_4"/>
  <outline>
    <contour>
      <point x="397" y="-3" type="qcurve" smooth="yes"/>
      <point x="272" y="-3"/>
      <point x="127" y="145"/>
      <point x="127" y="293" type="qcurve" smooth="yes"/>
      <point x="127" y="700" type="line"/>
      <point x="147" y="700" type="line"/>
      <point x="147" y="294" type="line" smooth="yes"/>
      <point x="147" y="154"/>
      <point x="278" y="16"/>
      <point x="397" y="16" type="qcurve" smooth="yes"/>
      <point x="516" y="16"/>
      <point x="647" y="154"/>
      <point x="647" y="294" type="qcurve" smooth="yes"/>
      <point x="647" y="700" type="line"/>
      <point x="667" y="700" type="line"/>
      <point x="667" y="293" type="line" smooth="yes"/>
      <point x="667" y="145"/>
      <point x="522" y="-3"/>
    </contour>
  </outline>
</glyph>
<glyph name="underscore" format="2">
  <advance width="500"/>
  <unicode hex="005F"/>
  <outline>
    <contour>
      <point x="0" y="-19" type="line"/>
      <point x="0" y="0" type="line"/>
      <point x="500" y="0" type="line"/>
      <point x="500" y="-19" type="line"/>
    </contour>
  </outline>
</glyph>
<glyph name="b" format="2">
  <advance width="671"/>
  <unicode hex="0062"/>
  <outline>
    <contour>
      <point x="366" y="-3" type="qcurve" smooth="yes"/>
      <point x="295" y="-3"/>
      <point x="183" y="64"/>
      <point x="118" y="183"/>
      <point x="118" y="259" type="qcurve" smooth="yes"/>
      <point x="118" y="336"/>
      <point x="183" y="453"/>
      <point x="295" y="520"/>
      <point x="366" y="520" type="qcurve" smooth="yes"/>
      <point x="437" y="520"/>
      <point x="551" y="453"/>
      <point x="617" y="336"/>
      <point x="617" y="259" type="qcurve" smooth="yes"/>
      <point x="617" y="183"/>
      <point x="551" y="64"/>
      <point x="437" y="-3"/>
    </contour>
    <contour>
      <point x="115" y="0" type="line"/>
      <point x="115" y="742" type="line"/>
      <point x="135" y="742" type="line"/>
      <point x="135" y="330" type="line"/>
      <point x="125" y="260" type="line"/>
      <point x="135" y="190" type="line"/>
      <point x="135" y="0" type="line"/>
    </contour>
    <contour>
      <point x="366" y="16" type="qcurve" smooth="yes"/>
      <point x="432" y="16"/>
      <point x="537" y="78"/>
      <point x="597" y="188"/>
      <point x="597" y="259" type="qcurve" smooth="yes"/>
      <point x="597" y="331"/>
      <point x="537" y="440"/>
      <point x="432" y="501"/>
      <point x="366" y="501" type="qcurve" smooth="yes"/>
      <point x="300" y="501"/>
      <point x="195" y="440"/>
      <point x="135" y="331"/>
      <point x="135" y="259" type="qcurve" smooth="yes"/>
      <point x="135" y="188"/>
      <point x="195" y="78"/>
      <point x="300" y="16"/>
    </contour>
  </outline>
</glyph>
<glyph name="e" format="2">
  <advance width="587"/>
  <unicode hex="0065"/>
  <anchor x="342" y="562" name="t.uni0308"/>
  <anchor x="342" y="0" name="b.uni0324_3"/>
  <anchor x="584" y="0" name="m.uni0328_4"/>
  <outline>
    <contour>
      <point x="312" y="-3" type="qcurve" smooth="yes"/>
      <point x="237" y="-3"/>
      <point x="121" y="64"/>
      <point x="54" y="183"/>
      <point x="54" y="259" type="qcurve" smooth="yes"/>
      <point x="54" y="336"/>
      <point x="116" y="453"/>
      <point x="225" y="520"/>
      <point x="293" y="520" type="qcurve" smooth="yes"/>
      <point x="361" y="520"/>
      <point x="470" y="455"/>
      <point x="533" y="339"/>
      <point x="533" y="264" type="qcurve"/>
      <point x="533" y="263"/>
      <point x="533" y="261"/>
      <point x="533" y="259" type="qcurve"/>
      <point x="65" y="259" type="line"/>
      <point x="65" y="278" type="line"/>
      <point x="522" y="278" type="line"/>
      <point x="514" y="263" type="line"/>
      <point x="514" y="331"/>
      <point x="456" y="439"/>
      <point x="357" y="501"/>
      <point x="293" y="501" type="qcurve" smooth="yes"/>
      <point x="230" y="501"/>
      <point x="130" y="439"/>
      <point x="73" y="331"/>
      <point x="73" y="263" type="qcurve" smooth="yes"/>
      <point x="73" y="259" type="line" smooth="yes"/>
      <point x="73" y="188"/>
      <point x="135" y="78"/>
      <point x="243" y="16"/>
      <point x="312" y="16" type="qcurve" smooth="yes"/>
      <point x="364" y="16"/>
      <point x="457" y="56"/>
      <point x="488" y="96" type="qcurve"/>
      <point x="502" y="82" type="line"/>
      <point x="468" y="40"/>
      <point x="368" y="-3"/>
    </contour>
  </outline>
</glyph>
<glyph name="g" format="2">
  <advance width="677"/>
  <unicode hex="0067"/>
  <anchor x="372" y="562" name="t.uni0308"/>
  <outline>
    <contour>
      <point x="323" y="-197" type="qcurve" smooth="yes"/>
      <point x="253" y="-197"/>
      <point x="131" y="-151"/>
      <point x="94" y="-111" type="qcurve"/>
      <point x="108" y="-97" type="line"/>
      <point x="148" y="-136"/>
      <point x="258" y="-178"/>
      <point x="323" y="-178" type="qcurve" smooth="yes"/>
      <point x="435" y="-178"/>
      <point x="542" y="-72"/>
      <point x="542" y="43" type="qcurve" smooth="yes"/>
      <point x="542" y="209" type="line"/>
      <point x="552" y="269" type="line"/>
      <point x="542" y="329" type="line"/>
      <point x="542" y="517" type="line"/>
      <point x="562" y="517" type="line"/>
      <point x="562" y="46" type="line" smooth="yes"/>
      <point x="562" y="-79"/>
      <point x="443" y="-197"/>
    </contour>
    <contour>
      <point x="308" y="17" type="qcurve" smooth="yes"/>
      <point x="236" y="17"/>
      <point x="121" y="82"/>
      <point x="54" y="196"/>
      <point x="54" y="269" type="qcurve" smooth="yes"/>
      <point x="54" y="343"/>
      <point x="121" y="456"/>
      <point x="236" y="520"/>
      <point x="308" y="520" type="qcurve" smooth="yes"/>
      <point x="381" y="520"/>
      <point x="494" y="456"/>
      <point x="559" y="343"/>
      <point x="559" y="269" type="qcurve" smooth="yes"/>
      <point x="559" y="196"/>
      <point x="494" y="82"/>
      <point x="381" y="17"/>
    </contour>
    <contour>
      <point x="308" y="36" type="qcurve" smooth="yes"/>
      <point x="376" y="36"/>
      <point x="481" y="95"/>
      <point x="542" y="201"/>
      <point x="542" y="269" type="qcurve" smooth="yes"/>
      <point x="542" y="338"/>
      <point x="481" y="442"/>
      <point x="376" y="501"/>
      <point x="308" y="501" type="qcurve" smooth="yes"/>
      <point x="241" y="501"/>
      <point x="135" y="442"/>
      <point x="74" y="338"/>
      <point x="74" y="269" type="qcurve" smooth="yes"/>
      <point x="74" y="201"/>
      <point x="135" y="95"/>
      <point x="241" y="36"/>
    </contour>
  </outline>
</glyph>
<glyph name="q" format="2">
  <advance width="671"/>
  <unicode hex="0071"/>
  <anchor x="354" y="562" name="t.uni0308"/>
  <anchor x="281" y="0" name="b.uni0324_3"/>
  <outline>
    <contour>
      <point x="305" y="-3" type="qcurve" smooth="yes"/>
      <point x="234" y="-3"/>
      <point x="120" y="64"/>
      <point x="54" y="182"/>
      <point x="54" y="258" type="qcurve" smooth="yes"/>
      <point x="54" y="335"/>
      <point x="120" y="453"/>
      <point x="234" y="520"/>
      <point x="305" y="520" type="qcurve" smooth="yes"/>
      <point x="376" y="520"/>
      <point x="488" y="453"/>
      <point x="553" y="335"/>
      <point x="553" y="258" type="qcurve" smooth="yes"/>
      <point x="553" y="182"/>
      <point x="488" y="64"/>
      <point x="376" y="-3"/>
    </contour>
    <contour>
      <point x="305" y="16" type="qcurve" smooth="yes"/>
      <point x="371" y="16"/>
      <point x="476" y="77"/>
      <point x="536" y="187"/>
      <point x="536" y="258" type="qcurve" smooth="yes"/>
      <point x="536" y="330"/>
      <point x="476" y="439"/>
      <point x="371" y="501"/>
      <point x="305" y="501" type="qcurve" smooth="yes"/>
      <point x="239" y="501"/>
      <point x="135" y="439"/>
      <point x="74" y="330"/>
      <point x="74" y="258" type="qcurve" smooth="yes"/>
      <point x="74" y="187"/>
      <point x="135" y="77"/>
      <point x="239" y="16"/>
    </contour>
    <contour>
      <point x="536" y="-194" type="line"/>
      <point x="536" y="187" type="line"/>
      <point x="546" y="257" type="line"/>
      <point x="536" y="327" type="line"/>
      <point x="536" y="517" type="line"/>
      <point x="556" y="517" type="line"/>
      <point x="556" y="-194" type="line"/>
    </contour>
  </outline>
</glyph>
<glyph name="u" format="2">
  <advance width="664"/>
  <unicode hex="0075"/>
  <anchor x="356" y="562" name="t.uni0308"/>
  <anchor x="533" y="562" name="t.uni031B_2"/>
  <anchor x="356" y="0" name="b.uni0324_3"/>
  <anchor x="691" y="0" name="m.uni0328_4"/>
  <outline>
    <contour>
      <point x="321" y="-3" type="qcurve" smooth="yes"/>
      <point x="255" y="-3"/>
      <point x="160" y="46"/>
      <point x="109" y="142"/>
      <point x="109" y="212" type="qcurve" smooth="yes"/>
      <point x="109" y="517" type="line"/>
      <point x="129" y="517" type="line"/>
      <point x="129" y="212" type="line" smooth="yes"/>
      <point x="129" y="116"/>
      <point x="229" y="16"/>
      <point x="320" y="16" type="qcurve" smooth="yes"/>
      <point x="385" y="16"/>
      <point x="479" y="71"/>
      <point x="529" y="171"/>
      <point x="529" y="236" type="qcurve" smooth="yes"/>
      <point x="529" y="517" type="line"/>
      <point x="549" y="517" type="line"/>
      <point x="549" y="0" type="line"/>
      <point x="529" y="0" type="line"/>
      <point x="529" y="146" type="line"/>
      <point x="531" y="143" type="line"/>
      <point x="509" y="76"/>
      <point x="401" y="-3"/>
    </contour>
  </outline>
</glyph>
<glyph name="w" format="2">
  <advance width="838"/>
  <unicode hex="0077"/>
  <anchor x="522" y="560" name="t.uni0308"/>
  <anchor x="522" y="0" name="b.uni0324_3"/>
  <outline>
    <contour>
      <point x="211" y="0" type="line"/>
      <point x="12" y="517" type="line"/>
      <point x="32" y="517" type="line"/>
      <point x="223" y="14" type="line"/>
      <point x="215" y="14" type="line"/>
      <point x="409" y="517" type="line"/>
      <point x="428" y="517" type="line"/>
      <point x="622" y="14" type="line"/>
      <point x="614" y="14" type="line"/>
      <point x="805" y="517" type="line"/>
      <point x="826" y="517" type="line"/>
      <point x="627" y="0" type="line"/>
      <point x="609" y="0" type="line"/>
      <point x="415" y="498" type="line"/>
      <point x="422" y="498" type="line"/>
      <point x="228" y="0" type="line"/>
    </contour>
  </outline>
</glyph>
<glyph name="y" format="2">
  <advance width="508"/>
  <unicode hex="0079"/>
  <anchor x="345" y="562" name="t.uni0308"/>
  <anchor x="608" y="0" name="b.uni0324_3"/>
  <outline>
    <contour>
      <point x="81" y="-197" type="qcurve" smooth="yes"/>
      <point x="47" y="-197"/>
      <point x="-10" y="-174"/>
      <point x="-31" y="-151" type="qcurve"/>
      <point x="-16" y="-135" type="line"/>
      <point x="5" y="-157"/>
      <point x="51" y="-178"/>
      <point x="82" y="-178" type="qcurve" smooth="yes"/>
      <point x="120" y="-178"/>
      <point x="180" y="-135"/>
      <point x="207" y="-77" type="qcurve" smooth="yes"/>
      <point x="245" y="7" type="line"/>
      <point x="250" y="14" type="line"/>
      <point x="479" y="517" type="line"/>
      <point x="502" y="517" type="line"/>
      <point x="227" y="-83" type="line" smooth="yes"/>
      <point x="208" y="-125"/>
      <point x="163" y="-175"/>
      <point x="112" y="-197"/>
    </contour>
    <contour>
      <point x="249" y="-11" type="line"/>
      <point x="6" y="517" type="line"/>
      <point x="29" y="517" type="line"/>
      <point x="258" y="14" type="line"/>
    </contour>
  </outline>
</glyph>
<glyph name="braceleft" format="2">
  <advance width="300"/>
  <unicode hex="007B"/>
  <outline>
    <contour>
      <point x="250" y="-194" type="line" smooth="yes"/>
      <point x="198" y="-194"/>
      <point x="145" y="-144"/>
      <point x="145" y="-92" type="qcurve" smooth="yes"/>
      <point x="145" y="212" type="line" smooth="yes"/>
      <point x="145" y="240"/>
      <point x="122" y="265"/>
      <point x="100" y="265" type="qcurve" smooth="yes"/>
      <point x="65" y="265" type="line"/>
      <point x="65" y="284" type="line"/>
      <point x="100" y="284" type="line" smooth="yes"/>
      <point x="122" y="284"/>
      <point x="145" y="308"/>
      <point x="145" y="336" type="qcurve" smooth="yes"/>
      <point x="145" y="640" type="line" smooth="yes"/>
      <point x="145" y="693"/>
      <point x="198" y="742"/>
      <point x="250" y="742" type="qcurve" smooth="yes"/>
      <point x="275" y="742" type="line"/>
      <point x="275" y="723" type="line"/>
      <point x="243" y="723" type="line" smooth="yes"/>
      <point x="203" y="723"/>
      <point x="165" y="680"/>
      <point x="165" y="640" type="qcurve" smooth="yes"/>
      <point x="165" y="336" type="line" smooth="yes"/>
      <point x="165" y="316"/>
      <point x="157" y="291"/>
      <point x="141" y="277"/>
      <point x="128" y="272" type="qcurve"/>
      <point x="128" y="276" type="line"/>
      <point x="141" y="272"/>
      <point x="157" y="257"/>
      <point x="165" y="232"/>
      <point x="165" y="212" type="qcurve" smooth="yes"/>
      <point x="165" y="-92" type="line" smooth="yes"/>
      <point x="165" y="-132"/>
      <point x="203" y="-175"/>
      <point x="243" y="-175" type="qcurve" smooth="yes"/>
      <point x="275" y="-175" type="line"/>
      <point x="275" y="-194" type="line"/>
    </contour>
  </outline>
</glyph>
<glyph name="asciitilde" format="2">
  <advance width="560"/>
  <unicode hex="007E"/>
  <outline>
    <contour>
      <point x="382" y="286" type="qcurve" smooth="yes"/>
      <point x="346" y="286"/>
      <point x="296" y="319"/>
      <point x="254" y="363"/>
      <point x="209" y="396"/>
      <point x="178" y="396" type="qcurve" smooth="yes"/>
      <point x="137" y="396"/>
      <point x="89" y="338"/>
      <point x="87" y="289" type="qcurve"/>
      <point x="69" y="289" type="line"/>
      <point x="72" y="348"/>
      <point x="132" y="414"/>
      <point x="178" y="414" type="qcurve" smooth="yes"/>
      <point x="214" y="414"/>
      <point x="264" y="381"/>
      <point x="306" y="337"/>
      <point x="351" y="304"/>
      <point x="382" y="304" type="qcurve" smooth="yes"/>
      <point x="423" y="304"/>
      <point x="471" y="362"/>
      <point x="473" y="411" type="qcurve"/>
      <point x="491" y="411" type="line"/>
      <point x="488" y="353"/>
      <point x="429" y="286"/>
    </contour>
  </outline>
</glyph>
<glyph name="exclamdown" format="2">
  <advance width="242"/>
  <unicode hex="00A1"/>
  <outline>
    <contour>
      <point x="128" y="329" type="line"/>
      <point x="132" y="-154" type="line"/>
      <point x="110" y="-154" type="line"/>
      <point x="114" y="329" type="line"/>
    </contour>
    <contour>
      <point x="121" y="520" type="qcurve" smooth="yes"/>
      <point x="132" y="520"/>
      <point x="147" y="505"/>
      <point x="147" y="494" type="qcurve" smooth="yes"/>
      <point x="147" y="484"/>
      <point x="132" y="468"/>
      <point x="121" y="468" type="qcurve" smooth="yes"/>
      <point x="111" y="468"/>
      <point x="95" y="484"/>
      <point x="95" y="494" type="qcurve" smooth="yes"/>
      <point x="95" y="505"/>
      <point x="111" y="520"/>
    </contour>
  </outline>
</glyph>
<glyph name="cent" format="2">
  <advance width="545"/>
  <unicode hex="00A2"/>
  <outline>
    <contour>
      <point x="293" y="-120" type="line"/>
      <point x="293" y="637" type="line"/>
      <point x="312" y="637" type="line"/>
      <point x="312" y="-120" type="line"/>
    </contour>
    <contour>
      <point x="308" y="-3" type="qcurve" smooth="yes"/>
      <point x="235" y="-3"/>
      <point x="120" y="64"/>
      <point x="54" y="182"/>
      <point x="54" y="259" type="qcurve" smooth="yes"/>
      <point x="54" y="336"/>
      <point x="120" y="454"/>
      <point x="235" y="520"/>
      <point x="308" y="520" type="qcurve" smooth="yes"/>
      <point x="364" y="520"/>
      <point x="461" y="478"/>
      <point x="494" y="436" type="qcurve"/>
      <point x="480" y="421" type="line"/>
      <point x="450" y="462"/>
      <point x="360" y="501"/>
      <point x="308" y="501" type="qcurve" smooth="yes"/>
      <point x="241" y="501"/>
      <point x="135" y="440"/>
      <point x="74" y="331"/>
      <point x="74" y="259" type="qcurve" smooth="yes"/>
      <point x="74" y="187"/>
      <point x="135" y="78"/>
      <point x="241" y="16"/>
      <point x="308" y="16" type="qcurve" smooth="yes"/>
      <point x="360" y="16"/>
      <point x="450" y="56"/>
      <point x="480" y="96" type="qcurve"/>
      <point x="494" y="81" type="line"/>
      <point x="461" y="39"/>
      <point x="364" y="-3"/>
    </contour>
  </outline>
</glyph>
<glyph name="currency" format="2">
  <advance width="700"/>
  <unicode hex="00A4"/>
  <outline>
    <contour>
      <point x="159" y="494" type="line"/>
      <point x="39" y="615" type="line"/>
      <point x="53" y="629" type="line"/>
      <point x="174" y="508" type="line"/>
    </contour>
    <contour>
      <point x="53" y="6" type="line"/>
      <point x="39" y="20" type="line"/>
      <point x="159" y="141" type="line"/>
      <point x="174" y="127" type="line"/>
    </contour>
    <contour>
      <point x="647" y="6" type="line"/>
      <point x="526" y="127" type="line"/>
      <point x="541" y="141" type="line"/>
      <point x="661" y="20" type="line"/>
    </contour>
    <contour>
      <point x="541" y="494" type="line"/>
      <point x="526" y="508" type="line"/>
      <point x="647" y="629" type="line"/>
      <point x="661" y="615" type="line"/>
    </contour>
    <contour>
      <point x="350" y="46" type="qcurve" smooth="yes"/>
      <point x="292" y="46"/>
      <point x="191" y="88"/>
      <point x="114" y="163"/>
      <point x="70" y="261"/>
      <point x="70" y="316" type="qcurve" smooth="yes"/>
      <point x="70" y="372"/>
      <point x="114" y="471"/>
      <point x="191" y="546"/>
      <point x="292" y="589"/>
      <point x="350" y="589" type="qcurve" smooth="yes"/>
      <point x="409" y="589"/>
      <point x="511" y="546"/>
      <point x="589" y="471"/>
      <point x="633" y="372"/>
      <point x="633" y="316" type="qcurve" smooth="yes"/>
      <point x="633" y="261"/>
      <point x="589" y="163"/>
      <point x="511" y="88"/>
      <point x="409" y="46"/>
    </contour>
    <contour>
      <point x="350" y="66" type="qcurve" smooth="yes"/>
      <point x="423" y="66"/>
      <point x="542" y="134"/>
      <point x="613" y="247"/>
      <point x="613" y="316" type="qcurve" smooth="yes"/>
      <point x="613" y="386"/>
      <point x="542" y="500"/>
      <point x="423" y="569"/>
      <point x="350" y="569" type="qcurve" smooth="yes"/>
      <point x="279" y="569"/>
      <point x="160" y="500"/>
      <point x="90" y="386"/>
      <point x="90" y="316" type="qcurve" smooth="yes"/>
      <point x="90" y="247"/>
      <point x="160" y="134"/>
      <point x="279" y="66"/>
    </contour>
  </outline>
</glyph>
<glyph name="brokenbar" format="2">
  <advance width="286"/>
  <unicode hex="00A6"/>
  <outline>
    <contour>
      <point x="133" y="392" type="line"/>
      <point x="133" y="742" type="line"/>
      <point x="153" y="742" type="line"/>
      <point x="153" y="392" type="line"/>
    </contour>
    <contour>
      <point x="133" y="-194" type="line"/>
      <point x="133" y="156" type="line"/>
      <point x="153" y="156" type="line"/>
      <point x="153" y="-194" type="line"/>
    </contour>
  </outline>
</glyph>
<glyph name="section" format="2">
  <advance width="471"/>
  <unicode hex="00A7"/>
  <outline>
    <contour>
      <point x="315" y="148" type="qcurve"/>
      <point x="289" y="161" type="line"/>
      <point x="339" y="168"/>
      <point x="411" y="229"/>
      <point x="411" y="283" type="qcurve" smooth="yes"/>
      <point x="411" y="322"/>
      <point x="374" y="370"/>
      <point x="313" y="398"/>
      <point x="240" y="417"/>
      <point x="168" y="437"/>
      <point x="107" y="467"/>
      <point x="70" y="520"/>
      <point x="70" y="562" type="qcurve" smooth="yes"/>
      <point x="70" y="608"/>
      <point x="116" y="670"/>
      <point x="202" y="703"/>
      <point x="263" y="703" type="qcurve" smooth="yes"/>
      <point x="295" y="703"/>
      <point x="359" y="690"/>
      <point x="414" y="666"/>
      <point x="434" y="650" type="qcurve"/>
      <point x="422" y="634" type="line"/>
      <point x="391" y="659"/>
      <point x="307" y="684"/>
      <point x="263" y="684" type="qcurve" smooth="yes"/>
      <point x="180" y="684"/>
      <point x="90" y="624"/>
      <point x="90" y="562" type="qcurve" smooth="yes"/>
      <point x="90" y="523"/>
      <point x="127" y="477"/>
      <point x="187" y="450"/>
      <point x="260" y="431"/>
      <point x="333" y="412"/>
      <point x="393" y="380"/>
      <point x="430" y="327"/>
      <point x="430" y="283" type="qcurve" smooth="yes"/>
      <point x="430" y="231"/>
      <point x="364" y="160"/>
    </contour>
    <contour>
      <point x="224" y="-103" type="qcurve" smooth="yes"/>
      <point x="187" y="-103"/>
      <point x="113" y="-85"/>
      <point x="52" y="-52"/>
      <point x="32" y="-32" type="qcurve"/>
      <point x="44" y="-16" type="line"/>
      <point x="72" y="-43"/>
      <point x="169" y="-84"/>
      <point x="224" y="-84" type="qcurve" smooth="yes"/>
      <point x="301" y="-84"/>
      <point x="386" y="-23"/>
      <point x="386" y="38" type="qcurve" smooth="yes"/>
      <point x="386" y="77"/>
      <point x="349" y="123"/>
      <point x="289" y="150"/>
      <point x="216" y="169"/>
      <point x="143" y="188"/>
      <point x="83" y="220"/>
      <point x="46" y="274"/>
      <point x="46" y="317" type="qcurve" smooth="yes"/>
      <point x="46" y="370"/>
      <point x="112" y="439"/>
      <point x="160" y="451" type="qcurve"/>
      <point x="184" y="438" type="line"/>
      <point x="135" y="431"/>
      <point x="65" y="370"/>
      <point x="65" y="317" type="qcurve" smooth="yes"/>
      <point x="65" y="278"/>
      <point x="102" y="230"/>
      <point x="163" y="201"/>
      <point x="236" y="183"/>
      <point x="308" y="163"/>
      <point x="369" y="132"/>
      <point x="406" y="79"/>
      <point x="406" y="36" type="qcurve" smooth="yes"/>
      <point x="406" y="-8"/>
      <point x="361" y="-71"/>
      <point x="280" y="-103"/>
    </contour>
  </outline>
</glyph>
<glyph name="copyright" format="2">
  <advance width="824"/>
  <unicode hex="00A9"/>
  <outline>
    <contour>
      <point x="411" y="-3" type="qcurve" smooth="yes"/>
      <point x="336" y="-3"/>
      <point x="208" y="51"/>
      <point x="112" y="148"/>
      <point x="59" y="276"/>
      <point x="59" y="350" type="qcurve" smooth="yes"/>
      <point x="59" y="424"/>
      <point x="113" y="552"/>
      <point x="209" y="649"/>
      <point x="338" y="703"/>
      <point x="413" y="703" type="qcurve" smooth="yes"/>
      <point x="488" y="703"/>
      <point x="617" y="650"/>
      <point x="712" y="554"/>
      <point x="765" y="427"/>
      <point x="765" y="352" type="qcurve" smooth="yes"/>
      <point x="765" y="277"/>
      <point x="711" y="148"/>
      <point x="614" y="51"/>
      <point x="486" y="-3"/>
    </contour>
    <contour>
      <point x="411" y="16" type="qcurve" smooth="yes"/>
      <point x="482" y="16"/>
      <point x="603" y="68"/>
      <point x="695" y="159"/>
      <point x="746" y="282"/>
      <point x="746" y="352" type="qcurve" smooth="yes"/>
      <point x="746" y="423"/>
      <point x="696" y="543"/>
      <point x="606" y="634"/>
      <point x="484" y="684"/>
      <point x="413" y="684" type="qcurve" smooth="yes"/>
      <point x="342" y="684"/>
      <point x="220" y="633"/>
      <point x="129" y="541"/>
      <point x="78" y="420"/>
      <point x="78" y="350" type="qcurve" smooth="yes"/>
      <point x="78" y="280"/>
      <point x="129" y="159"/>
      <point x="219" y="67"/>
      <point x="341" y="16"/>
    </contour>
    <contour>
      <point x="419" y="139" type="qcurve" smooth="yes"/>
      <point x="360" y="139"/>
      <point x="267" y="193"/>
      <point x="214" y="288"/>
      <point x="214" y="350" type="qcurve" smooth="yes"/>
      <point x="214" y="412"/>
      <point x="267" y="507"/>
      <point x="360" y="561"/>
      <point x="419" y="561" type="qcurve" smooth="yes"/>
      <point x="464" y="561"/>
      <point x="543" y="527"/>
      <point x="570" y="493" type="qcurve"/>
      <point x="555" y="478" type="line"/>
      <point x="531" y="510"/>
      <point x="459" y="542"/>
      <point x="418" y="542" type="qcurve" smooth="yes"/>
      <point x="365" y="542"/>
      <point x="282" y="494"/>
      <point x="234" y="407"/>
      <point x="234" y="350" type="qcurve" smooth="yes"/>
      <point x="234" y="293"/>
      <point x="282" y="206"/>
      <point x="365" y="158"/>
      <point x="418" y="158" type="qcurve" smooth="yes"/>
      <point x="459" y="158"/>
      <point x="531" y="190"/>
      <point x="555" y="222" type="qcurve"/>
      <point x="570" y="207" type="line"/>
      <point x="543" y="173"/>
      <point x="464" y="139"/>
    </contour>
  </outline>
</glyph>
<glyph name="ordfeminine" format="2">
  <advance width="394"/>
  <unicode hex="00AA"/>
  <outline>
    <contour>
      <point x="293" y="434" type="line"/>
      <point x="293" y="506" type="line"/>
      <point x="292" y="516" type="line"/>
      <point x="292" y="633" type="line" smooth="yes"/>
      <point x="292" y="680"/>
      <point x="240" y="726"/>
      <point x="189" y="726" type="qcurve" smooth="yes"/>
      <point x="152" y="726"/>
      <point x="91" y="704"/>
      <point x="69" y="685" type="qcurve"/>
      <point x="59" y="699" type="line"/>
      <point x="83" y="719"/>
      <point x="152" y="744"/>
      <point x="189" y="744" type="qcurve" smooth="yes"/>
      <point x="248" y="744"/>
      <point x="312" y="688"/>
      <point x="312" y="633" type="qcurve" smooth="yes"/>
      <point x="312" y="434" type="line"/>
    </contour>
    <contour>
      <point x="167" y="432" type="qcurve" smooth="yes"/>
      <point x="111" y="432"/>
      <point x="49" y="480"/>
      <point x="49" y="519" type="qcurve" smooth="yes"/>
      <point x="49" y="553"/>
      <point x="103" y="602"/>
      <point x="170" y="602" type="qcurve" smooth="yes"/>
      <point x="300" y="602" type="line"/>
      <point x="300" y="587" type="line"/>
      <point x="170" y="587" type="line" smooth="yes"/>
      <point x="115" y="587"/>
      <point x="68" y="549"/>
      <point x="68" y="520" type="qcurve" smooth="yes"/>
      <point x="68" y="487"/>
      <point x="121" y="448"/>
      <point x="170" y="448" type="qcurve" smooth="yes"/>
      <point x="217" y="448"/>
      <point x="276" y="487"/>
      <point x="292" y="523" type="qcurve"/>
      <point x="299" y="513" type="line"/>
      <point x="286" y="476"/>
      <point x="219" y="432"/>
    </contour>
  </outline>
</glyph>
<glyph name="degree" format="2">
  <advance width="420"/>
  <unicode hex="00B0"/>
  <outline>
    <contour>
      <point x="210" y="403" type="qcurve" smooth="yes"/>
      <point x="169" y="403"/>
      <point x="100" y="443"/>
      <point x="60" y="511"/>
      <point x="60" y="553" type="qcurve" smooth="yes"/>
      <point x="60" y="595"/>
      <point x="100" y="663"/>
      <point x="169" y="703"/>
      <point x="210" y="703" type="qcurve" smooth="yes"/>
      <point x="252" y="703"/>
      <point x="320" y="663"/>
      <point x="360" y="595"/>
      <point x="360" y="553" type="qcurve" smooth="yes"/>
      <point x="360" y="511"/>
      <point x="320" y="443"/>
      <point x="252" y="403"/>
    </contour>
    <contour>
      <point x="210" y="421" type="qcurve" smooth="yes"/>
      <point x="247" y="421"/>
      <point x="306" y="457"/>
      <point x="341" y="517"/>
      <point x="341" y="553" type="qcurve" smooth="yes"/>
      <point x="341" y="590"/>
      <point x="306" y="649"/>
      <point x="247" y="685"/>
      <point x="210" y="685" type="qcurve" smooth="yes"/>
      <point x="173" y="685"/>
      <point x="114" y="649"/>
      <point x="79" y="590"/>
      <point x="79" y="553" type="qcurve" smooth="yes"/>
      <point x="79" y="517"/>
      <point x="114" y="457"/>
      <point x="173" y="421"/>
    </contour>
  </outline>
</glyph>
<glyph name="paragraph" format="2">
  <advance width="600"/>
  <unicode hex="00B6"/>
  <outline>
    <contour>
      <point x="225" y="-100" type="line"/>
      <point x="225" y="419" type="line"/>
      <point x="165" y="419"/>
      <point x="75" y="459"/>
      <point x="25" y="532"/>
      <point x="25" y="581" type="qcurve" smooth="yes"/>
      <point x="25" y="631"/>
      <point x="75" y="703"/>
      <point x="165" y="742"/>
      <point x="225" y="742" type="qcurve" smooth="yes"/>
      <point x="467" y="742" type="line"/>
      <point x="467" y="-100" type="line"/>
      <point x="447" y="-100" type="line"/>
      <point x="447" y="723" type="line"/>
      <point x="245" y="723" type="line"/>
      <point x="245" y="-100" type="line"/>
    </contour>
  </outline>
</glyph>
<glyph name="periodcentered" format="2">
  <advance width="222"/>
  <unicode hex="00B7"/>
  <outline>
    <contour>
      <point x="111" y="238" type="qcurve" smooth="yes"/>
      <point x="101" y="238"/>
      <point x="85" y="254"/>
      <point x="85" y="264" type="qcurve" smooth="yes"/>
      <point x="85" y="275"/>
      <point x="101" y="290"/>
      <point x="111" y="290" type="qcurve" smooth="yes"/>
      <point x="122" y="290"/>
      <point x="137" y="275"/>
      <point x="137" y="264" type="qcurve" smooth="yes"/>
      <point x="137" y="254"/>
      <point x="122" y="238"/>
    </contour>
  </outline>
</glyph>
<glyph name="ae" format="2">
  <advance width="979"/>
  <unicode hex="00E6"/>
  <anchor x="488" y="562" name="t.uni0308"/>
  <anchor x="481" y="0" name="b.uni0324_3"/>
  <outline>
    <contour>
      <point x="248" y="-3" type="qcurve" smooth="yes"/>
      <point x="161" y="-3"/>
      <point x="65" y="77"/>
      <point x="65" y="142" type="qcurve" smooth="yes"/>
      <point x="65" y="179"/>
      <point x="100" y="241"/>
      <point x="180" y="280"/>
      <point x="249" y="280" type="qcurve" smooth="yes"/>
      <point x="451" y="280" type="line"/>
      <point x="451" y="261" type="line"/>
      <point x="248" y="261" type="line" smooth="yes"/>
      <point x="160" y="261"/>
      <point x="85" y="194"/>
      <point x="85" y="143" type="qcurve" smooth="yes"/>
      <point x="85" y="85"/>
      <point x="171" y="16"/>
      <point x="248" y="16" type="qcurve" smooth="yes"/>
      <point x="335" y="16"/>
      <point x="445" y="112"/>
      <point x="445" y="202" type="qcurve" smooth="yes"/>
      <point x="445" y="338" type="line" smooth="yes"/>
      <point x="445" y="419"/>
      <point x="361" y="501"/>
      <point x="281" y="501" type="qcurve" smooth="yes"/>
      <point x="223" y="501"/>
      <point x="127" y="461"/>
      <point x="93" y="429" type="qcurve"/>
      <point x="79" y="443" type="line"/>
      <point x="116" y="478"/>
      <point x="222" y="520"/>
      <point x="280" y="520" type="qcurve" smooth="yes"/>
      <point x="367" y="520"/>
      <point x="460" y="436"/>
      <point x="465" y="350" type="qcurve"/>
      <point x="462" y="359" type="line"/>
      <point x="488" y="432"/>
      <point x="606" y="520"/>
      <point x="685" y="520" type="qcurve" smooth="yes"/>
      <point x="736" y="520"/>
      <point x="823" y="483"/>
      <point x="889" y="414"/>
      <point x="925" y="322"/>
      <point x="925" y="266" type="qcurve"/>
      <point x="925" y="265"/>
      <point x="925" y="263"/>
      <point x="925" y="261" type="qcurve"/>
      <point x="461" y="261" type="line"/>
      <point x="461" y="280" type="line"/>
      <point x="914" y="280" type="line"/>
      <point x="906" y="263" type="line"/>
      <point x="906" y="331"/>
      <point x="848" y="439"/>
      <point x="749" y="501"/>
      <point x="685" y="501" type="qcurve" smooth="yes"/>
      <point x="621" y="501"/>
      <point x="522" y="439"/>
      <point x="465" y="331"/>
      <point x="465" y="263" type="qcurve" smooth="yes"/>
      <point x="465" y="259" type="line" smooth="yes"/>
      <point x="465" y="188"/>
      <point x="527" y="78"/>
      <point x="635" y="16"/>
      <point x="704" y="16" type="qcurve" smooth="yes"/>
      <point x="756" y="16"/>
      <point x="849" y="56"/>
      <point x="880" y="96" type="qcurve"/>
      <point x="894" y="82" type="line"/>
      <point x="860" y="40"/>
      <point x="760" y="-3"/>
      <point x="704" y="-3" type="qcurve" smooth="yes"/>
      <point x="648" y="-3"/>
      <point x="546" y="40"/>
      <point x="471" y="125"/>
      <point x="453" y="189" type="qcurve"/>
      <point x="466" y="187" type="line"/>
      <point x="461" y="120"/>
      <point x="399" y="37"/>
      <point x="304" y="-3"/>
    </contour>
  </outline>
</glyph>
<glyph name="thorn" format="2">
  <advance width="671"/>
  <unicode hex="00FE"/>
  <anchor x="432" y="562" name="t.uni0308"/>
  <anchor x="432" y="0" name="b.uni0324_3"/>
  <outline>
    <contour>
      <point x="366" y="-3" type="qcurve" smooth="yes"/>
      <point x="295" y="-3"/>
      <point x="183" y="64"/>
      <point x="118" y="182"/>
      <point x="118" y="258" type="qcurve" smooth="yes"/>
      <point x="118" y="335"/>
      <point x="183" y="453"/>
      <point x="295" y="520"/>
      <point x="366" y="520" type="qcurve" smooth="yes"/>
      <point x="437" y="520"/>
      <point x="551" y="453"/>
      <point x="617" y="335"/>
      <point x="617" y="258" type="qcurve" smooth="yes"/>
      <point x="617" y="182"/>
      <point x="551" y="64"/>
      <point x="437" y="-3"/>
    </contour>
    <contour>
      <point x="115" y="-194" type="line"/>
      <point x="115" y="742" type="line"/>
      <point x="135" y="742" type="line"/>
      <point x="135" y="327" type="line"/>
      <point x="125" y="257" type="line"/>
      <point x="135" y="187" type="line"/>
      <point x="135" y="-194" type="line"/>
    </contour>
    <contour>
      <point x="366" y="16" type="qcurve" smooth="yes"/>
      <point x="432" y="16"/>
      <point x="537" y="77"/>
      <point x="597" y="187"/>
      <point x="597" y="258" type="qcurve" smooth="yes"/>
      <point x="597" y="330"/>
      <point x="537" y="439"/>
      <point x="432" y="501"/>
      <point x="366" y="501" type="qcurve" smooth="yes"/>
      <point x="300" y="501"/>
      <point x="195" y="439"/>
      <point x="135" y="330"/>
      <point x="135" y="258" type="qcurve" smooth="yes"/>
      <point x="135" y="187"/>
      <point x="195" y="77"/>
      <point x="300" y="16"/>
    </contour>
  </outline>
</glyph>
<glyph name="dotlessi" format="2">
  <advance width="250"/>
  <unicode hex="0131"/>
  <anchor x="180" y="562" name="t.uni0308"/>
  <anchor x="180" y="0" name="b.uni0324_3"/>
  <anchor x="338" y="0" name="m.uni0328_4"/>
  <outline>
    <contour>
      <point x="115" y="0" type="line"/>
      <point x="115" y="517" type="line"/>
      <point x="135" y="517" type="line"/>
      <point x="135" y="0" type="line"/>
    </contour>
  </outline>
</glyph>
<glyph name="OE" format="2">
  <advance width="1112"/>
  <unicode hex="0152"/>
  <anchor x="676" y="700" name="t.uni0308"/>
  <anchor x="676" y="0" name="b.uni0324_3"/>
  <outline>
    <contour>
      <point x="428" y="0" type="line" smooth="yes"/>
      <point x="318" y="0"/>
      <point x="152" y="90"/>
      <point x="59" y="248"/>
      <point x="59" y="349" type="qcurve" smooth="yes"/>
      <point x="59" y="450"/>
      <point x="152" y="609"/>
      <point x="318" y="700"/>
      <point x="428" y="700" type="qcurve" smooth="yes"/>
      <point x="583" y="700" type="line"/>
      <point x="583" y="681" type="line"/>
      <point x="428" y="681" type="line" smooth="yes"/>
      <point x="323" y="681"/>
      <point x="166" y="595"/>
      <point x="79" y="445"/>
      <point x="79" y="349" type="qcurve" smooth="yes"/>
      <point x="79" y="253"/>
      <point x="166" y="104"/>
      <point x="323" y="19"/>
      <point x="428" y="19" type="qcurve" smooth="yes"/>
      <point x="583" y="19" type="line"/>
      <point x="583" y="0" type="line"/>
    </contour>
    <contour>
      <point x="592" y="365" type="line"/>
      <point x="983" y="365" type="line"/>
      <point x="983" y="346" type="line"/>
      <point x="592" y="346" type="line"/>
    </contour>
    <contour>
      <point x="597" y="19" type="line"/>
      <point x="1043" y="19" type="line"/>
      <point x="1043" y="0" type="line"/>
      <point x="577" y="0" type="line"/>
      <point x="577" y="700" type="line"/>
      <point x="1028" y="700" type="line"/>
      <point x="1028" y="681" type="line"/>
      <point x="597" y="681" type="line"/>
    </contour>
  </outline>
</glyph>
<glyph name="oe" format="2">
  <advance width="1070"/>
  <unicode hex="0153"/>
  <anchor x="537" y="562" name="t.uni0308"/>
  <anchor x="537" y="0" name="b.uni0324_3"/>
  <outline>
    <contour>
      <point x="305" y="-3" type="qcurve" smooth="yes"/>
      <point x="233" y="-3"/>
      <point x="120" y="64"/>
      <point x="54" y="183"/>
      <point x="54" y="259" type="qcurve" smooth="yes"/>
      <point x="54" y="336"/>
      <point x="120" y="453"/>
      <point x="233" y="520"/>
      <point x="305" y="520" type="qcurve" smooth="yes"/>
      <point x="377" y="520"/>
      <point x="489" y="453"/>
      <point x="554" y="336"/>
      <point x="554" y="259" type="qcurve" smooth="yes"/>
      <point x="554" y="183"/>
      <point x="489" y="64"/>
      <point x="377" y="-3"/>
    </contour>
    <contour>
      <point x="305" y="16" type="qcurve" smooth="yes"/>
      <point x="371" y="16"/>
      <point x="476" y="78"/>
      <point x="536" y="188"/>
      <point x="536" y="259" type="qcurve" smooth="yes"/>
      <point x="536" y="331"/>
      <point x="476" y="440"/>
      <point x="371" y="501"/>
      <point x="305" y="501" type="qcurve" smooth="yes"/>
      <point x="239" y="501"/>
      <point x="135" y="440"/>
      <point x="74" y="331"/>
      <point x="74" y="259" type="qcurve" smooth="yes"/>
      <point x="74" y="188"/>
      <point x="135" y="78"/>
      <point x="239" y="16"/>
    </contour>
    <contour>
      <point x="795" y="-3" type="qcurve" smooth="yes"/>
      <point x="721" y="-3"/>
      <point x="604" y="64"/>
      <point x="538" y="183"/>
      <point x="538" y="259" type="qcurve" smooth="yes"/>
      <point x="538" y="336"/>
      <point x="600" y="453"/>
      <point x="708" y="520"/>
      <point x="776" y="520" type="qcurve" smooth="yes"/>
      <point x="844" y="520"/>
      <point x="953" y="455"/>
      <point x="1016" y="339"/>
      <point x="1016" y="264" type="qcurve"/>
      <point x="1016" y="263"/>
      <point x="1016" y="261"/>
      <point x="1016" y="259" type="qcurve"/>
      <point x="548" y="259" type="line"/>
      <point x="548" y="278" type="line"/>
      <point x="1005" y="278" type="line"/>
      <point x="997" y="263" type="line"/>
      <point x="997" y="331"/>
      <point x="939" y="439"/>
      <point x="840" y="501"/>
      <point x="776" y="501" type="qcurve" smooth="yes"/>
      <point x="713" y="501"/>
      <point x="613" y="439"/>
      <point x="556" y="331"/>
      <point x="556" y="263" type="qcurve" smooth="yes"/>
      <point x="556" y="259" type="line" smooth="yes"/>
      <point x="556" y="188"/>
      <point x="618" y="78"/>
      <point x="727" y="16"/>
      <point x="795" y="16" type="qcurve" smooth="yes"/>
      <point x="847" y="16"/>
      <point x="940" y="56"/>
      <point x="971" y="96" type="qcurve"/>
      <point x="985" y="82" type="line"/>
      <point x="951" y="40"/>
      <point x="851" y="-3"/>
    </contour>
  </outline>
</glyph>
<glyph name="longs" format="2">
  <advance width="273"/>
  <unicode hex="017F"/>
  <outline>
    <contour>
      <point x="134" y="0" type="line"/>
      <point x="134" y="618" type="line" smooth="yes"/>
      <point x="134" y="675"/>
      <point x="199" y="745"/>
      <point x="259" y="745" type="qcurve" smooth="yes"/>
      <point x="287" y="745"/>
      <point x="342" y="727"/>
      <point x="360" y="708" type="qcurve"/>
      <point x="346" y="694" type="line"/>
      <point x="330" y="710"/>
      <point x="285" y="726"/>
      <point x="260" y="726" type="qcurve" smooth="yes"/>
      <point x="208" y="726"/>
      <point x="154" y="668"/>
      <point x="154" y="613" type="qcurve" smooth="yes"/>
      <point x="154" y="0" type="line"/>
    </contour>
    <contour>
      <point x="34" y="498" type="line"/>
      <point x="34" y="517" type="line"/>
      <point x="149" y="517" type="line"/>
      <point x="149" y="498" type="line"/>
    </contour>
  </outline>
</glyph>
<glyph name="uni018F" format="2">
  <advance width="816"/>
  <unicode hex="018F"/>
  <anchor x="409" y="700" name="t.uni0308"/>
  <anchor x="409" y="0" name="b.uni0324_3"/>
  <outline>
    <contour>
      <point x="408" y="-3" type="qcurve" smooth="yes"/>
      <point x="333" y="-3"/>
      <point x="205" y="50"/>
      <point x="111" y="146"/>
      <point x="59" y="274"/>
      <point x="59" y="350" type="qcurve" smooth="yes"/>
      <point x="59" y="360" type="line"/>
      <point x="742" y="360" type="line"/>
      <point x="742" y="341" type="line"/>
      <point x="71" y="341" type="line"/>
      <point x="79" y="350" type="line"/>
      <point x="79" y="279"/>
      <point x="128" y="158"/>
      <point x="217" y="67"/>
      <point x="337" y="16"/>
      <point x="408" y="16" type="qcurve" smooth="yes"/>
      <point x="475" y="16"/>
      <point x="594" y="67"/>
      <point x="685" y="158"/>
      <point x="737" y="279"/>
      <point x="737" y="349" type="qcurve" smooth="yes"/>
      <point x="737" y="351" type="line" smooth="yes"/>
      <point x="737" y="422"/>
      <point x="686" y="543"/>
      <point x="593" y="633"/>
      <point x="470" y="684"/>
      <point x="398" y="684" type="qcurve" smooth="yes"/>
      <point x="355" y="684"/>
      <point x="274" y="668"/>
      <point x="201" y="632"/>
      <point x="167" y="603" type="qcurve"/>
      <point x="156" y="618" type="line"/>
      <point x="188" y="647"/>
      <point x="264" y="684"/>
      <point x="351" y="703"/>
      <point x="398" y="703" type="qcurve" smooth="yes"/>
      <point x="475" y="703"/>
      <point x="606" y="650"/>
      <point x="703" y="555"/>
      <point x="757" y="426"/>
      <point x="757" y="351" type="qcurve" smooth="yes"/>
      <point x="757" y="278"/>
      <point x="703" y="150"/>
      <point x="607" y="52"/>
      <point x="481" y="-3"/>
    </contour>
  </outline>
</glyph>
<glyph name="florin" format="2">
  <advance width="414"/>
  <unicode hex="0192"/>
  <outline>
    <contour>
      <point x="13" y="-197" type="qcurve" smooth="yes"/>
      <point x="-17" y="-197"/>
      <point x="-70" y="-179"/>
      <point x="-86" y="-160" type="qcurve"/>
      <point x="-71" y="-146" type="line"/>
      <point x="-41" y="-178"/>
      <point x="14" y="-178" type="qcurve" smooth="yes"/>
      <point x="64" y="-178"/>
      <point x="124" y="-120"/>
      <point x="131" y="-65" type="qcurve" smooth="yes"/>
      <point x="215" y="618" type="line" smooth="yes"/>
      <point x="222" y="675"/>
      <point x="296" y="745"/>
      <point x="356" y="745" type="qcurve" smooth="yes"/>
      <point x="384" y="745"/>
      <point x="436" y="727"/>
      <point x="452" y="708" type="qcurve"/>
      <point x="436" y="694" type="line"/>
      <point x="422" y="710"/>
      <point x="379" y="726"/>
      <point x="354" y="726" type="qcurve" smooth="yes"/>
      <point x="302" y="726"/>
      <point x="243" y="668"/>
      <point x="235" y="613" type="qcurve" smooth="yes"/>
      <point x="222" y="514" type="line"/>
      <point x="221" y="503" type="line"/>
      <point x="151" y="-70" type="line" smooth="yes"/>
      <point x="144" y="-127"/>
      <point x="72" y="-197"/>
    </contour>
    <contour>
      <point x="100" y="498" type="line"/>
      <point x="103" y="517" type="line"/>
      <point x="398" y="517" type="line"/>
      <point x="395" y="498" type="line"/>
    </contour>
  </outline>
</glyph>
<glyph name="uni01EB" format="2">
  <advance width="610"/>
  <unicode hex="01EB"/>
  <anchor x="350" y="562" name="t.uni0308"/>
  <anchor x="350" y="281" name="t.uni0307_1"/>
  <anchor x="417" y="561" name="t.uni031B_2"/>
  <anchor x="350" y="0" name="b.uni0324_3"/>
  <outline>
    <contour>
      <point x="334" y="-213" type="qcurve" smooth="yes"/>
      <point x="295" y="-213"/>
      <point x="243" y="-169"/>
      <point x="243" y="-130" type="qcurve" smooth="yes"/>
      <point x="243" y="-109"/>
      <point x="263" y="-61"/>
      <point x="319" y="-9"/>
      <point x="374" y="16" type="qcurve"/>
      <point x="363" y="2" type="line"/>
      <point x="344" y="-1"/>
      <point x="318" y="-3"/>
      <point x="305" y="-3" type="qcurve" smooth="yes"/>
      <point x="233" y="-3"/>
      <point x="120" y="64"/>
      <point x="54" y="183"/>
      <point x="54" y="259" type="qcurve" smooth="yes"/>
      <point x="54" y="336"/>
      <point x="120" y="453"/>
      <point x="233" y="520"/>
      <point x="305" y="520" type="qcurve" smooth="yes"/>
      <point x="377" y="520"/>
      <point x="491" y="453"/>
      <point x="556" y="336"/>
      <point x="556" y="259" type="qcurve" smooth="yes"/>
      <point x="556" y="175"/>
      <point x="479" y="51"/>
      <point x="412" y="19" type="qcurve" smooth="yes"/>
      <point x="346" y="-12"/>
      <point x="282" y="-65"/>
      <point x="263" y="-110"/>
      <point x="263" y="-130" type="qcurve" smooth="yes"/>
      <point x="263" y="-162"/>
      <point x="304" y="-194"/>
      <point x="335" y="-194" type="qcurve" smooth="yes"/>
      <point x="352" y="-194"/>
      <point x="385" y="-182"/>
      <point x="397" y="-171" type="qcurve"/>
      <point x="408" y="-186" type="line"/>
      <point x="392" y="-200"/>
      <point x="355" y="-213"/>
    </contour>
    <contour>
      <point x="305" y="16" type="qcurve" smooth="yes"/>
      <point x="371" y="16"/>
      <point x="476" y="78"/>
      <point x="536" y="188"/>
      <point x="536" y="259" type="qcurve" smooth="yes"/>
      <point x="536" y="331"/>
      <point x="476" y="440"/>
      <point x="371" y="501"/>
      <point x="305" y="501" type="qcurve" smooth="yes"/>
      <point x="239" y="501"/>
      <point x="135" y="440"/>
      <point x="74" y="331"/>
      <point x="74" y="259" type="qcurve" smooth="yes"/>
      <point x="74" y="188"/>
      <point x="135" y="78"/>
      <point x="239" y="16"/>
    </contour>
  </outline>
</glyph>
<glyph name="uni02BE" format="2">
  <advance width="600"/>
  <unicode hex="02BE"/>
  <outline>
    <contour>
      <point x="299" y="597" type="qcurve"/>
      <point x="299" y="616" type="line"/>
      <point x="331" y="616"/>
      <point x="371" y="657"/>
      <point x="371" y="687" type="qcurve" smooth="yes"/>
      <point x="371" y="718"/>
      <point x="331" y="761"/>
      <point x="299" y="761" type="qcurve"/>
      <point x="299" y="780" type="line"/>
      <point x="326" y="780"/>
      <point x="367" y="754"/>
      <point x="391" y="712"/>
      <point x="391" y="687" type="qcurve" smooth="yes"/>
      <point x="391" y="663"/>
      <point x="368" y="622"/>
      <point x="326" y="597"/>
    </contour>
  </outline>
</glyph>
<glyph name="uni02C9" format="2">
  <advance width="600"/>
  <unicode hex="02C9"/>
  <outline>
    <contour>
      <point x="164" y="652" type="line"/>
      <point x="164" y="672" type="line"/>
      <point x="436" y="672" type="line"/>
      <point x="436" y="652" type="line"/>
    </contour>
  </outline>
</glyph>
<glyph name="uni02CA" format="2">
  <advance width="600"/>
  <unicode hex="02CA"/>
  <outline>
    <contour>
      <point x="255" y="607" type="line"/>
      <point x="395" y="717" type="line"/>
      <point x="435" y="717" type="line"/>
      <point x="285" y="607" type="line"/>
    </contour>
  </outline>
</glyph>
<glyph name="gravecomb" format="2">
  <unicode hex="0300"/>
  <anchor x="300" y="562" name="_t.uni0308"/>
  <anchor x="300" y="562" name="_t.uni0308_2"/>
  <anchor x="300" y="562" name="_m.uni0308"/>
  <anchor x="300" y="809" name="m.uni0308"/>
  <outline>
    <contour>
      <point x="315" y="607" type="line"/>
      <point x="165" y="717" type="line"/>
      <point x="205" y="717" type="line"/>
      <point x="345" y="607" type="line"/>
    </contour>
  </outline>
</glyph>
<glyph name="tildecomb" format="2">
  <unicode hex="0303"/>
  <anchor x="300" y="562" name="_t.uni0308"/>
  <anchor x="300" y="562" name="_t.uni0308_2"/>
  <anchor x="300" y="562" name="_m.uni0308"/>
  <anchor x="300" y="799" name="m.uni0308"/>
  <outline>
    <contour>
      <point x="363" y="619" type="qcurve" smooth="yes"/>
      <point x="342" y="619"/>
      <point x="309" y="640"/>
      <point x="282" y="667"/>
      <point x="254" y="688"/>
      <point x="237" y="688" type="qcurve" smooth="yes"/>
      <point x="213" y="688"/>
      <point x="185" y="652"/>
      <point x="183" y="621" type="qcurve"/>
      <point x="164" y="621" type="line"/>
      <point x="166" y="660"/>
      <point x="205" y="707"/>
      <point x="237" y="707" type="qcurve" smooth="yes"/>
      <point x="258" y="707"/>
      <point x="291" y="686"/>
      <point x="318" y="659"/>
      <point x="346" y="638"/>
      <point x="363" y="638" type="qcurve" smooth="yes"/>
      <point x="387" y="638"/>
      <point x="416" y="674"/>
      <point x="417" y="703" type="qcurve"/>
      <point x="436" y="703" type="line"/>
      <point x="435" y="666"/>
      <point x="395" y="619"/>
    </contour>
  </outline>
</glyph>
<glyph name="uni0308" format="2">
  <unicode hex="0308"/>
  <anchor x="300" y="562" name="_t.uni0308"/>
  <anchor x="300" y="562" name="_t.uni0308_2"/>
  <anchor x="300" y="562" name="_m.uni0308"/>
  <anchor x="300" y="793" name="m.uni0308"/>
  <outline>
    <contour>
      <point x="382" y="641" type="qcurve" smooth="yes"/>
      <point x="372" y="641"/>
      <point x="356" y="657"/>
      <point x="356" y="667" type="qcurve" smooth="yes"/>
      <point x="356" y="678"/>
      <point x="372" y="693"/>
      <point x="382" y="693" type="qcurve" smooth="yes"/>
      <point x="393" y="693"/>
      <point x="408" y="678"/>
      <point x="408" y="667" type="qcurve" smooth="yes"/>
      <point x="408" y="657"/>
      <point x="393" y="641"/>
    </contour>
    <contour>
      <point x="218" y="641" type="qcurve" smooth="yes"/>
      <point x="208" y="641"/>
      <point x="192" y="657"/>
      <point x="192" y="667" type="qcurve" smooth="yes"/>
      <point x="192" y="678"/>
      <point x="208" y="693"/>
      <point x="218" y="693" type="qcurve" smooth="yes"/>
      <point x="229" y="693"/>
      <point x="244" y="678"/>
      <point x="244" y="667" type="qcurve" smooth="yes"/>
      <point x="244" y="657"/>
      <point x="229" y="641"/>
    </contour>
  </outline>
</glyph>
<glyph name="uni030A" format="2">
  <unicode hex="030A"/>
  <anchor x="300" y="562" name="_t.uni0308"/>
  <anchor x="300" y="562" name="_t.uni0308_2"/>
  <anchor x="300" y="562" name="_m.uni0308"/>
  <anchor x="300" y="883" name="m.uni0308"/>
  <outline>
    <contour>
      <point x="299" y="597" type="qcurve" smooth="yes"/>
      <point x="272" y="597"/>
      <point x="231" y="622"/>
      <point x="207" y="663"/>
      <point x="207" y="687" type="qcurve" smooth="yes"/>
      <point x="207" y="712"/>
      <point x="231" y="754"/>
      <point x="273" y="780"/>
      <point x="299" y="780" type="qcurve" smooth="yes"/>
      <point x="326" y="780"/>
      <point x="368" y="754"/>
      <point x="392" y="712"/>
      <point x="392" y="687" type="qcurve" smooth="yes"/>
      <point x="392" y="663"/>
      <point x="368" y="622"/>
      <point x="326" y="597"/>
    </contour>
    <contour>
      <point x="299" y="616" type="qcurve" smooth="yes"/>
      <point x="331" y="616"/>
      <point x="372" y="658"/>
      <point x="372" y="687" type="qcurve" smooth="yes"/>
      <point x="372" y="717"/>
      <point x="331" y="761"/>
      <point x="299" y="761" type="qcurve" smooth="yes"/>
      <point x="268" y="761"/>
      <point x="227" y="718"/>
      <point x="227" y="687" type="qcurve" smooth="yes"/>
      <point x="227" y="657"/>
      <point x="267" y="616"/>
    </contour>
  </outline>
</glyph>
<glyph name="uni0312" format="2">
  <unicode hex="0312"/>
  <anchor x="300" y="562" name="_t.uni0308"/>
  <anchor x="300" y="562" name="_t.uni0308_2"/>
  <anchor x="300" y="562" name="_m.uni0308"/>
  <anchor x="300" y="853" name="m.uni0308"/>
  <outline>
    <contour>
      <point x="300" y="604" type="qcurve" smooth="yes"/>
      <point x="288" y="604"/>
      <point x="274" y="621"/>
      <point x="274" y="630" type="qcurve" smooth="yes"/>
      <point x="274" y="638"/>
      <point x="278" y="651"/>
      <point x="279" y="659" type="qcurve"/>
      <point x="307" y="759" type="line"/>
      <point x="325" y="759" type="line"/>
      <point x="301" y="645" type="line"/>
      <point x="300" y="656" type="line"/>
      <point x="311" y="656"/>
      <point x="326" y="641"/>
      <point x="326" y="630" type="qcurve" smooth="yes"/>
      <point x="326" y="620"/>
      <point x="311" y="604"/>
    </contour>
  </outline>
</glyph>
<glyph name="uni0324" format="2">
  <unicode hex="0324"/>
  <anchor x="300" y="0" name="_b.uni0324_3"/>
  <anchor x="300" y="0" name="_m.uni0324_1"/>
  <anchor x="300" y="0" name="_t.uni0324"/>
  <anchor x="300" y="-206" name="t.uni0324"/>
  <outline>
    <contour>
      <point x="375" y="-176" type="qcurve" smooth="yes"/>
      <point x="365" y="-176"/>
      <point x="349" y="-160"/>
      <point x="349" y="-150" type="qcurve" smooth="yes"/>
      <point x="349" y="-139"/>
      <point x="365" y="-124"/>
      <point x="375" y="-124" type="qcurve" smooth="yes"/>
      <point x="386" y="-124"/>
      <point x="401" y="-139"/>
      <point x="401" y="-150" type="qcurve" smooth="yes"/>
      <point x="401" y="-160"/>
      <point x="386" y="-176"/>
    </contour>
    <contour>
      <point x="225" y="-176" type="qcurve" smooth="yes"/>
      <point x="215" y="-176"/>
      <point x="199" y="-160"/>
      <point x="199" y="-150" type="qcurve" smooth="yes"/>
      <point x="199" y="-139"/>
      <point x="215" y="-124"/>
      <point x="225" y="-124" type="qcurve" smooth="yes"/>
      <point x="236" y="-124"/>
      <point x="251" y="-139"/>
      <point x="251" y="-150" type="qcurve" smooth="yes"/>
      <point x="251" y="-160"/>
      <point x="236" y="-176"/>
    </contour>
  </outline>
</glyph>
<glyph name="uni0326" format="2">
  <unicode hex="0326"/>
  <anchor x="300" y="0" name="_b.uni0324_3"/>
  <anchor x="300" y="0" name="_m.uni0324_1"/>
  <anchor x="300" y="0" name="_t.uni0324"/>
  <anchor x="300" y="-229" name="t.uni0324"/>
  <outline>
    <contour>
      <point x="279" y="-259" type="line"/>
      <point x="299" y="-165" type="line"/>
      <point x="300" y="-176" type="line"/>
      <point x="290" y="-176"/>
      <point x="274" y="-160"/>
      <point x="274" y="-150" type="qcurve" smooth="yes"/>
      <point x="274" y="-139"/>
      <point x="289" y="-124"/>
      <point x="300" y="-124" type="qcurve" smooth="yes"/>
      <point x="312" y="-124"/>
      <point x="326" y="-141"/>
      <point x="326" y="-150" type="qcurve" smooth="yes"/>
      <point x="326" y="-158"/>
      <point x="322" y="-174"/>
      <point x="320" y="-182" type="qcurve"/>
      <point x="297" y="-259" type="line"/>
    </contour>
  </outline>
</glyph>
<glyph name="uni0328" format="2">
  <unicode hex="0328"/>
  <anchor x="300" y="0" name="_m.uni0328_4"/>
  <outline>
    <contour>
      <point x="245" y="-213" type="qcurve" smooth="yes"/>
      <point x="206" y="-213"/>
      <point x="154" y="-169"/>
      <point x="154" y="-130" type="qcurve" smooth="yes"/>
      <point x="154" y="-109"/>
      <point x="175" y="-61"/>
      <point x="234" y="-9"/>
      <point x="291" y="16" type="qcurve"/>
      <point x="301" y="0" type="line"/>
      <point x="246" y="-23"/>
      <point x="192" y="-70"/>
      <point x="174" y="-112"/>
      <point x="174" y="-130" type="qcurve" smooth="yes"/>
      <point x="174" y="-162"/>
      <point x="215" y="-194"/>
      <point x="246" y="-194" type="qcurve" smooth="yes"/>
      <point x="263" y="-194"/>
      <point x="296" y="-182"/>
      <point x="308" y="-171" type="qcurve"/>
      <point x="319" y="-186" type="line"/>
      <point x="303" y="-200"/>
      <point x="266" y="-213"/>
    </contour>
  </outline>
</glyph>
<glyph name="uni032E" format="2">
  <unicode hex="032E"/>
  <anchor x="300" y="0" name="_b.uni0324_3"/>
  <anchor x="300" y="0" name="_m.uni0324_1"/>
  <anchor x="300" y="0" name="_t.uni0324"/>
  <anchor x="300" y="-232" name="t.uni0324"/>
  <outline>
    <contour>
      <point x="300" y="-198" type="qcurve" smooth="yes"/>
      <point x="246" y="-198"/>
      <point x="170" y="-140"/>
      <point x="168" y="-90" type="qcurve"/>
      <point x="187" y="-90" type="line"/>
      <point x="189" y="-131"/>
      <point x="254" y="-179"/>
      <point x="300" y="-179" type="qcurve" smooth="yes"/>
      <point x="347" y="-179"/>
      <point x="412" y="-131"/>
      <point x="413" y="-90" type="qcurve"/>
      <point x="432" y="-90" type="line"/>
      <point x="431" y="-140"/>
      <point x="354" y="-198"/>
    </contour>
  </outline>
</glyph>
<glyph name="iotadieresistonos" format="2">
  <advance width="83"/>
  <unicode hex="0390"/>
  <anchor x="108" y="562" name="t.uni0308"/>
  <anchor x="108" y="0" name="b.uni0324_3"/>
  <anchor x="266" y="0" name="m.uni0328_4"/>
  <outline>
    <contour>
      <point x="31" y="0" type="line"/>
      <point x="31" y="517" type="line"/>
      <point x="51" y="517" type="line"/>
      <point x="51" y="0" type="line"/>
    </contour>
    <contour>
      <point x="38" y="655" type="line"/>
      <point x="75" y="765" type="line"/>
      <point x="105" y="765" type="line"/>
      <point x="58" y="655" type="line"/>
    </contour>
    <contour>
      <point x="122" y="565" type="qcurve" smooth="yes"/>
      <point x="112" y="565"/>
      <point x="96" y="581"/>
      <point x="96" y="591" type="qcurve" smooth="yes"/>
      <point x="96" y="602"/>
      <point x="112" y="617"/>
      <point x="122" y="617" type="qcurve" smooth="yes"/>
      <point x="133" y="617"/>
      <point x="148" y="602"/>
      <point x="148" y="591" type="qcurve" smooth="yes"/>
      <point x="148" y="581"/>
      <point x="133" y="565"/>
    </contour>
    <contour>
      <point x="-42" y="565" type="qcurve" smooth="yes"/>
      <point x="-52" y="565"/>
      <point x="-68" y="581"/>
      <point x="-68" y="591" type="qcurve" smooth="yes"/>
      <point x="-68" y="602"/>
      <point x="-52" y="617"/>
      <point x="-42" y="617" type="qcurve" smooth="yes"/>
      <point x="-31" y="617"/>
      <point x="-16" y="602"/>
      <point x="-16" y="591" type="qcurve" smooth="yes"/>
      <point x="-16" y="581"/>
      <point x="-31" y="565"/>
    </contour>
  </outline>
</glyph>
<glyph name="etatonos" format="2">
  <advance width="484"/>
  <unicode hex="03AE"/>
  <anchor x="269" y="562" name="t.uni0308"/>
  <anchor x="269" y="0" name="b.uni0324_3"/>
  <outline>
    <contour>
      <point x="257" y="520" type="qcurve" smooth="yes"/>
      <point x="321" y="520"/>
      <point x="413" y="471"/>
      <point x="464" y="375"/>
      <point x="464" y="305" type="qcurve" smooth="yes"/>
      <point x="464" y="-194" type="line"/>
      <point x="444" y="-194" type="line"/>
      <point x="444" y="305" type="line" smooth="yes"/>
      <point x="444" y="401"/>
      <point x="346" y="501"/>
      <point x="258" y="501" type="qcurve" smooth="yes"/>
      <point x="190" y="501"/>
      <point x="92" y="446"/>
      <point x="40" y="347"/>
      <point x="40" y="281" type="qcurve" smooth="yes"/>
      <point x="40" y="0" type="line"/>
      <point x="20" y="0" type="line"/>
      <point x="20" y="517" type="line"/>
      <point x="40" y="517" type="line"/>
      <point x="40" y="370" type="line"/>
      <point x="38" y="373" type="line"/>
      <point x="61" y="441"/>
      <point x="173" y="520"/>
    </contour>
    <contour>
      <point x="255" y="607" type="line"/>
      <point x="292" y="717" type="line"/>
      <point x="322" y="717" type="line"/>
      <point x="275" y="607" type="line"/>
    </contour>
  </outline>
</glyph>
<glyph name="iotatonos" format="2">
  <advance width="83"/>
  <unicode hex="03AF"/>
  <anchor x="108" y="562" name="t.uni0308"/>
  <anchor x="108" y="0" name="b.uni0324_3"/>
  <anchor x="266" y="0" name="m.uni0328_4"/>
  <outline>
    <contour>
      <point x="31" y="0" type="line"/>
      <point x="31" y="517" type="line"/>
      <point x="51" y="517" type="line"/>
      <point x="51" y="0" type="line"/>
    </contour>
    <contour>
      <point x="31" y="607" type="line"/>
      <point x="68" y="717" type="line"/>
      <point x="98" y="717" type="line"/>
      <point x="51" y="607" type="line"/>
    </contour>
  </outline>
</glyph>
<glyph name="upsilondieresistonos" format="2">
  <advance width="480"/>
  <unicode hex="03B0"/>
  <anchor x="259" y="593" name="t.uni0308"/>
  <anchor x="454" y="593" name="t.uni031B_2"/>
  <anchor x="259" y="0" name="b.uni0324_3"/>
  <anchor x="476" y="0" name="m.uni0328_4"/>
  <outline>
    <contour>
      <point x="240" y="-3" type="qcurve" smooth="yes"/>
      <point x="172" y="-3"/>
      <point x="73" y="50"/>
      <point x="20" y="156"/>
      <point x="20" y="235" type="qcurve" smooth="yes"/>
      <point x="20" y="517" type="line"/>
      <point x="40" y="517" type="line"/>
      <point x="40" y="236" type="line" smooth="yes"/>
      <point x="40" y="124"/>
      <point x="145" y="16"/>
      <point x="240" y="16" type="qcurve" smooth="yes"/>
      <point x="335" y="16"/>
      <point x="440" y="124"/>
      <point x="440" y="236" type="qcurve" smooth="yes"/>
      <point x="440" y="517" type="line"/>
      <point x="460" y="517" type="line"/>
      <point x="460" y="235" type="line" smooth="yes"/>
      <point x="460" y="156"/>
      <point x="407" y="50"/>
      <point x="308" y="-3"/>
    </contour>
    <contour>
      <point x="247" y="710" type="line"/>
      <point x="284" y="820" type="line"/>
      <point x="314" y="820" type="line"/>
      <point x="267" y="710" type="line"/>
    </contour>
    <contour>
      <point x="334" y="619" type="qcurve" smooth="yes"/>
      <point x="324" y="619"/>
      <point x="308" y="635"/>
      <point x="308" y="645" type="qcurve" smooth="yes"/>
      <point x="308" y="656"/>
      <point x="324" y="671"/>
      <point x="334" y="671" type="qcurve" smooth="yes"/>
      <point x="345" y="671"/>
      <point x="360" y="656"/>
      <point x="360" y="645" type="qcurve" smooth="yes"/>
      <point x="360" y="635"/>
      <point x="345" y="619"/>
    </contour>
    <contour>
      <point x="170" y="619" type="qcurve" smooth="yes"/>
      <point x="160" y="619"/>
      <point x="144" y="635"/>
      <point x="144" y="645" type="qcurve" smooth="yes"/>
      <point x="144" y="656"/>
      <point x="160" y="671"/>
      <point x="170" y="671" type="qcurve" smooth="yes"/>
      <point x="181" y="671"/>
      <point x="196" y="656"/>
      <point x="196" y="645" type="qcurve" smooth="yes"/>
      <point x="196" y="635"/>
      <point x="181" y="619"/>
    </contour>
  </outline>
</glyph>
<glyph name="delta" format="2">
  <advance width="646"/>
  <unicode hex="03B4"/>
  <anchor x="386" y="562" name="t.uni0308"/>
  <anchor x="386" y="281" name="t.uni0307_1"/>
  <anchor x="454" y="561" name="t.uni031B_2"/>
  <anchor x="386" y="0" name="b.uni0324_3"/>
  <anchor x="526" y="0" name="m.uni0328_4"/>
  <outline>
    <contour>
      <point x="341" y="-3" type="qcurve" smooth="yes"/>
      <point x="269" y="-3"/>
      <point x="156" y="64"/>
      <point x="90" y="183"/>
      <point x="90" y="259" type="qcurve" smooth="yes"/>
      <point x="90" y="414"/>
      <point x="213" y="487" type="qcurve" smooth="yes"/>
      <point x="248" y="507"/>
      <point x="289" y="515" type="qcurve"/>
      <point x="259" y="522"/>
      <point x="233" y="535" type="qcurve"/>
      <point x="163" y="566"/>
      <point x="163" y="643" type="qcurve" smooth="yes"/>
      <point x="163" y="678"/>
      <point x="201" y="738"/>
      <point x="282" y="776"/>
      <point x="346" y="776" type="qcurve" smooth="yes"/>
      <point x="394" y="776"/>
      <point x="488" y="747"/>
      <point x="517" y="723" type="qcurve"/>
      <point x="505" y="707" type="line"/>
      <point x="474" y="732"/>
      <point x="390" y="757"/>
      <point x="346" y="757" type="qcurve" smooth="yes"/>
      <point x="261" y="757"/>
      <point x="184" y="691"/>
      <point x="184" y="643" type="qcurve" smooth="yes"/>
      <point x="184" y="605"/>
      <point x="222" y="560"/>
      <point x="320" y="524"/>
      <point x="380" y="517" type="qcurve"/>
      <point x="429" y="511"/>
      <point x="470" y="487" type="qcurve" smooth="yes"/>
      <point x="527" y="453"/>
      <point x="592" y="336"/>
      <point x="592" y="259" type="qcurve" smooth="yes"/>
      <point x="592" y="183"/>
      <point x="527" y="64"/>
      <point x="413" y="-3"/>
    </contour>
    <contour>
      <point x="341" y="16" type="qcurve" smooth="yes"/>
      <point x="407" y="16"/>
      <point x="512" y="78"/>
      <point x="572" y="188"/>
      <point x="572" y="259" type="qcurve" smooth="yes"/>
      <point x="572" y="331"/>
      <point x="512" y="440"/>
      <point x="407" y="501"/>
      <point x="341" y="501" type="qcurve" smooth="yes"/>
      <point x="275" y="501"/>
      <point x="171" y="440"/>
      <point x="110" y="331"/>
      <point x="110" y="259" type="qcurve" smooth="yes"/>
      <point x="110" y="188"/>
      <point x="171" y="78"/>
      <point x="275" y="16"/>
    </contour>
  </outline>
</glyph>
<glyph name="epsilon" format="2">
  <advance width="532"/>
  <unicode hex="03B5"/>
  <anchor x="343" y="593" name="t.uni0308"/>
  <anchor x="343" y="0" name="b.uni0324_3"/>
  <anchor x="598" y="0" name="m.uni0328_4"/>
  <outline>
    <contour>
      <point x="481" y="72" type="line"/>
      <point x="449" y="37"/>
      <point x="336" y="-3"/>
      <point x="265" y="-3" type="qcurve" smooth="yes"/>
      <point x="160" y="-3"/>
      <point x="54" y="83"/>
      <point x="54" y="147" type="qcurve" smooth="yes"/>
      <point x="54" y="177"/>
      <point x="103" y="241"/>
      <point x="188" y="273"/>
      <point x="241" y="273" type="qcurve"/>
      <point x="244" y="261" type="line"/>
      <point x="192" y="261"/>
      <point x="117" y="295"/>
      <point x="78" y="350"/>
      <point x="78" y="392" type="qcurve" smooth="yes"/>
      <point x="78" y="416"/>
      <point x="123" y="482"/>
      <point x="212" y="522"/>
      <point x="277" y="522" type="qcurve" smooth="yes"/>
      <point x="327" y="522"/>
      <point x="421" y="497"/>
      <point x="454" y="474" type="qcurve"/>
      <point x="445" y="458" type="line"/>
      <point x="409" y="480"/>
      <point x="325" y="503"/>
      <point x="278" y="503" type="qcurve" smooth="yes"/>
      <point x="188" y="503"/>
      <point x="98" y="429"/>
      <point x="98" y="391" type="qcurve" smooth="yes"/>
      <point x="98" y="333"/>
      <point x="179" y="276"/>
      <point x="250" y="276" type="qcurve" smooth="yes"/>
      <point x="383" y="276" type="line"/>
      <point x="383" y="258" type="line"/>
      <point x="250" y="258" type="line" smooth="yes"/>
      <point x="173" y="258"/>
      <point x="74" y="197"/>
      <point x="74" y="149" type="qcurve" smooth="yes"/>
      <point x="74" y="90"/>
      <point x="169" y="16"/>
      <point x="266" y="16" type="qcurve" smooth="yes"/>
      <point x="310" y="16"/>
      <point x="386" y="33"/>
      <point x="448" y="65"/>
      <point x="468" y="87" type="qcurve"/>
    </contour>
  </outline>
</glyph>
<glyph name="zeta" format="2">
  <advance width="489"/>
  <unicode hex="03B6"/>
  <anchor x="239" y="593" name="t.uni0308"/>
  <anchor x="239" y="0" name="b.uni0324_3"/>
  <anchor x="494" y="0" name="m.uni0328_4"/>
  <outline>
    <contour>
      <point x="438" y="729" type="line"/>
      <point x="-142" y="18"/>
      <point x="206" y="18" type="qcurve" smooth="yes"/>
      <point x="438" y="18"/>
      <point x="296" y="-178" type="qcurve"/>
      <point x="274" y="-178" type="line"/>
      <point x="409" y="5"/>
      <point x="208" y="0" type="qcurve" smooth="yes"/>
      <point x="52" y="-4"/>
      <point x="58" y="285"/>
      <point x="413" y="729" type="qcurve"/>
      <point x="55" y="729" type="line"/>
      <point x="55" y="747" type="line"/>
      <point x="438" y="747" type="line"/>
      <point x="438" y="729" type="line"/>
    </contour>
  </outline>
  <guideline angle="90" x="55" y="0"/>
</glyph>
<glyph name="theta" format="2">
  <advance width="746"/>
  <unicode hex="03B8"/>
  <anchor x="382" y="700" name="t.uni0308"/>
  <anchor x="382" y="350" name="t.uni0307_1"/>
  <anchor x="511" y="700" name="t.uni031B_2"/>
  <anchor x="382" y="0" name="b.uni0324_3"/>
  <anchor x="536" y="0" name="m.uni0328_4"/>
  <outline>
    <contour>
      <point x="373" y="-3" type="qcurve" smooth="yes"/>
      <point x="296" y="-3"/>
      <point x="190" y="50"/>
      <point x="98" y="146"/>
      <point x="54" y="264"/>
      <point x="54" y="340" type="qcurve" smooth="yes"/>
      <point x="54" y="416"/>
      <point x="98" y="534"/>
      <point x="190" y="630"/>
      <point x="296" y="683"/>
      <point x="373" y="683" type="qcurve" smooth="yes"/>
      <point x="450" y="683"/>
      <point x="556" y="630"/>
      <point x="648" y="534"/>
      <point x="692" y="416"/>
      <point x="692" y="340" type="qcurve" smooth="yes"/>
      <point x="692" y="264"/>
      <point x="648" y="146"/>
      <point x="556" y="50"/>
      <point x="450" y="-3"/>
    </contour>
    <contour>
      <point x="373" y="16" type="qcurve" smooth="yes"/>
      <point x="445" y="16"/>
      <point x="544" y="66"/>
      <point x="631" y="157"/>
      <point x="672" y="268"/>
      <point x="672" y="340" type="qcurve" smooth="yes"/>
      <point x="672" y="412"/>
      <point x="631" y="523"/>
      <point x="544" y="614"/>
      <point x="445" y="664"/>
      <point x="373" y="664" type="qcurve" smooth="yes"/>
      <point x="301" y="664"/>
      <point x="202" y="614"/>
      <point x="115" y="523"/>
      <point x="74" y="412"/>
      <point x="74" y="340" type="qcurve" smooth="yes"/>
      <point x="74" y="268"/>
      <point x="115" y="157"/>
      <point x="202" y="66"/>
      <point x="301" y="16"/>
    </contour>
    <contour>
      <point x="65" y="353" type="line"/>
      <point x="681" y="353" type="line"/>
      <point x="681" y="329" type="line"/>
      <point x="65" y="329" type="line"/>
    </contour>
  </outline>
</glyph>
<glyph name="nu" format="2">
  <advance width="508"/>
  <unicode hex="03BD"/>
  <anchor x="352" y="562" name="t.uni0308"/>
  <anchor x="352" y="0" name="b.uni0324_3"/>
  <outline>
    <contour>
      <point x="244" y="0" type="line"/>
      <point x="6" y="517" type="line"/>
      <point x="29" y="517" type="line"/>
      <point x="258" y="14" type="line"/>
      <point x="250" y="14" type="line"/>
      <point x="479" y="517" type="line"/>
      <point x="502" y="517" type="line"/>
      <point x="264" y="0" type="line"/>
    </contour>
  </outline>
</glyph>
<glyph name="pi" format="2">
  <advance width="664"/>
  <unicode hex="03C0"/>
  <outline>
    <contour>
      <point x="110" y="517" type="line"/>
      <point x="110" y="517" type="line"/>
      <point x="554" y="517" type="line"/>
      <point x="554" y="497" type="line"/>
      <point x="110" y="497" type="line"/>
      <point x="110" y="497" type="line"/>
    </contour>
    <contour>
      <point x="110" y="0" type="line"/>
      <point x="110" y="512" type="line"/>
      <point x="130" y="512" type="line"/>
      <point x="130" y="0" type="line"/>
    </contour>
    <contour>
      <point x="534" y="0" type="line"/>
      <point x="534" y="512" type="line"/>
      <point x="554" y="512" type="line"/>
      <point x="554" y="0" type="line"/>
    </contour>
  </outline>
</glyph>
<glyph name="rho" format="2">
  <advance width="638"/>
  <unicode hex="03C1"/>
  <outline>
    <contour>
      <point x="70" y="-194" type="line"/>
      <point x="70" y="248" type="line" smooth="yes"/>
      <point x="70" y="370"/>
      <point x="209" y="509"/>
      <point x="325" y="509" type="qcurve" smooth="yes"/>
      <point x="402" y="509"/>
      <point x="518" y="447"/>
      <point x="584" y="333"/>
      <point x="584" y="254" type="qcurve" smooth="yes"/>
      <point x="584" y="137"/>
      <point x="447" y="3"/>
      <point x="336" y="3" type="qcurve" smooth="yes"/>
      <point x="253" y="3"/>
      <point x="109" y="85"/>
      <point x="71" y="151" type="qcurve"/>
      <point x="89" y="159" type="line"/>
      <point x="124" y="96"/>
      <point x="257" y="23"/>
      <point x="336" y="23" type="qcurve" smooth="yes"/>
      <point x="438" y="23"/>
      <point x="564" y="145"/>
      <point x="564" y="254" type="qcurve" smooth="yes"/>
      <point x="564" y="364"/>
      <point x="431" y="489"/>
      <point x="325" y="489" type="qcurve" smooth="yes"/>
      <point x="217" y="489"/>
      <point x="90" y="361"/>
      <point x="90" y="248" type="qcurve" smooth="yes"/>
      <point x="90" y="-194" type="line"/>
    </contour>
  </outline>
</glyph>
<glyph name="sigmafinal" format="2">
  <advance width="463"/>
  <unicode hex="03C2"/>
  <anchor x="295" y="562" name="t.uni0308"/>
  <anchor x="295" y="0" name="b.uni0324_3"/>
  <outline>
    <contour>
      <point x="234" y="-3" type="qcurve" smooth="yes"/>
      <point x="171" y="-3"/>
      <point x="61" y="37"/>
      <point x="32" y="68" type="qcurve"/>
      <point x="44" y="84" type="line"/>
      <point x="72" y="57"/>
      <point x="172" y="16"/>
      <point x="234" y="16" type="qcurve" smooth="yes"/>
      <point x="326" y="16"/>
      <point x="406" y="80"/>
      <point x="406" y="131" type="qcurve" smooth="yes"/>
      <point x="406" y="168"/>
      <point x="368" y="211"/>
      <point x="305" y="234"/>
      <point x="229" y="248"/>
      <point x="153" y="264"/>
      <point x="90" y="293"/>
      <point x="52" y="344"/>
      <point x="52" y="387" type="qcurve" smooth="yes"/>
      <point x="52" y="422"/>
      <point x="90" y="482"/>
      <point x="171" y="520"/>
      <point x="235" y="520" type="qcurve" smooth="yes"/>
      <point x="283" y="520"/>
      <point x="377" y="491"/>
      <point x="406" y="467" type="qcurve"/>
      <point x="394" y="451" type="line"/>
      <point x="363" y="476"/>
      <point x="279" y="501"/>
      <point x="235" y="501" type="qcurve" smooth="yes"/>
      <point x="150" y="501"/>
      <point x="73" y="435"/>
      <point x="73" y="387" type="qcurve" smooth="yes"/>
      <point x="73" y="349"/>
      <point x="111" y="304"/>
      <point x="174" y="280"/>
      <point x="250" y="266"/>
      <point x="325" y="250"/>
      <point x="388" y="222"/>
      <point x="426" y="173"/>
      <point x="426" y="131" type="qcurve" smooth="yes"/>
      <point x="426" y="92"/>
      <point x="384" y="31"/>
      <point x="299" y="-3"/>
    </contour>
  </outline>
</glyph>
<glyph name="tau" format="2">
  <advance width="420"/>
  <unicode hex="03C4"/>
  <anchor x="228" y="574" name="t.uni0308"/>
  <anchor x="239" y="239" name="t.uni0307_1"/>
  <anchor x="409" y="627" name="t.uni031B_2"/>
  <anchor x="304" y="-0" name="b.uni0324_3"/>
  <outline>
    <contour>
      <point x="264" y="-3" type="qcurve" smooth="yes"/>
      <point x="203" y="-3"/>
      <point x="139" y="67"/>
      <point x="139" y="124" type="qcurve" smooth="yes"/>
      <point x="139" y="513" type="line"/>
      <point x="159" y="513" type="line"/>
      <point x="159" y="129" type="line" smooth="yes"/>
      <point x="159" y="74"/>
      <point x="213" y="16"/>
      <point x="265" y="16" type="qcurve" smooth="yes"/>
      <point x="317" y="16"/>
      <point x="351" y="48" type="qcurve"/>
      <point x="365" y="34" type="line"/>
      <point x="347" y="15"/>
      <point x="292" y="-3"/>
    </contour>
    <contour>
      <point x="39" y="498" type="line"/>
      <point x="39" y="517" type="line"/>
      <point x="334" y="517" type="line"/>
      <point x="334" y="498" type="line"/>
    </contour>
  </outline>
</glyph>
<glyph name="phi" format="2">
  <advance width="654"/>
  <unicode hex="03C6"/>
  <outline>
    <contour>
      <point x="317" y="-203" type="line"/>
      <point x="317" y="616" type="line"/>
      <point x="337" y="616" type="line"/>
      <point x="337" y="-203" type="line"/>
    </contour>
    <contour>
      <point x="327" y="-3" type="qcurve" smooth="yes"/>
      <point x="250" y="-3"/>
      <point x="122" y="71"/>
      <point x="52" y="194"/>
      <point x="52" y="262" type="qcurve" smooth="yes"/>
      <point x="52" y="327"/>
      <point x="122" y="454"/>
      <point x="250" y="528"/>
      <point x="327" y="528" type="qcurve" smooth="yes"/>
      <point x="398" y="528"/>
      <point x="529" y="454"/>
      <point x="602" y="327"/>
      <point x="602" y="262" type="qcurve" smooth="yes"/>
      <point x="602" y="194"/>
      <point x="529" y="71"/>
      <point x="398" y="-3"/>
    </contour>
    <contour>
      <point x="327" y="17" type="qcurve" smooth="yes"/>
      <point x="392" y="17"/>
      <point x="514" y="86"/>
      <point x="579" y="200"/>
      <point x="579" y="262" type="qcurve" smooth="yes"/>
      <point x="579" y="321"/>
      <point x="514" y="440"/>
      <point x="392" y="509"/>
      <point x="327" y="509" type="qcurve" smooth="yes"/>
      <point x="256" y="509"/>
      <point x="137" y="440"/>
      <point x="72" y="321"/>
      <point x="72" y="262" type="qcurve" smooth="yes"/>
      <point x="72" y="200"/>
      <point x="137" y="86"/>
      <point x="256" y="17"/>
    </contour>
  </outline>
  <guideline angle="90" x="608" y="0"/>
  <guideline angle="90" x="46" y="0"/>
  <guideline angle="0" x="0" y="262"/>
  <guideline angle="0" x="0" y="327"/>
  <guideline angle="0" x="0" y="181"/>
</glyph>
<glyph name="iotadieresis" format="2">
  <advance width="83"/>
  <unicode hex="03CA"/>
  <anchor x="108" y="0" name="b.uni0324_3"/>
  <anchor x="266" y="0" name="m.uni0328_4"/>
  <anchor x="108" y="793" name="m.uni0308"/>
  <outline>
    <contour>
      <point x="122" y="614" type="qcurve" smooth="yes"/>
      <point x="112" y="614"/>
      <point x="96" y="630"/>
      <point x="96" y="640" type="qcurve" smooth="yes"/>
      <point x="96" y="651"/>
      <point x="112" y="666"/>
      <point x="122" y="666" type="qcurve" smooth="yes"/>
      <point x="133" y="666"/>
      <point x="148" y="651"/>
      <point x="148" y="640" type="qcurve" smooth="yes"/>
      <point x="148" y="630"/>
      <point x="133" y="614"/>
    </contour>
    <contour>
      <point x="-42" y="614" type="qcurve" smooth="yes"/>
      <point x="-52" y="614"/>
      <point x="-68" y="630"/>
      <point x="-68" y="640" type="qcurve" smooth="yes"/>
      <point x="-68" y="651"/>
      <point x="-52" y="666"/>
      <point x="-42" y="666" type="qcurve" smooth="yes"/>
      <point x="-31" y="666"/>
      <point x="-16" y="651"/>
      <point x="-16" y="640" type="qcurve" smooth="yes"/>
      <point x="-16" y="630"/>
      <point x="-31" y="614"/>
    </contour>
    <contour>
      <point x="36" y="0" type="line"/>
      <point x="36" y="517" type="line"/>
      <point x="56" y="517" type="line"/>
      <point x="56" y="0" type="line"/>
    </contour>
  </outline>
</glyph>
<glyph name="upsilondieresis" format="2">
  <advance width="480"/>
  <unicode hex="03CB"/>
  <anchor x="454" y="593" name="t.uni031B_2"/>
  <anchor x="259" y="0" name="b.uni0324_3"/>
  <anchor x="476" y="0" name="m.uni0328_4"/>
  <anchor x="259" y="824" name="m.uni0308"/>
  <outline>
    <contour>
      <point x="247" y="-3" type="qcurve" smooth="yes"/>
      <point x="179" y="-3"/>
      <point x="80" y="50"/>
      <point x="27" y="156"/>
      <point x="27" y="235" type="qcurve" smooth="yes"/>
      <point x="27" y="517" type="line"/>
      <point x="47" y="517" type="line"/>
      <point x="47" y="236" type="line" smooth="yes"/>
      <point x="47" y="124"/>
      <point x="152" y="16"/>
      <point x="247" y="16" type="qcurve" smooth="yes"/>
      <point x="342" y="16"/>
      <point x="447" y="124"/>
      <point x="447" y="236" type="qcurve" smooth="yes"/>
      <point x="447" y="517" type="line"/>
      <point x="467" y="517" type="line"/>
      <point x="467" y="235" type="line" smooth="yes"/>
      <point x="467" y="156"/>
      <point x="414" y="50"/>
      <point x="315" y="-3"/>
    </contour>
    <contour>
      <point x="327" y="619" type="qcurve" smooth="yes"/>
      <point x="317" y="619"/>
      <point x="301" y="635"/>
      <point x="301" y="645" type="qcurve" smooth="yes"/>
      <point x="301" y="656"/>
      <point x="317" y="671"/>
      <point x="327" y="671" type="qcurve" smooth="yes"/>
      <point x="338" y="671"/>
      <point x="353" y="656"/>
      <point x="353" y="645" type="qcurve" smooth="yes"/>
      <point x="353" y="635"/>
      <point x="338" y="619"/>
    </contour>
    <contour>
      <point x="163" y="619" type="qcurve" smooth="yes"/>
      <point x="153" y="619"/>
      <point x="137" y="635"/>
      <point x="137" y="645" type="qcurve" smooth="yes"/>
      <point x="137" y="656"/>
      <point x="153" y="671"/>
      <point x="163" y="671" type="qcurve" smooth="yes"/>
      <point x="174" y="671"/>
      <point x="189" y="656"/>
      <point x="189" y="645" type="qcurve" smooth="yes"/>
      <point x="189" y="635"/>
      <point x="174" y="619"/>
    </contour>
  </outline>
</glyph>
<glyph name="omegatonos" format="2">
  <advance width="839"/>
  <unicode hex="03CE"/>
  <anchor x="442" y="593" name="t.uni0308"/>
  <anchor x="442" y="0" name="b.uni0324_3"/>
  <anchor x="697" y="0" name="m.uni0328_4"/>
  <outline>
    <contour>
      <point x="716" y="513" type="line"/>
      <point x="763" y="472"/>
      <point x="822" y="328"/>
      <point x="818" y="241" type="qcurve" smooth="yes"/>
      <point x="813" y="113"/>
      <point x="707" y="2"/>
      <point x="619" y="-4" type="qcurve" smooth="yes"/>
      <point x="555" y="-9"/>
      <point x="463" y="44"/>
      <point x="413" y="147"/>
      <point x="415" y="212" type="qcurve"/>
      <point x="431" y="214" type="line"/>
      <point x="429" y="150"/>
      <point x="387" y="57"/>
      <point x="298" y="3"/>
      <point x="240" y="1" type="qcurve" smooth="yes"/>
      <point x="185" y="-1"/>
      <point x="91" y="45"/>
      <point x="22" y="149"/>
      <point x="21" y="228" type="qcurve" smooth="yes"/>
      <point x="19" y="345"/>
      <point x="76" y="475"/>
      <point x="106" y="513" type="qcurve"/>
      <point x="130" y="504" type="line"/>
      <point x="44" y="377"/>
      <point x="44" y="134"/>
      <point x="154" y="23"/>
      <point x="229" y="23" type="qcurve"/>
      <point x="306" y="20"/>
      <point x="413" y="134"/>
      <point x="411" y="222" type="qcurve" smooth="yes"/>
      <point x="409" y="300" type="line"/>
      <point x="434" y="299" type="line"/>
      <point x="436" y="220" type="line" smooth="yes"/>
      <point x="438" y="125"/>
      <point x="526" y="12"/>
      <point x="614" y="20" type="qcurve" smooth="yes"/>
      <point x="707" y="29"/>
      <point x="790" y="134"/>
      <point x="798" y="292"/>
      <point x="765" y="421"/>
      <point x="696" y="498" type="qcurve"/>
    </contour>
    <contour>
      <point x="409" y="607" type="line"/>
      <point x="446" y="717" type="line"/>
      <point x="476" y="717" type="line"/>
      <point x="429" y="607" type="line"/>
    </contour>
  </outline>
</glyph>
<glyph name="uni040A" format="2">
  <advance width="1192"/>
  <unicode hex="040A"/>
  <outline>
    <contour>
      <point x="137" y="0" type="line"/>
      <point x="137" y="700" type="line"/>
      <point x="157" y="700" type="line"/>
      <point x="157" y="396" type="line"/>
      <point x="649" y="396" type="line"/>
      <point x="649" y="700" type="line"/>
      <point x="669" y="700" type="line"/>
      <point x="669" y="0" type="line"/>
      <point x="649" y="0" type="line"/>
      <point x="649" y="377" type="line"/>
      <point x="157" y="377" type="line"/>
      <point x="157" y="0" type="line"/>
    </contour>
    <contour>
      <point x="669" y="10" type="line"/>
      <point x="661" y="19" type="line"/>
      <point x="905" y="19" type="line" smooth="yes"/>
      <point x="1009" y="19"/>
      <point x="1125" y="116"/>
      <point x="1125" y="201" type="qcurve" smooth="yes"/>
      <point x="1125" y="286"/>
      <point x="1011" y="377"/>
      <point x="905" y="377" type="qcurve" smooth="yes"/>
      <point x="661" y="377" type="line"/>
      <point x="669" y="386" type="line"/>
    </contour>
    <contour>
      <point x="649" y="0" type="line"/>
      <point x="649" y="700" type="line"/>
      <point x="669" y="700" type="line"/>
      <point x="669" y="388" type="line"/>
      <point x="661" y="396" type="line"/>
      <point x="912" y="396" type="line" smooth="yes"/>
      <point x="1022" y="396"/>
      <point x="1145" y="295"/>
      <point x="1145" y="203" type="qcurve" smooth="yes"/>
      <point x="1145" y="108"/>
      <point x="1016" y="0"/>
      <point x="901" y="0" type="qcurve" smooth="yes"/>
    </contour>
  </outline>
</glyph>
<glyph name="uni040B" format="2">
  <advance width="823"/>
  <unicode hex="040B"/>
  <outline>
    <contour>
      <point x="268" y="0" type="line"/>
      <point x="268" y="690" type="line"/>
      <point x="277" y="681" type="line"/>
      <point x="8" y="681" type="line"/>
      <point x="8" y="700" type="line"/>
      <point x="563" y="700" type="line"/>
      <point x="563" y="681" type="line"/>
      <point x="279" y="681" type="line"/>
      <point x="288" y="690" type="line"/>
      <point x="288" y="0" type="line"/>
    </contour>
    <contour>
      <point x="277" y="352" type="line"/>
      <point x="346" y="384"/>
      <point x="468" y="416"/>
      <point x="526" y="416" type="qcurve" smooth="yes"/>
      <point x="630" y="416"/>
      <point x="758" y="312"/>
      <point x="758" y="209" type="qcurve" smooth="yes"/>
      <point x="758" y="0" type="line"/>
      <point x="738" y="0" type="line"/>
      <point x="738" y="209" type="line" smooth="yes"/>
      <point x="738" y="300"/>
      <point x="625" y="397"/>
      <point x="526" y="397" type="qcurve" smooth="yes"/>
      <point x="416" y="397"/>
      <point x="275" y="331" type="qcurve"/>
    </contour>
  </outline>
</glyph>
<glyph name="uni0412" format="2">
  <advance width="752"/>
  <unicode hex="0412"/>
  <anchor x="388" y="700" name="t.uni0308"/>
  <anchor x="388" y="0" name="b.uni0324_3"/>
  <outline>
    <contour>
      <point x="137" y="0" type="line"/>
      <point x="137" y="700" type="line"/>
      <point x="406" y="700" type="line" smooth="yes"/>
      <point x="510" y="700"/>
      <point x="633" y="611"/>
      <point x="633" y="523" type="qcurve" smooth="yes"/>
      <point x="633" y="435"/>
      <point x="514" y="350"/>
      <point x="419" y="350" type="qcurve"/>
      <point x="436" y="363" type="line"/>
      <point x="552" y="363"/>
      <point x="670" y="272"/>
      <point x="670" y="183" type="qcurve" smooth="yes"/>
      <point x="670" y="95"/>
      <point x="549" y="0"/>
      <point x="425" y="0" type="qcurve" smooth="yes"/>
    </contour>
    <contour>
      <point x="157" y="19" type="line"/>
      <point x="429" y="19" type="line" smooth="yes"/>
      <point x="537" y="19"/>
      <point x="650" y="98"/>
      <point x="650" y="183" type="qcurve" smooth="yes"/>
      <point x="650" y="268"/>
      <point x="537" y="346"/>
      <point x="429" y="346" type="qcurve" smooth="yes"/>
      <point x="157" y="346" type="line"/>
    </contour>
    <contour>
      <point x="157" y="365" type="line"/>
      <point x="409" y="365" type="line" smooth="yes"/>
      <point x="506" y="365"/>
      <point x="613" y="445"/>
      <point x="613" y="523" type="qcurve" smooth="yes"/>
      <point x="613" y="601"/>
      <point x="506" y="681"/>
      <point x="409" y="681" type="qcurve" smooth="yes"/>
      <point x="157" y="681" type="line"/>
    </contour>
  </outline>
</glyph>
<glyph name="uni0417" format="2">
  <advance width="623"/>
  <unicode hex="0417"/>
  <anchor x="339" y="700" name="t.uni0308"/>
  <anchor x="315" y="0" name="b.uni0324_3"/>
  <outline>
    <contour>
      <point x="40" y="99" type="qcurve"/>
      <point x="53" y="110" type="line"/>
      <point x="100" y="62"/>
      <point x="222" y="16"/>
      <point x="348" y="16"/>
      <point x="455" y="58"/>
      <point x="521" y="139"/>
      <point x="521" y="197" type="qcurve" smooth="yes"/>
      <point x="521" y="273"/>
      <point x="406" y="356"/>
      <point x="301" y="356" type="qcurve" smooth="yes"/>
      <point x="164" y="356" type="line"/>
      <point x="164" y="375" type="line"/>
      <point x="302" y="375" type="line" smooth="yes"/>
      <point x="391" y="375"/>
      <point x="491" y="453"/>
      <point x="491" y="523" type="qcurve" smooth="yes"/>
      <point x="491" y="571"/>
      <point x="439" y="641"/>
      <point x="352" y="681"/>
      <point x="243" y="687"/>
      <point x="127" y="656"/>
      <point x="73" y="620" type="qcurve"/>
      <point x="63" y="637" type="line"/>
      <point x="121" y="675"/>
      <point x="246" y="707"/>
      <point x="363" y="698"/>
      <point x="456" y="653"/>
      <point x="511" y="576"/>
      <point x="511" y="524" type="qcurve" smooth="yes"/>
      <point x="511" y="473"/>
      <point x="461" y="399"/>
      <point x="370" y="359"/>
      <point x="307" y="359" type="qcurve"/>
      <point x="311" y="372" type="line"/>
      <point x="382" y="372"/>
      <point x="485" y="329"/>
      <point x="541" y="250"/>
      <point x="541" y="196" type="qcurve" smooth="yes"/>
      <point x="541" y="144"/>
      <point x="491" y="65"/>
      <point x="405" y="14"/>
      <point x="299" y="-7"/>
      <point x="187" y="6"/>
      <point x="81" y="55"/>
    </contour>
  </outline>
</glyph>
<glyph name="uni0418" format="2">
  <advance width="826"/>
  <unicode hex="0418"/>
  <anchor x="410" y="700" name="t.uni0308"/>
  <outline>
    <contour>
      <point x="137" y="0" type="line"/>
      <point x="137" y="700" type="line"/>
      <point x="157" y="700" type="line"/>
      <point x="157" y="38" type="line"/>
      <point x="674" y="700" type="line"/>
      <point x="689" y="700" type="line"/>
      <point x="689" y="0" type="line"/>
      <point x="669" y="0" type="line"/>
      <point x="669" y="662" type="line"/>
      <point x="152" y="0" type="line"/>
    </contour>
  </outline>
</glyph>
<glyph name="uni041B" format="2">
  <advance width="775"/>
  <unicode hex="041B"/>
  <outline>
    <contour>
      <point x="48" y="-3" type="qcurve" smooth="yes"/>
      <point x="38" y="-3"/>
      <point x="19" y="-1"/>
      <point x="7" y="2" type="qcurve"/>
      <point x="11" y="21" type="line"/>
      <point x="30" y="17"/>
      <point x="46" y="17" type="qcurve" smooth="yes"/>
      <point x="93" y="17"/>
      <point x="153" y="90"/>
      <point x="186" y="254"/>
      <point x="191" y="390" type="qcurve" smooth="yes"/>
      <point x="202" y="700" type="line"/>
      <point x="638" y="700" type="line"/>
      <point x="638" y="0" type="line"/>
      <point x="618" y="0" type="line"/>
      <point x="618" y="690" type="line"/>
      <point x="627" y="681" type="line"/>
      <point x="213" y="681" type="line"/>
      <point x="222" y="690" type="line"/>
      <point x="211" y="389" type="line" smooth="yes"/>
      <point x="207" y="283"/>
      <point x="185" y="134"/>
      <point x="145" y="41"/>
      <point x="87" y="-3"/>
    </contour>
  </outline>
</glyph>
<glyph name="uni0423" format="2">
  <advance width="658"/>
  <unicode hex="0423"/>
  <anchor x="407" y="700" name="t.uni0308"/>
  <outline>
    <contour>
      <point x="104" y="29" type="line"/>
      <point x="151" y="9"/>
      <point x="246" y="31"/>
      <point x="290" y="100" type="qcurve" smooth="yes"/>
      <point x="324" y="153" type="line"/>
      <point x="327" y="158" type="line"/>
      <point x="616" y="700" type="line"/>
      <point x="639" y="700" type="line"/>
      <point x="309" y="95" type="line" smooth="yes"/>
      <point x="281" y="43"/>
      <point x="208" y="-3"/>
      <point x="131" y="-3"/>
      <point x="95" y="12" type="qcurve"/>
    </contour>
    <contour>
      <point x="325" y="136" type="line"/>
      <point x="29" y="700" type="line"/>
      <point x="52" y="700" type="line"/>
      <point x="336" y="158" type="line"/>
    </contour>
  </outline>
</glyph>
<glyph name="uni0424" format="2">
  <advance width="898"/>
  <unicode hex="0424"/>
  <outline>
    <contour>
      <point x="444" y="50" type="qcurve"/>
      <point x="326" y="50"/>
      <point x="154" y="121"/>
      <point x="60" y="256"/>
      <point x="60" y="350" type="qcurve" smooth="yes"/>
      <point x="60" y="445"/>
      <point x="154" y="579"/>
      <point x="326" y="650"/>
      <point x="444" y="650" type="qcurve"/>
      <point x="445" y="650"/>
      <point x="446" y="650"/>
      <point x="448" y="650"/>
      <point x="449" y="650" type="qcurve"/>
      <point x="569" y="650"/>
      <point x="743" y="579"/>
      <point x="838" y="445"/>
      <point x="838" y="350" type="qcurve" smooth="yes"/>
      <point x="838" y="255"/>
      <point x="743" y="121"/>
      <point x="569" y="50"/>
      <point x="449" y="50" type="qcurve"/>
      <point x="448" y="50"/>
      <point x="446" y="50"/>
      <point x="445" y="50"/>
    </contour>
    <contour>
      <point x="449" y="69" type="qcurve"/>
      <point x="450" y="69"/>
      <point x="451" y="69"/>
      <point x="451" y="69" type="qcurve"/>
      <point x="564" y="70"/>
      <point x="729" y="136"/>
      <point x="818" y="262"/>
      <point x="818" y="350" type="qcurve" smooth="yes"/>
      <point x="818" y="439"/>
      <point x="729" y="564"/>
      <point x="565" y="631"/>
      <point x="452" y="631" type="qcurve"/>
      <point x="451" y="631"/>
      <point x="450" y="631"/>
      <point x="449" y="631" type="qcurve"/>
      <point x="336" y="631"/>
      <point x="170" y="565"/>
      <point x="80" y="440"/>
      <point x="80" y="350" type="qcurve" smooth="yes"/>
      <point x="80" y="261"/>
      <point x="170" y="135"/>
      <point x="336" y="69"/>
    </contour>
    <contour>
      <point x="439" y="-20" type="line"/>
      <point x="439" y="720" type="line"/>
      <point x="459" y="720" type="line"/>
      <point x="459" y="-20" type="line"/>
    </contour>
  </outline>
</glyph>
<glyph name="uni0427" format="2">
  <advance width="720"/>
  <unicode hex="0427"/>
  <anchor x="387" y="700" name="t.uni0308"/>
  <outline>
    <contour>
      <point x="571" y="319" type="line"/>
      <point x="505" y="288"/>
      <point x="372" y="255"/>
      <point x="312" y="255" type="qcurve" smooth="yes"/>
      <point x="199" y="255"/>
      <point x="70" y="365"/>
      <point x="70" y="462" type="qcurve" smooth="yes"/>
      <point x="70" y="700" type="line"/>
      <point x="90" y="700" type="line"/>
      <point x="90" y="462" type="line" smooth="yes"/>
      <point x="90" y="374"/>
      <point x="208" y="274"/>
      <point x="311" y="274" type="qcurve" smooth="yes"/>
      <point x="370" y="274"/>
      <point x="503" y="308"/>
      <point x="573" y="340" type="qcurve"/>
    </contour>
    <contour>
      <point x="563" y="0" type="line"/>
      <point x="563" y="700" type="line"/>
      <point x="583" y="700" type="line"/>
      <point x="583" y="0" type="line"/>
    </contour>
  </outline>
</glyph>
<glyph name="uni042A" format="2">
  <advance width="805"/>
  <unicode hex="042A"/>
  <outline>
    <contour>
      <point x="503" y="436" type="line" smooth="yes"/>
      <point x="625" y="436"/>
      <point x="752" y="327"/>
      <point x="752" y="221" type="qcurve" smooth="yes"/>
      <point x="752" y="112"/>
      <point x="620" y="0"/>
      <point x="492" y="0" type="qcurve" smooth="yes"/>
      <point x="238" y="0" type="line"/>
      <point x="238" y="681" type="line"/>
      <point x="8" y="681" type="line"/>
      <point x="8" y="700" type="line"/>
      <point x="258" y="700" type="line"/>
      <point x="258" y="436" type="line"/>
    </contour>
    <contour>
      <point x="496" y="19" type="line" smooth="yes"/>
      <point x="613" y="19"/>
      <point x="732" y="120"/>
      <point x="732" y="220" type="qcurve" smooth="yes"/>
      <point x="732" y="319"/>
      <point x="615" y="417"/>
      <point x="496" y="417" type="qcurve" smooth="yes"/>
      <point x="258" y="417" type="line"/>
      <point x="258" y="19" type="line"/>
    </contour>
  </outline>
</glyph>
<glyph name="uni042D" format="2">
  <advance width="704"/>
  <unicode hex="042D"/>
  <anchor x="351" y="700" name="t.uni0308"/>
  <outline>
    <contour>
      <point x="208" y="349" type="line"/>
      <point x="208" y="368" type="line"/>
      <point x="620" y="368" type="line"/>
      <point x="620" y="349" type="line"/>
    </contour>
    <contour>
      <point x="294" y="703" type="qcurve" smooth="yes"/>
      <point x="366" y="703"/>
      <point x="489" y="650"/>
      <point x="582" y="554"/>
      <point x="633" y="426"/>
      <point x="633" y="350" type="qcurve" smooth="yes"/>
      <point x="633" y="274"/>
      <point x="582" y="146"/>
      <point x="489" y="50"/>
      <point x="366" y="-3"/>
      <point x="294" y="-3" type="qcurve" smooth="yes"/>
      <point x="221" y="-3"/>
      <point x="91" y="41"/>
      <point x="46" y="86" type="qcurve"/>
      <point x="58" y="100" type="line"/>
      <point x="106" y="54"/>
      <point x="226" y="16"/>
      <point x="294" y="16" type="qcurve" smooth="yes"/>
      <point x="362" y="16"/>
      <point x="478" y="67"/>
      <point x="564" y="158"/>
      <point x="613" y="279"/>
      <point x="613" y="350" type="qcurve" smooth="yes"/>
      <point x="613" y="421"/>
      <point x="564" y="542"/>
      <point x="478" y="633"/>
      <point x="362" y="684"/>
      <point x="294" y="684" type="qcurve" smooth="yes"/>
      <point x="226" y="684"/>
      <point x="106" y="645"/>
      <point x="58" y="599" type="qcurve"/>
      <point x="46" y="613" type="line"/>
      <point x="91" y="658"/>
      <point x="221" y="703"/>
    </contour>
  </outline>
</glyph>
<glyph name="uni042E" format="2">
  <advance width="1080"/>
  <unicode hex="042E"/>
  <outline>
    <contour>
      <point x="137" y="0" type="line"/>
      <point x="137" y="700" type="line"/>
      <point x="157" y="700" type="line"/>
      <point x="157" y="365" type="line"/>
      <point x="337" y="365" type="line"/>
      <point x="337" y="346" type="line"/>
      <point x="157" y="346" type="line"/>
      <point x="157" y="0" type="line"/>
    </contour>
    <contour>
      <point x="670" y="-3" type="qcurve" smooth="yes"/>
      <point x="598" y="-3"/>
      <point x="475" y="50"/>
      <point x="384" y="146"/>
      <point x="333" y="274"/>
      <point x="333" y="350" type="qcurve" smooth="yes"/>
      <point x="333" y="426"/>
      <point x="384" y="554"/>
      <point x="475" y="650"/>
      <point x="598" y="703"/>
      <point x="670" y="703" type="qcurve" smooth="yes"/>
      <point x="742" y="703"/>
      <point x="866" y="650"/>
      <point x="957" y="554"/>
      <point x="1008" y="426"/>
      <point x="1008" y="350" type="qcurve" smooth="yes"/>
      <point x="1008" y="274"/>
      <point x="957" y="146"/>
      <point x="866" y="50"/>
      <point x="742" y="-3"/>
    </contour>
    <contour>
      <point x="670" y="16" type="qcurve" smooth="yes"/>
      <point x="738" y="16"/>
      <point x="854" y="66"/>
      <point x="940" y="157"/>
      <point x="988" y="278"/>
      <point x="988" y="350" type="qcurve" smooth="yes"/>
      <point x="988" y="422"/>
      <point x="940" y="543"/>
      <point x="854" y="634"/>
      <point x="738" y="684"/>
      <point x="670" y="684" type="qcurve" smooth="yes"/>
      <point x="603" y="684"/>
      <point x="487" y="634"/>
      <point x="401" y="543"/>
      <point x="353" y="422"/>
      <point x="353" y="350" type="qcurve" smooth="yes"/>
      <point x="353" y="278"/>
      <point x="401" y="157"/>
      <point x="487" y="66"/>
      <point x="603" y="16"/>
    </contour>
  </outline>
</glyph>
<glyph name="uni0432" format="2">
  <advance width="594"/>
  <unicode hex="0432"/>
  <anchor x="344" y="563" name="t.uni0308"/>
  <anchor x="344" y="0" name="b.uni0324_3"/>
  <outline>
    <contour>
      <point x="117" y="0" type="line"/>
      <point x="117" y="517" type="line"/>
      <point x="320" y="517" type="line" smooth="yes"/>
      <point x="402" y="517"/>
      <point x="497" y="451"/>
      <point x="497" y="386" type="qcurve" smooth="yes"/>
      <point x="497" y="322"/>
      <point x="404" y="259"/>
      <point x="330" y="259" type="qcurve"/>
      <point x="343" y="268" type="line"/>
      <point x="434" y="268"/>
      <point x="516" y="201"/>
      <point x="516" y="136" type="qcurve" smooth="yes"/>
      <point x="516" y="70"/>
      <point x="422" y="0"/>
      <point x="324" y="0" type="qcurve" smooth="yes"/>
    </contour>
    <contour>
      <point x="137" y="19" type="line"/>
      <point x="327" y="19" type="line" smooth="yes"/>
      <point x="410" y="19"/>
      <point x="496" y="75"/>
      <point x="496" y="136" type="qcurve" smooth="yes"/>
      <point x="496" y="197"/>
      <point x="420" y="253"/>
      <point x="337" y="253" type="qcurve" smooth="yes"/>
      <point x="137" y="253" type="line"/>
    </contour>
    <contour>
      <point x="137" y="272" type="line"/>
      <point x="321" y="272" type="line" smooth="yes"/>
      <point x="395" y="272"/>
      <point x="477" y="329"/>
      <point x="477" y="385" type="qcurve" smooth="yes"/>
      <point x="477" y="441"/>
      <point x="395" y="498"/>
      <point x="321" y="498" type="qcurve" smooth="yes"/>
      <point x="137" y="498" type="line"/>
    </contour>
  </outline>
</glyph>
<glyph name="uni0434" format="2">
  <advance width="623"/>
  <unicode hex="0434"/>
  <outline>
    <contour>
      <point x="472" y="10" type="line"/>
      <point x="472" y="498" type="line"/>
      <point x="173" y="498" type="line"/>
      <point x="166" y="349" type="line" smooth="yes"/>
      <point x="163" y="290"/>
      <point x="152" y="171"/>
      <point x="129" y="72"/>
      <point x="88" y="12"/>
      <point x="56" y="10" type="qcurve"/>
      <point x="35" y="18" type="line"/>
      <point x="68" y="16"/>
      <point x="110" y="71"/>
      <point x="132" y="167"/>
      <point x="143" y="287"/>
      <point x="146" y="349" type="qcurve" smooth="yes"/>
      <point x="154" y="517" type="line"/>
      <point x="492" y="517" type="line"/>
      <point x="492" y="10" type="line"/>
    </contour>
    <contour>
      <point x="11" y="-134" type="line"/>
      <point x="11" y="18" type="line"/>
      <point x="578" y="18" type="line"/>
      <point x="578" y="-134" type="line"/>
      <point x="558" y="-134" type="line"/>
      <point x="558" y="0" type="line"/>
      <point x="31" y="0" type="line"/>
      <point x="31" y="-134" type="line"/>
    </contour>
  </outline>
</glyph>
<glyph name="uni043F" format="2">
  <advance width="668"/>
  <unicode hex="043F"/>
  <outline>
    <contour>
      <point x="117" y="0" type="line"/>
      <point x="117" y="517" type="line"/>
      <point x="551" y="517" type="line"/>
      <point x="551" y="0" type="line"/>
      <point x="531" y="0" type="line"/>
      <point x="531" y="506" type="line"/>
      <point x="539" y="498" type="line"/>
      <point x="129" y="498" type="line"/>
      <point x="137" y="506" type="line"/>
      <point x="137" y="0" type="line"/>
    </contour>
  </outline>
</glyph>
<glyph name="uni0442" format="2">
  <advance width="432"/>
  <unicode hex="0442"/>
  <anchor x="333" y="562" name="t.uni0308"/>
  <anchor x="333" y="226" name="t.uni0307_1"/>
  <anchor x="333" y="0" name="b.uni0324_3"/>
  <outline>
    <contour>
      <point x="206" y="0" type="line"/>
      <point x="206" y="506" type="line"/>
      <point x="214" y="498" type="line"/>
      <point x="-4" y="498" type="line"/>
      <point x="-4" y="517" type="line"/>
      <point x="436" y="517" type="line"/>
      <point x="436" y="498" type="line"/>
      <point x="218" y="498" type="line"/>
      <point x="226" y="506" type="line"/>
      <point x="226" y="0" type="line"/>
    </contour>
  </outline>
</glyph>
<glyph name="uni0446" format="2">
  <advance width="672"/>
  <unicode hex="0446"/>
  <outline>
    <contour>
      <point x="117" y="0" type="line"/>
      <point x="117" y="517" type="line"/>
      <point x="137" y="517" type="line"/>
      <point x="137" y="18" type="line"/>
      <point x="520" y="18" type="line"/>
      <point x="520" y="517" type="line"/>
      <point x="540" y="517" type="line"/>
      <point x="540" y="0" type="line"/>
    </contour>
    <contour>
      <point x="609" y="-134" type="line"/>
      <point x="609" y="8" type="line"/>
      <point x="617" y="0" type="line"/>
      <point x="520" y="0" type="line"/>
      <point x="520" y="18" type="line"/>
      <point x="629" y="18" type="line"/>
      <point x="629" y="-134" type="line"/>
    </contour>
  </outline>
</glyph>
<glyph name="uni044D" format="2">
  <advance width="564"/>
  <unicode hex="044D"/>
  <anchor x="308" y="562" name="t.uni0308"/>
  <outline>
    <contour>
      <point x="172" y="255" type="line"/>
      <point x="172" y="273" type="line"/>
      <point x="491" y="273" type="line"/>
      <point x="491" y="255" type="line"/>
    </contour>
    <contour>
      <point x="239" y="519" type="qcurve" smooth="yes"/>
      <point x="314" y="519"/>
      <point x="434" y="451"/>
      <point x="504" y="333"/>
      <point x="504" y="258" type="qcurve" smooth="yes"/>
      <point x="504" y="184"/>
      <point x="434" y="65"/>
      <point x="314" y="-3"/>
      <point x="239" y="-3" type="qcurve" smooth="yes"/>
      <point x="181" y="-3"/>
      <point x="79" y="30"/>
      <point x="44" y="64" type="qcurve"/>
      <point x="56" y="78" type="line"/>
      <point x="94" y="44"/>
      <point x="186" y="16"/>
      <point x="239" y="16" type="qcurve" smooth="yes"/>
      <point x="308" y="16"/>
      <point x="419" y="80"/>
      <point x="484" y="190"/>
      <point x="484" y="258" type="qcurve" smooth="yes"/>
      <point x="484" y="327"/>
      <point x="419" y="437"/>
      <point x="308" y="501"/>
      <point x="239" y="501" type="qcurve" smooth="yes"/>
      <point x="186" y="501"/>
      <point x="94" y="472"/>
      <point x="56" y="438" type="qcurve"/>
      <point x="44" y="451" type="line"/>
      <point x="79" y="485"/>
      <point x="181" y="519"/>
    </contour>
  </outline>
</glyph>
<glyph name="uni044E" format="2">
  <advance width="843"/>
  <unicode hex="044E"/>
  <outline>
    <contour>
      <point x="117" y="0" type="line"/>
      <point x="117" y="517" type="line"/>
      <point x="137" y="517" type="line"/>
      <point x="137" y="272" type="line"/>
      <point x="298" y="272" type="line"/>
      <point x="298" y="253" type="line"/>
      <point x="137" y="253" type="line"/>
      <point x="137" y="0" type="line"/>
    </contour>
    <contour>
      <point x="534" y="-3" type="qcurve" smooth="yes"/>
      <point x="464" y="-3"/>
      <point x="352" y="64"/>
      <point x="288" y="183"/>
      <point x="288" y="259" type="qcurve" smooth="yes"/>
      <point x="288" y="336"/>
      <point x="352" y="453"/>
      <point x="464" y="520"/>
      <point x="534" y="520" type="qcurve" smooth="yes"/>
      <point x="605" y="520"/>
      <point x="716" y="453"/>
      <point x="780" y="336"/>
      <point x="780" y="259" type="qcurve" smooth="yes"/>
      <point x="780" y="183"/>
      <point x="716" y="64"/>
      <point x="605" y="-3"/>
    </contour>
    <contour>
      <point x="534" y="16" type="qcurve" smooth="yes"/>
      <point x="599" y="16"/>
      <point x="701" y="78"/>
      <point x="760" y="188"/>
      <point x="760" y="259" type="qcurve" smooth="yes"/>
      <point x="760" y="331"/>
      <point x="701" y="440"/>
      <point x="599" y="501"/>
      <point x="534" y="501" type="qcurve" smooth="yes"/>
      <point x="470" y="501"/>
      <point x="367" y="440"/>
      <point x="308" y="331"/>
      <point x="308" y="259" type="qcurve" smooth="yes"/>
      <point x="308" y="188"/>
      <point x="367" y="78"/>
      <point x="470" y="16"/>
    </contour>
  </outline>
</glyph>
<glyph name="uni0463" format="2">
  <advance width="563"/>
  <unicode hex="0463"/>
  <outline>
    <contour>
      <point x="7" y="509" type="line"/>
      <point x="7" y="528" type="line"/>
      <point x="362" y="528" type="line"/>
      <point x="362" y="509" type="line"/>
    </contour>
    <contour>
      <point x="328" y="321" type="line" smooth="yes"/>
      <point x="423" y="320"/>
      <point x="522" y="240"/>
      <point x="522" y="162" type="qcurve" smooth="yes"/>
      <point x="522" y="81"/>
      <point x="419" y="-3"/>
      <point x="319" y="-2" type="qcurve" smooth="yes"/>
      <point x="142" y="0" type="line"/>
      <point x="142" y="742" type="line"/>
      <point x="162" y="742" type="line"/>
      <point x="162" y="323" type="line"/>
    </contour>
    <contour>
      <point x="321" y="16" type="line" smooth="yes"/>
      <point x="411" y="15"/>
      <point x="502" y="89"/>
      <point x="502" y="161" type="qcurve" smooth="yes"/>
      <point x="502" y="232"/>
      <point x="412" y="302"/>
      <point x="321" y="303" type="qcurve" smooth="yes"/>
      <point x="162" y="305" type="line"/>
      <point x="162" y="18" type="line"/>
    </contour>
  </outline>
</glyph>
<glyph name="uni046A" format="2">
  <advance width="851"/>
  <unicode hex="046A"/>
  <outline>
    <contour>
      <point x="30" y="0" type="line"/>
      <point x="114" y="173" type="line" smooth="yes"/>
      <point x="144" y="234"/>
      <point x="222" y="317"/>
      <point x="318" y="360"/>
      <point x="373" y="360" type="qcurve" smooth="yes"/>
      <point x="400" y="360" type="line"/>
      <point x="100" y="681" type="line"/>
      <point x="100" y="700" type="line"/>
      <point x="750" y="700" type="line"/>
      <point x="750" y="681" type="line"/>
      <point x="449" y="360" type="line"/>
      <point x="479" y="360" type="line" smooth="yes"/>
      <point x="534" y="360"/>
      <point x="629" y="318"/>
      <point x="708" y="235"/>
      <point x="737" y="174" type="qcurve" smooth="yes"/>
      <point x="821" y="0" type="line"/>
      <point x="799" y="0" type="line"/>
      <point x="720" y="164" type="line" smooth="yes"/>
      <point x="679" y="250"/>
      <point x="556" y="341"/>
      <point x="479" y="341" type="qcurve" smooth="yes"/>
      <point x="436" y="341" type="line"/>
      <point x="436" y="0" type="line"/>
      <point x="416" y="0" type="line"/>
      <point x="416" y="341" type="line"/>
      <point x="373" y="341" type="line" smooth="yes"/>
      <point x="295" y="341"/>
      <point x="172" y="250"/>
      <point x="131" y="164" type="qcurve" smooth="yes"/>
      <point x="53" y="0" type="line"/>
    </contour>
    <contour>
      <point x="127" y="681" type="line"/>
      <point x="426" y="360" type="line"/>
      <point x="427" y="360" type="line"/>
      <point x="723" y="681" type="line"/>
    </contour>
  </outline>
</glyph>
<glyph name="uni046B" format="2">
  <advance width="632"/>
  <unicode hex="046B"/>
  <outline>
    <contour>
      <point x="29" y="0" type="line"/>
      <point x="88" y="127" type="line" smooth="yes"/>
      <point x="109" y="173"/>
      <point x="165" y="235"/>
      <point x="235" y="267"/>
      <point x="275" y="267" type="qcurve" smooth="yes"/>
      <point x="358" y="267" type="line" smooth="yes"/>
      <point x="398" y="267"/>
      <point x="467" y="235"/>
      <point x="523" y="172"/>
      <point x="544" y="127" type="qcurve" smooth="yes"/>
      <point x="603" y="0" type="line"/>
      <point x="581" y="0" type="line"/>
      <point x="526" y="119" type="line" smooth="yes"/>
      <point x="497" y="182"/>
      <point x="413" y="248"/>
      <point x="358" y="248" type="qcurve" smooth="yes"/>
      <point x="326" y="248" type="line"/>
      <point x="326" y="0" type="line"/>
      <point x="306" y="0" type="line"/>
      <point x="306" y="248" type="line"/>
      <point x="275" y="248" type="line" smooth="yes"/>
      <point x="220" y="248"/>
      <point x="135" y="181"/>
      <point x="106" y="119" type="qcurve" smooth="yes"/>
      <point x="51" y="0" type="line"/>
    </contour>
    <contour>
      <point x="316" y="267" type="line"/>
      <point x="528" y="498" type="line"/>
      <point x="105" y="498" type="line"/>
    </contour>
    <contour>
      <point x="295" y="265" type="line"/>
      <point x="79" y="500" type="line"/>
      <point x="79" y="517" type="line"/>
      <point x="553" y="517" type="line"/>
      <point x="553" y="500" type="line"/>
      <point x="337" y="265" type="line"/>
    </contour>
  </outline>
</glyph>
<glyph name="uni0474" format="2">
  <advance width="722"/>
  <unicode hex="0474"/>
  <outline>
    <contour>
      <point x="318" y="0" type="line"/>
      <point x="27" y="700" type="line"/>
      <point x="50" y="700" type="line"/>
      <point x="328" y="28" type="line"/>
      <point x="513" y="542" type="line" smooth="yes"/>
      <point x="548" y="640"/>
      <point x="640" y="714"/>
      <point x="714" y="697" type="qcurve"/>
      <point x="710" y="677" type="line"/>
      <point x="643" y="693"/>
      <point x="563" y="626"/>
      <point x="531" y="536" type="qcurve" smooth="yes"/>
      <point x="338" y="0" type="line"/>
    </contour>
  </outline>
</glyph>
<glyph name="uni0494" format="2">
  <advance width="697"/>
  <unicode hex="0494"/>
  <outline>
    <contour>
      <point x="137" y="0" type="line"/>
      <point x="137" y="700" type="line"/>
      <point x="573" y="700" type="line"/>
      <point x="573" y="681" type="line"/>
      <point x="148" y="681" type="line"/>
      <point x="157" y="690" type="line"/>
      <point x="157" y="0" type="line"/>
    </contour>
    <contour>
      <point x="323" y="-126" type="qcurve"/>
      <point x="327" y="-106" type="line"/>
      <point x="408" y="-121"/>
      <point x="538" y="-65"/>
      <point x="613" y="59"/>
      <point x="613" y="145" type="qcurve" smooth="yes"/>
      <point x="613" y="215"/>
      <point x="559" y="316"/>
      <point x="465" y="374"/>
      <point x="346" y="385"/>
      <point x="216" y="345"/>
      <point x="152" y="296" type="qcurve"/>
      <point x="140" y="312" type="line"/>
      <point x="208" y="364"/>
      <point x="347" y="406"/>
      <point x="475" y="392"/>
      <point x="575" y="329"/>
      <point x="633" y="219"/>
      <point x="633" y="145" type="qcurve" smooth="yes"/>
      <point x="633" y="76"/>
      <point x="586" y="-35"/>
      <point x="501" y="-109"/>
      <point x="389" y="-138"/>
    </contour>
  </outline>
</glyph>
<glyph name="uni0499" format="2">
  <advance width="514"/>
  <unicode hex="0499"/>
  <outline>
    <contour>
      <point x="230" y="-3" type="qcurve" smooth="yes"/>
      <point x="285" y="-3"/>
      <point x="380" y="33"/>
      <point x="439" y="100"/>
      <point x="439" y="147" type="qcurve" smooth="yes"/>
      <point x="439" y="205"/>
      <point x="341" y="275"/>
      <point x="250" y="275" type="qcurve"/>
      <point x="247" y="264" type="line"/>
      <point x="296" y="264"/>
      <point x="376" y="294"/>
      <point x="424" y="350"/>
      <point x="424" y="389" type="qcurve" smooth="yes"/>
      <point x="424" y="431"/>
      <point x="371" y="490"/>
      <point x="283" y="520"/>
      <point x="232" y="520" type="qcurve" smooth="yes"/>
      <point x="187" y="520"/>
      <point x="99" y="496"/>
      <point x="58" y="471" type="qcurve"/>
      <point x="67" y="454" type="line"/>
      <point x="105" y="477"/>
      <point x="187" y="500"/>
      <point x="226" y="501" type="qcurve" smooth="yes"/>
      <point x="273" y="502"/>
      <point x="354" y="476"/>
      <point x="404" y="425"/>
      <point x="404" y="387" type="qcurve" smooth="yes"/>
      <point x="404" y="353"/>
      <point x="361" y="304"/>
      <point x="287" y="279"/>
      <point x="242" y="279" type="qcurve" smooth="yes"/>
      <point x="165" y="279" type="line"/>
      <point x="165" y="260" type="line"/>
      <point x="241" y="260" type="line" smooth="yes"/>
      <point x="322" y="260"/>
      <point x="419" y="200"/>
      <point x="419" y="147" type="qcurve" smooth="yes"/>
      <point x="419" y="111"/>
      <point x="372" y="51"/>
      <point x="289" y="16"/>
      <point x="235" y="15" type="qcurve" smooth="yes"/>
      <point x="185" y="14"/>
      <point x="83" y="47"/>
      <point x="46" y="84" type="qcurve"/>
      <point x="33" y="71" type="line"/>
      <point x="73" y="32"/>
      <point x="179" y="-3"/>
    </contour>
    <contour>
      <point x="243" y="10" type="line"/>
      <point x="223" y="10" type="line"/>
      <point x="223" y="-121" type="line"/>
      <point x="243" y="-121" type="line"/>
    </contour>
  </outline>
</glyph>
<glyph name="uni049D" format="2">
  <advance width="563"/>
  <unicode hex="049D"/>
  <outline>
    <contour>
      <point x="514" y="0" type="line"/>
      <point x="298" y="263" type="line"/>
      <point x="315" y="271" type="line"/>
      <point x="539" y="0" type="line"/>
    </contour>
    <contour>
      <point x="117" y="0" type="line"/>
      <point x="117" y="517" type="line"/>
      <point x="137" y="517" type="line"/>
      <point x="137" y="0" type="line"/>
    </contour>
    <contour>
      <point x="130" y="254" type="line"/>
      <point x="130" y="272" type="line"/>
      <point x="317" y="272" type="line"/>
      <point x="317" y="254" type="line"/>
    </contour>
    <contour>
      <point x="316" y="257" type="line"/>
      <point x="298" y="263" type="line"/>
      <point x="498" y="517" type="line"/>
      <point x="523" y="517" type="line"/>
    </contour>
    <contour>
      <point x="227" y="132" type="line"/>
      <point x="228" y="398" type="line"/>
      <point x="244" y="398" type="line"/>
      <point x="244" y="132" type="line"/>
    </contour>
  </outline>
</glyph>
<glyph name="uni049E" format="2">
  <advance width="706"/>
  <unicode hex="049E"/>
  <anchor x="443" y="700" name="t.uni0308"/>
  <outline>
    <contour>
      <point x="40" y="575" type="line"/>
      <point x="40" y="594" type="line"/>
      <point x="390" y="594" type="line"/>
      <point x="390" y="575" type="line"/>
    </contour>
    <contour>
      <point x="654" y="0" type="line"/>
      <point x="353" y="357" type="line"/>
      <point x="371" y="365" type="line"/>
      <point x="679" y="0" type="line"/>
    </contour>
    <contour>
      <point x="159" y="0" type="line"/>
      <point x="159" y="700" type="line"/>
      <point x="179" y="700" type="line"/>
      <point x="179" y="0" type="line"/>
    </contour>
    <contour>
      <point x="171" y="347" type="line"/>
      <point x="171" y="366" type="line"/>
      <point x="375" y="366" type="line"/>
      <point x="375" y="347" type="line"/>
    </contour>
    <contour>
      <point x="371" y="349" type="line"/>
      <point x="353" y="357" type="line"/>
      <point x="633" y="700" type="line"/>
      <point x="658" y="700" type="line"/>
    </contour>
  </outline>
</glyph>
<glyph name="uni049F" format="2">
  <advance width="549"/>
  <unicode hex="049F"/>
  <anchor x="360" y="562" name="t.uni0308"/>
  <anchor x="360" y="0" name="b.uni0324_3"/>
  <outline>
    <contour>
      <point x="3" y="621" type="line"/>
      <point x="3" y="640" type="line"/>
      <point x="307" y="640" type="line"/>
      <point x="307" y="621" type="line"/>
    </contour>
    <contour>
      <point x="505" y="0" type="line"/>
      <point x="268" y="263" type="line"/>
      <point x="286" y="271" type="line"/>
      <point x="529" y="0" type="line"/>
    </contour>
    <contour>
      <point x="118" y="0" type="line"/>
      <point x="118" y="742" type="line"/>
      <point x="138" y="742" type="line"/>
      <point x="138" y="0" type="line"/>
    </contour>
    <contour>
      <point x="131" y="254" type="line"/>
      <point x="131" y="272" type="line"/>
      <point x="288" y="272" type="line"/>
      <point x="288" y="254" type="line"/>
    </contour>
    <contour>
      <point x="286" y="257" type="line"/>
      <point x="268" y="263" type="line"/>
      <point x="489" y="517" type="line"/>
      <point x="513" y="517" type="line"/>
    </contour>
  </outline>
</glyph>
<glyph name="uni04A0" format="2">
  <advance width="785"/>
  <unicode hex="04A0"/>
  <anchor x="553" y="700" name="t.uni0308"/>
  <anchor x="548" y="0" name="b.uni0324_3"/>
  <outline>
    <contour>
      <point x="8" y="681" type="line"/>
      <point x="8" y="700" type="line"/>
      <point x="258" y="700" type="line"/>
      <point x="258" y="681" type="line"/>
    </contour>
    <contour>
      <point x="733" y="0" type="line"/>
      <point x="432" y="357" type="line"/>
      <point x="450" y="365" type="line"/>
      <point x="758" y="0" type="line"/>
    </contour>
    <contour>
      <point x="238" y="0" type="line"/>
      <point x="238" y="700" type="line"/>
      <point x="258" y="700" type="line"/>
      <point x="258" y="0" type="line"/>
    </contour>
    <contour>
      <point x="250" y="347" type="line"/>
      <point x="250" y="366" type="line"/>
      <point x="454" y="366" type="line"/>
      <point x="454" y="347" type="line"/>
    </contour>
    <contour>
      <point x="450" y="349" type="line"/>
      <point x="432" y="357" type="line"/>
      <point x="712" y="700" type="line"/>
      <point x="737" y="700" type="line"/>
    </contour>
  </outline>
</glyph>
<glyph name="uni04A8" format="2">
  <advance width="967"/>
  <unicode hex="04A8"/>
  <outline>
    <contour>
      <point x="445" y="-3" type="qcurve" smooth="yes"/>
      <point x="363" y="-3"/>
      <point x="227" y="50"/>
      <point x="128" y="147"/>
      <point x="74" y="280"/>
      <point x="74" y="359" type="qcurve" smooth="yes"/>
      <point x="74" y="472"/>
      <point x="180" y="649"/>
      <point x="274" y="701" type="qcurve"/>
      <point x="284" y="683" type="line"/>
      <point x="194" y="634"/>
      <point x="94" y="467"/>
      <point x="94" y="360" type="qcurve" smooth="yes"/>
      <point x="94" y="259"/>
      <point x="183" y="104"/>
      <point x="342" y="17"/>
      <point x="445" y="17" type="qcurve" smooth="yes"/>
      <point x="532" y="17"/>
      <point x="679" y="78"/>
      <point x="789" y="185"/>
      <point x="849" y="325"/>
      <point x="849" y="405" type="qcurve" smooth="yes"/>
      <point x="849" y="486"/>
      <point x="788" y="611"/>
      <point x="680" y="683"/>
      <point x="610" y="683" type="qcurve" smooth="yes"/>
      <point x="540" y="683"/>
      <point x="430" y="610"/>
      <point x="367" y="481"/>
      <point x="367" y="397" type="qcurve" smooth="yes"/>
      <point x="367" y="299"/>
      <point x="449" y="141"/>
      <point x="591" y="39"/>
      <point x="773" y="7"/>
      <point x="873" y="34" type="qcurve"/>
      <point x="879" y="14" type="line"/>
      <point x="795" y="-9"/>
      <point x="638" y="5"/>
      <point x="504" y="69"/>
      <point x="403" y="174"/>
      <point x="347" y="314"/>
      <point x="347" y="397" type="qcurve" smooth="yes"/>
      <point x="347" y="485"/>
      <point x="414" y="623"/>
      <point x="533" y="703"/>
      <point x="610" y="703" type="qcurve" smooth="yes"/>
      <point x="686" y="703"/>
      <point x="803" y="626"/>
      <point x="869" y="491"/>
      <point x="869" y="405" type="qcurve" smooth="yes"/>
      <point x="869" y="338"/>
      <point x="828" y="215"/>
      <point x="751" y="113"/>
      <point x="646" y="38"/>
      <point x="518" y="-3"/>
    </contour>
  </outline>
</glyph>
<glyph name="uni04A9" format="2">
  <advance width="771"/>
  <unicode hex="04A9"/>
  <outline>
    <contour>
      <point x="353" y="-3" type="qcurve" smooth="yes"/>
      <point x="268" y="-3"/>
      <point x="136" y="65"/>
      <point x="62" y="187"/>
      <point x="62" y="266" type="qcurve" smooth="yes"/>
      <point x="62" y="349"/>
      <point x="144" y="482"/>
      <point x="217" y="520" type="qcurve"/>
      <point x="228" y="505" type="line"/>
      <point x="159" y="468"/>
      <point x="82" y="344"/>
      <point x="82" y="266" type="qcurve" smooth="yes"/>
      <point x="82" y="192"/>
      <point x="151" y="78"/>
      <point x="274" y="15"/>
      <point x="354" y="15" type="qcurve" smooth="yes"/>
      <point x="442" y="15"/>
      <point x="583" y="91"/>
      <point x="665" y="220"/>
      <point x="665" y="301" type="qcurve" smooth="yes"/>
      <point x="665" y="359"/>
      <point x="618" y="450"/>
      <point x="536" y="502"/>
      <point x="483" y="502" type="qcurve" smooth="yes"/>
      <point x="428" y="502"/>
      <point x="344" y="448"/>
      <point x="296" y="354"/>
      <point x="296" y="293" type="qcurve" smooth="yes"/>
      <point x="296" y="220"/>
      <point x="359" y="105"/>
      <point x="469" y="30"/>
      <point x="610" y="8"/>
      <point x="688" y="28" type="qcurve"/>
      <point x="692" y="10" type="line"/>
      <point x="626" y="-7"/>
      <point x="504" y="3"/>
      <point x="399" y="49"/>
      <point x="320" y="127"/>
      <point x="276" y="231"/>
      <point x="276" y="293" type="qcurve" smooth="yes"/>
      <point x="276" y="359"/>
      <point x="329" y="461"/>
      <point x="422" y="520"/>
      <point x="483" y="520" type="qcurve" smooth="yes"/>
      <point x="542" y="520"/>
      <point x="633" y="463"/>
      <point x="685" y="365"/>
      <point x="685" y="301" type="qcurve" smooth="yes"/>
      <point x="685" y="237"/>
      <point x="634" y="126"/>
      <point x="544" y="43"/>
      <point x="423" y="-3"/>
    </contour>
  </outline>
</glyph>
<glyph name="Ustraitstrokecy" format="2">
  <advance width="620"/>
  <unicode hex="04B0"/>
  <anchor x="411" y="700" name="t.uni0308"/>
  <anchor x="402" y="277" name="t.uni0307_1"/>
  <anchor x="411" y="0" name="b.uni0324_3"/>
  <outline>
    <contour>
      <point x="106" y="231" type="line"/>
      <point x="106" y="250" type="line"/>
      <point x="515" y="250" type="line"/>
      <point x="515" y="231" type="line"/>
    </contour>
    <contour>
      <point x="300" y="0" type="line"/>
      <point x="300" y="245" type="line"/>
      <point x="305" y="230" type="line"/>
      <point x="15" y="700" type="line"/>
      <point x="38" y="700" type="line"/>
      <point x="314" y="253" type="line"/>
      <point x="306" y="253" type="line"/>
      <point x="582" y="700" type="line"/>
      <point x="605" y="700" type="line"/>
      <point x="315" y="230" type="line"/>
      <point x="320" y="245" type="line"/>
      <point x="320" y="0" type="line"/>
    </contour>
  </outline>
</glyph>
<glyph name="uni04B5" format="2">
  <advance width="729"/>
  <unicode hex="04B5"/>
  <outline>
    <contour>
      <point x="206" y="0" type="line"/>
      <point x="206" y="517" type="line"/>
      <point x="226" y="517" type="line"/>
      <point x="226" y="18" type="line"/>
      <point x="579" y="18" type="line"/>
      <point x="579" y="517" type="line"/>
      <point x="599" y="517" type="line"/>
      <point x="599" y="0" type="line"/>
    </contour>
    <contour>
      <point x="660" y="-121" type="line"/>
      <point x="660" y="8" type="line"/>
      <point x="668" y="0" type="line"/>
      <point x="579" y="0" type="line"/>
      <point x="579" y="18" type="line"/>
      <point x="680" y="18" type="line"/>
      <point x="680" y="-121" type="line"/>
    </contour>
    <contour>
      <point x="426" y="517" type="line"/>
      <point x="426" y="498" type="line"/>
      <point x="-4" y="498" type="line"/>
      <point x="-4" y="517" type="line"/>
    </contour>
  </outline>
</glyph>
<glyph name="uni04BC" format="2">
  <advance width="945"/>
  <unicode hex="04BC"/>
  <anchor x="696" y="703" name="t.uni0308"/>
  <anchor x="708" y="0" name="b.uni0324_3"/>
  <outline>
    <contour>
      <point x="555" y="-3" type="qcurve" smooth="yes"/>
      <point x="485" y="-3"/>
      <point x="359" y="46"/>
      <point x="262" y="138"/>
      <point x="206" y="267"/>
      <point x="206" y="347" type="qcurve" smooth="yes"/>
      <point x="206" y="424"/>
      <point x="259" y="554"/>
      <point x="353" y="650"/>
      <point x="479" y="703"/>
      <point x="552" y="703" type="qcurve" smooth="yes"/>
      <point x="626" y="703"/>
      <point x="751" y="650"/>
      <point x="844" y="554"/>
      <point x="896" y="426"/>
      <point x="896" y="350" type="qcurve" smooth="yes"/>
      <point x="896" y="346"/>
      <point x="896" y="338"/>
      <point x="896" y="334" type="qcurve"/>
      <point x="178" y="334" type="line" smooth="yes"/>
      <point x="126" y="334"/>
      <point x="61" y="377"/>
      <point x="34" y="445"/>
      <point x="45" y="524"/>
      <point x="70" y="560" type="qcurve"/>
      <point x="87" y="551" type="line"/>
      <point x="64" y="518"/>
      <point x="53" y="449"/>
      <point x="77" y="389"/>
      <point x="134" y="353"/>
      <point x="179" y="353" type="qcurve" smooth="yes"/>
      <point x="885" y="353" type="line"/>
      <point x="876" y="350" type="line"/>
      <point x="876" y="422"/>
      <point x="827" y="543"/>
      <point x="739" y="634"/>
      <point x="621" y="684"/>
      <point x="552" y="684" type="qcurve" smooth="yes"/>
      <point x="483" y="684"/>
      <point x="365" y="634"/>
      <point x="276" y="543"/>
      <point x="226" y="420"/>
      <point x="226" y="348" type="qcurve" smooth="yes"/>
      <point x="226" y="273"/>
      <point x="279" y="150"/>
      <point x="371" y="63"/>
      <point x="489" y="16"/>
      <point x="555" y="16" type="qcurve" smooth="yes"/>
      <point x="617" y="16"/>
      <point x="745" y="61"/>
      <point x="803" y="108" type="qcurve"/>
      <point x="817" y="93" type="line"/>
      <point x="755" y="44"/>
      <point x="620" y="-3"/>
    </contour>
  </outline>
</glyph>
<glyph name="uni04C3" format="2">
  <advance width="677"/>
  <unicode hex="04C3"/>
  <outline>
    <contour>
      <point x="137" y="0" type="line"/>
      <point x="137" y="700" type="line"/>
      <point x="157" y="700" type="line"/>
      <point x="157" y="0" type="line"/>
    </contour>
    <contour>
      <point x="149" y="347" type="line"/>
      <point x="149" y="366" type="line"/>
      <point x="354" y="366" type="line"/>
      <point x="354" y="347" type="line"/>
    </contour>
    <contour>
      <point x="356" y="356" type="line"/>
      <point x="332" y="357" type="line"/>
      <point x="611" y="700" type="line"/>
      <point x="636" y="700" type="line"/>
    </contour>
    <contour>
      <point x="513" y="-197" type="qcurve" smooth="yes"/>
      <point x="463" y="-197"/>
      <point x="413" y="-168" type="qcurve"/>
      <point x="423" y="-150" type="line"/>
      <point x="470" y="-177"/>
      <point x="513" y="-177" type="qcurve" smooth="yes"/>
      <point x="560" y="-177"/>
      <point x="616" y="-118"/>
      <point x="616" y="-65" type="qcurve" smooth="yes"/>
      <point x="616" y="-24"/>
      <point x="580" y="75"/>
      <point x="509" y="184"/>
      <point x="404" y="296"/>
      <point x="336" y="348" type="qcurve"/>
      <point x="348" y="363" type="line"/>
      <point x="442" y="291"/>
      <point x="570" y="137"/>
      <point x="636" y="-8"/>
      <point x="636" y="-65" type="qcurve" smooth="yes"/>
      <point x="636" y="-126"/>
      <point x="568" y="-197"/>
    </contour>
  </outline>
</glyph>
<glyph name="uni04C4" format="2">
  <advance width="546"/>
  <unicode hex="04C4"/>
  <outline>
    <contour>
      <point x="391" y="-197" type="qcurve" smooth="yes"/>
      <point x="342" y="-197"/>
      <point x="292" y="-168" type="qcurve"/>
      <point x="302" y="-150" type="line"/>
      <point x="350" y="-178"/>
      <point x="391" y="-178" type="qcurve" smooth="yes"/>
      <point x="438" y="-178"/>
      <point x="495" y="-118"/>
      <point x="495" y="-70" type="qcurve" smooth="yes"/>
      <point x="495" y="-19"/>
      <point x="437" y="101"/>
      <point x="337" y="217"/>
      <point x="273" y="259" type="qcurve"/>
      <point x="285" y="274" type="line"/>
      <point x="351" y="230"/>
      <point x="455" y="110"/>
      <point x="515" y="-16"/>
      <point x="515" y="-70" type="qcurve" smooth="yes"/>
      <point x="515" y="-107"/>
      <point x="484" y="-165"/>
      <point x="428" y="-197"/>
    </contour>
    <contour>
      <point x="117" y="0" type="line"/>
      <point x="117" y="517" type="line"/>
      <point x="137" y="517" type="line"/>
      <point x="137" y="0" type="line"/>
    </contour>
    <contour>
      <point x="130" y="254" type="line"/>
      <point x="130" y="272" type="line"/>
      <point x="287" y="272" type="line"/>
      <point x="287" y="254" type="line"/>
    </contour>
    <contour>
      <point x="285" y="257" type="line"/>
      <point x="267" y="263" type="line"/>
      <point x="488" y="517" type="line"/>
      <point x="512" y="517" type="line"/>
    </contour>
  </outline>
</glyph>
<glyph name="uni04C7" format="2">
  <advance width="818"/>
  <unicode hex="04C7"/>
  <outline>
    <contour>
      <point x="454" y="-160" type="qcurve"/>
      <point x="468" y="-146" type="line"/>
      <point x="497" y="-168"/>
      <point x="563" y="-182"/>
      <point x="622" y="-164"/>
      <point x="660" y="-115"/>
      <point x="660" y="-75" type="qcurve" smooth="yes"/>
      <point x="660" y="344" type="line"/>
      <point x="157" y="344" type="line"/>
      <point x="157" y="0" type="line"/>
      <point x="137" y="0" type="line"/>
      <point x="137" y="700" type="line"/>
      <point x="157" y="700" type="line"/>
      <point x="157" y="364" type="line"/>
      <point x="660" y="364" type="line"/>
      <point x="660" y="700" type="line"/>
      <point x="680" y="700" type="line"/>
      <point x="680" y="-80" type="line" smooth="yes"/>
      <point x="680" y="-126"/>
      <point x="633" y="-182"/>
      <point x="562" y="-202"/>
      <point x="484" y="-186"/>
    </contour>
  </outline>
</glyph>
<glyph name="uni04D9" format="2">
  <advance width="597"/>
  <unicode hex="04D9"/>
  <anchor x="365" y="565" name="t.uni0308"/>
  <anchor x="365" y="3" name="b.uni0324_3"/>
  <anchor x="123" y="565" name="m.uni0328_4"/>
  <outline>
    <contour>
      <point x="274" y="520" type="qcurve" smooth="yes"/>
      <point x="349" y="520"/>
      <point x="465" y="453"/>
      <point x="532" y="335"/>
      <point x="532" y="258" type="qcurve" smooth="yes"/>
      <point x="532" y="182"/>
      <point x="470" y="64"/>
      <point x="362" y="-3"/>
      <point x="293" y="-3" type="qcurve" smooth="yes"/>
      <point x="225" y="-3"/>
      <point x="116" y="63"/>
      <point x="53" y="178"/>
      <point x="53" y="253" type="qcurve" smooth="yes"/>
      <point x="53" y="255"/>
      <point x="53" y="257"/>
      <point x="53" y="258" type="qcurve"/>
      <point x="521" y="258" type="line"/>
      <point x="521" y="239" type="line"/>
      <point x="64" y="239" type="line"/>
      <point x="72" y="254" type="line"/>
      <point x="72" y="186"/>
      <point x="130" y="78"/>
      <point x="230" y="16"/>
      <point x="293" y="16" type="qcurve" smooth="yes"/>
      <point x="357" y="16"/>
      <point x="456" y="78"/>
      <point x="513" y="186"/>
      <point x="513" y="254" type="qcurve" smooth="yes"/>
      <point x="513" y="258" type="line" smooth="yes"/>
      <point x="513" y="330"/>
      <point x="451" y="439"/>
      <point x="343" y="501"/>
      <point x="274" y="501" type="qcurve" smooth="yes"/>
      <point x="222" y="501"/>
      <point x="129" y="462"/>
      <point x="98" y="421" type="qcurve"/>
      <point x="84" y="435" type="line"/>
      <point x="119" y="477"/>
      <point x="219" y="520"/>
    </contour>
  </outline>
</glyph>
<glyph name="uni04E0" format="2">
  <advance width="599"/>
  <unicode hex="04E0"/>
  <outline>
    <contour>
      <point x="289" y="-3" type="qcurve" smooth="yes"/>
      <point x="204" y="-3"/>
      <point x="67" y="53"/>
      <point x="34" y="96" type="qcurve"/>
      <point x="47" y="109" type="line"/>
      <point x="79" y="70"/>
      <point x="206" y="16"/>
      <point x="290" y="16" type="qcurve" smooth="yes"/>
      <point x="399" y="16"/>
      <point x="513" y="112"/>
      <point x="513" y="192" type="qcurve" smooth="yes"/>
      <point x="513" y="272"/>
      <point x="396" y="368"/>
      <point x="274" y="368" type="qcurve" smooth="yes"/>
      <point x="237" y="368" type="line"/>
      <point x="237" y="383" type="line"/>
      <point x="483" y="688" type="line"/>
      <point x="485" y="681" type="line"/>
      <point x="57" y="681" type="line"/>
      <point x="57" y="700" type="line"/>
      <point x="505" y="700" type="line"/>
      <point x="505" y="685" type="line"/>
      <point x="259" y="380" type="line"/>
      <point x="257" y="387" type="line"/>
      <point x="273" y="387" type="line" smooth="yes"/>
      <point x="361" y="387"/>
      <point x="476" y="338"/>
      <point x="533" y="250"/>
      <point x="533" y="192" type="qcurve" smooth="yes"/>
      <point x="533" y="134"/>
      <point x="477" y="46"/>
      <point x="368" y="-3"/>
    </contour>
  </outline>
</glyph>
<glyph name="uni04E1" format="2">
  <advance width="487"/>
  <unicode hex="04E1"/>
  <outline>
    <contour>
      <point x="214" y="-198" type="qcurve" smooth="yes"/>
      <point x="135" y="-198"/>
      <point x="6" y="-141"/>
      <point x="-26" y="-97" type="qcurve"/>
      <point x="-13" y="-84" type="line"/>
      <point x="16" y="-124"/>
      <point x="137" y="-179"/>
      <point x="214" y="-179" type="qcurve" smooth="yes"/>
      <point x="318" y="-179"/>
      <point x="425" y="-82"/>
      <point x="425" y="0" type="qcurve" smooth="yes"/>
      <point x="425" y="82"/>
      <point x="316" y="179"/>
      <point x="201" y="179" type="qcurve" smooth="yes"/>
      <point x="165" y="179" type="line"/>
      <point x="165" y="194" type="line"/>
      <point x="397" y="505" type="line"/>
      <point x="399" y="498" type="line"/>
      <point x="-4" y="498" type="line"/>
      <point x="-4" y="517" type="line"/>
      <point x="419" y="517" type="line"/>
      <point x="419" y="502" type="line"/>
      <point x="187" y="191" type="line"/>
      <point x="185" y="198" type="line"/>
      <point x="200" y="198" type="line" smooth="yes"/>
      <point x="324" y="198"/>
      <point x="445" y="89"/>
      <point x="445" y="0" type="qcurve" smooth="yes"/>
      <point x="445" y="-59"/>
      <point x="392" y="-148"/>
      <point x="289" y="-198"/>
    </contour>
  </outline>
</glyph>
<glyph name="uni04E8" format="2">
  <advance width="857"/>
  <unicode hex="04E8"/>
  <anchor x="413" y="700" name="t.uni0308"/>
  <anchor x="413" y="350" name="t.uni0307_1"/>
  <anchor x="542" y="700" name="t.uni031B_2"/>
  <anchor x="413" y="0" name="b.uni0324_3"/>
  <anchor x="567" y="0" name="m.uni0328_4"/>
  <outline>
    <contour>
      <point x="428" y="703" type="qcurve" smooth="yes"/>
      <point x="505" y="703"/>
      <point x="636" y="650"/>
      <point x="733" y="554"/>
      <point x="787" y="426"/>
      <point x="787" y="350" type="qcurve" smooth="yes"/>
      <point x="787" y="274"/>
      <point x="733" y="146"/>
      <point x="636" y="50"/>
      <point x="505" y="-3"/>
      <point x="428" y="-3" type="qcurve" smooth="yes"/>
      <point x="351" y="-3"/>
      <point x="220" y="50"/>
      <point x="123" y="146"/>
      <point x="69" y="274"/>
      <point x="69" y="350" type="qcurve" smooth="yes"/>
      <point x="69" y="426"/>
      <point x="123" y="554"/>
      <point x="220" y="650"/>
      <point x="351" y="703"/>
    </contour>
    <contour>
      <point x="428" y="684" type="qcurve" smooth="yes"/>
      <point x="357" y="684"/>
      <point x="235" y="636"/>
      <point x="143" y="548"/>
      <point x="91" y="430"/>
      <point x="89" y="360" type="qcurve"/>
      <point x="767" y="360" type="line"/>
      <point x="765" y="430"/>
      <point x="713" y="548"/>
      <point x="621" y="636"/>
      <point x="499" y="684"/>
    </contour>
    <contour>
      <point x="428" y="16" type="qcurve" smooth="yes"/>
      <point x="499" y="16"/>
      <point x="621" y="65"/>
      <point x="713" y="153"/>
      <point x="765" y="271"/>
      <point x="767" y="341" type="qcurve"/>
      <point x="89" y="341" type="line"/>
      <point x="91" y="271"/>
      <point x="143" y="153"/>
      <point x="235" y="65"/>
      <point x="357" y="16"/>
    </contour>
  </outline>
</glyph>
<glyph name="uni04E9" format="2">
  <advance width="638"/>
  <unicode hex="04E9"/>
  <anchor x="345" y="562" name="t.uni0308"/>
  <outline>
    <contour>
      <point x="319" y="520" type="qcurve" smooth="yes"/>
      <point x="393" y="520"/>
      <point x="509" y="453"/>
      <point x="576" y="336"/>
      <point x="576" y="259" type="qcurve" smooth="yes"/>
      <point x="576" y="183"/>
      <point x="509" y="64"/>
      <point x="393" y="-3"/>
      <point x="319" y="-3" type="qcurve" smooth="yes"/>
      <point x="245" y="-3"/>
      <point x="128" y="64"/>
      <point x="61" y="183"/>
      <point x="61" y="259" type="qcurve" smooth="yes"/>
      <point x="61" y="336"/>
      <point x="128" y="453"/>
      <point x="245" y="520"/>
    </contour>
    <contour>
      <point x="319" y="501" type="qcurve" smooth="yes"/>
      <point x="253" y="501"/>
      <point x="147" y="443"/>
      <point x="84" y="338"/>
      <point x="81" y="269" type="qcurve"/>
      <point x="556" y="269" type="line"/>
      <point x="554" y="338"/>
      <point x="490" y="443"/>
      <point x="385" y="501"/>
    </contour>
    <contour>
      <point x="319" y="16" type="qcurve" smooth="yes"/>
      <point x="385" y="16"/>
      <point x="491" y="76"/>
      <point x="554" y="181"/>
      <point x="556" y="250" type="qcurve"/>
      <point x="81" y="250" type="line"/>
      <point x="83" y="181"/>
      <point x="146" y="76"/>
      <point x="253" y="16"/>
    </contour>
  </outline>
</glyph>
<glyph name="uni04FD" format="2">
  <advance width="489"/>
  <unicode hex="04FD"/>
  <outline>
    <contour>
      <point x="29" y="0" type="line"/>
      <point x="232" y="267" type="line"/>
      <point x="44" y="517" type="line"/>
      <point x="68" y="517" type="line"/>
      <point x="244" y="284" type="line"/>
      <point x="422" y="517" type="line"/>
      <point x="446" y="517" type="line"/>
      <point x="53" y="0" type="line"/>
    </contour>
    <contour>
      <point x="344" y="-197" type="qcurve" smooth="yes"/>
      <point x="291" y="-197"/>
      <point x="244" y="-165" type="qcurve"/>
      <point x="256" y="-149" type="line"/>
      <point x="276" y="-162"/>
      <point x="322" y="-178"/>
      <point x="345" y="-178" type="qcurve" smooth="yes"/>
      <point x="391" y="-178"/>
      <point x="449" y="-120"/>
      <point x="449" y="-74" type="qcurve" smooth="yes"/>
      <point x="449" y="-40"/>
      <point x="409" y="42"/>
      <point x="318" y="164"/>
      <point x="239" y="257" type="qcurve"/>
      <point x="255" y="269" type="line"/>
      <point x="318" y="194"/>
      <point x="401" y="87"/>
      <point x="449" y="10"/>
      <point x="469" y="-48"/>
      <point x="469" y="-74" type="qcurve" smooth="yes"/>
      <point x="469" y="-111"/>
      <point x="437" y="-166"/>
      <point x="381" y="-197"/>
    </contour>
  </outline>
</glyph>
<glyph name="uni0510" format="2">
  <advance width="623"/>
  <unicode hex="0510"/>
  <outline>
    <contour>
      <point x="582" y="99" type="line"/>
      <point x="541" y="55"/>
      <point x="435" y="6"/>
      <point x="323" y="-7"/>
      <point x="217" y="14"/>
      <point x="131" y="65"/>
      <point x="81" y="144"/>
      <point x="81" y="196" type="qcurve" smooth="yes"/>
      <point x="81" y="250"/>
      <point x="137" y="329"/>
      <point x="241" y="372"/>
      <point x="311" y="372" type="qcurve"/>
      <point x="315" y="359" type="line"/>
      <point x="252" y="359"/>
      <point x="161" y="399"/>
      <point x="111" y="473"/>
      <point x="111" y="524" type="qcurve" smooth="yes"/>
      <point x="111" y="576"/>
      <point x="166" y="653"/>
      <point x="259" y="698"/>
      <point x="376" y="707"/>
      <point x="501" y="675"/>
      <point x="559" y="637" type="qcurve"/>
      <point x="549" y="620" type="line"/>
      <point x="495" y="656"/>
      <point x="379" y="687"/>
      <point x="270" y="681"/>
      <point x="183" y="641"/>
      <point x="131" y="571"/>
      <point x="131" y="523" type="qcurve" smooth="yes"/>
      <point x="131" y="453"/>
      <point x="232" y="375"/>
      <point x="320" y="375" type="qcurve" smooth="yes"/>
      <point x="458" y="375" type="line"/>
      <point x="458" y="356" type="line"/>
      <point x="321" y="356" type="line" smooth="yes"/>
      <point x="216" y="356"/>
      <point x="101" y="273"/>
      <point x="101" y="197" type="qcurve" smooth="yes"/>
      <point x="101" y="139"/>
      <point x="167" y="58"/>
      <point x="274" y="16"/>
      <point x="400" y="16"/>
      <point x="522" y="62"/>
      <point x="569" y="110" type="qcurve"/>
    </contour>
  </outline>
</glyph>
<glyph name="uni0511" format="2">
  <advance width="514"/>
  <unicode hex="0511"/>
  <outline>
    <contour>
      <point x="284" y="-3" type="qcurve" smooth="yes"/>
      <point x="230" y="-3"/>
      <point x="134" y="33"/>
      <point x="75" y="100"/>
      <point x="75" y="147" type="qcurve" smooth="yes"/>
      <point x="75" y="205"/>
      <point x="173" y="275"/>
      <point x="264" y="275" type="qcurve"/>
      <point x="267" y="264" type="line"/>
      <point x="218" y="264"/>
      <point x="138" y="294"/>
      <point x="90" y="350"/>
      <point x="90" y="389" type="qcurve" smooth="yes"/>
      <point x="90" y="431"/>
      <point x="144" y="490"/>
      <point x="231" y="520"/>
      <point x="282" y="520" type="qcurve" smooth="yes"/>
      <point x="327" y="520"/>
      <point x="416" y="496"/>
      <point x="456" y="471" type="qcurve"/>
      <point x="447" y="454" type="line"/>
      <point x="410" y="477"/>
      <point x="327" y="500"/>
      <point x="288" y="501" type="qcurve" smooth="yes"/>
      <point x="241" y="502"/>
      <point x="160" y="476"/>
      <point x="110" y="425"/>
      <point x="110" y="387" type="qcurve" smooth="yes"/>
      <point x="110" y="353"/>
      <point x="154" y="304"/>
      <point x="227" y="279"/>
      <point x="272" y="279" type="qcurve" smooth="yes"/>
      <point x="349" y="279" type="line"/>
      <point x="349" y="260" type="line"/>
      <point x="273" y="260" type="line" smooth="yes"/>
      <point x="192" y="260"/>
      <point x="95" y="200"/>
      <point x="95" y="147" type="qcurve" smooth="yes"/>
      <point x="95" y="111"/>
      <point x="142" y="51"/>
      <point x="225" y="16"/>
      <point x="279" y="15" type="qcurve" smooth="yes"/>
      <point x="329" y="14"/>
      <point x="431" y="47"/>
      <point x="468" y="84" type="qcurve"/>
      <point x="481" y="71" type="line"/>
      <point x="441" y="32"/>
      <point x="335" y="-3"/>
    </contour>
  </outline>
</glyph>
<glyph name="uni0528" format="2">
  <advance width="820"/>
  <unicode hex="0528"/>
  <outline>
    <contour>
      <point x="-66" y="-160" type="qcurve"/>
      <point x="-52" y="-146" type="line"/>
      <point x="-23" y="-168"/>
      <point x="43" y="-182"/>
      <point x="102" y="-164"/>
      <point x="140" y="-115"/>
      <point x="140" y="-75" type="qcurve" smooth="yes"/>
      <point x="140" y="700" type="line"/>
      <point x="160" y="700" type="line"/>
      <point x="160" y="364" type="line"/>
      <point x="663" y="364" type="line"/>
      <point x="663" y="700" type="line"/>
      <point x="683" y="700" type="line"/>
      <point x="683" y="0" type="line"/>
      <point x="663" y="0" type="line"/>
      <point x="663" y="344" type="line"/>
      <point x="160" y="344" type="line"/>
      <point x="160" y="-80" type="line" smooth="yes"/>
      <point x="160" y="-126"/>
      <point x="113" y="-182"/>
      <point x="42" y="-202"/>
      <point x="-36" y="-186"/>
    </contour>
  </outline>
</glyph>
<glyph name="uni0529" format="2">
  <advance width="662"/>
  <unicode hex="0529"/>
  <outline>
    <contour>
      <point x="525" y="517" type="line"/>
      <point x="545" y="517" type="line"/>
      <point x="545" y="0" type="line"/>
      <point x="525" y="0" type="line"/>
      <point x="525" y="252" type="line"/>
      <point x="138" y="252" type="line"/>
      <point x="138" y="-70" type="line" smooth="yes"/>
      <point x="138" y="-127"/>
      <point x="75" y="-197"/>
      <point x="16" y="-197" type="qcurve" smooth="yes"/>
      <point x="-14" y="-197"/>
      <point x="-70" y="-179"/>
      <point x="-88" y="-160" type="qcurve"/>
      <point x="-74" y="-146" type="line"/>
      <point x="-40" y="-178"/>
      <point x="15" y="-178" type="qcurve" smooth="yes"/>
      <point x="65" y="-178"/>
      <point x="118" y="-120"/>
      <point x="118" y="-65" type="qcurve" smooth="yes"/>
      <point x="118" y="517" type="line"/>
      <point x="138" y="517" type="line"/>
      <point x="138" y="270" type="line"/>
      <point x="525" y="270" type="line"/>
    </contour>
  </outline>
</glyph>
<glyph name="uni052E" format="2">
  <advance width="792"/>
  <unicode hex="052E"/>
  <outline>
    <contour>
      <point x="48" y="-5" type="qcurve" smooth="yes"/>
      <point x="38" y="-5"/>
      <point x="19" y="-3"/>
      <point x="7" y="0" type="qcurve"/>
      <point x="11" y="19" type="line"/>
      <point x="30" y="15"/>
      <point x="46" y="15" type="qcurve" smooth="yes"/>
      <point x="93" y="15"/>
      <point x="153" y="88"/>
      <point x="186" y="252"/>
      <point x="191" y="390" type="qcurve" smooth="yes"/>
      <point x="202" y="700" type="line"/>
      <point x="638" y="700" type="line"/>
      <point x="638" y="0" type="line"/>
      <point x="618" y="0" type="line"/>
      <point x="618" y="690" type="line"/>
      <point x="627" y="681" type="line"/>
      <point x="213" y="681" type="line"/>
      <point x="222" y="690" type="line"/>
      <point x="211" y="389" type="line" smooth="yes"/>
      <point x="207" y="283"/>
      <point x="184" y="132"/>
      <point x="145" y="39"/>
      <point x="87" y="-5"/>
    </contour>
    <contour>
      <point x="735" y="-165" type="line"/>
      <point x="735" y="9" type="line"/>
      <point x="744" y="0" type="line"/>
      <point x="618" y="0" type="line"/>
      <point x="618" y="19" type="line"/>
      <point x="755" y="19" type="line"/>
      <point x="755" y="-165" type="line"/>
    </contour>
  </outline>
</glyph>
<glyph name="uni1E9E" format="2">
  <advance width="742"/>
  <unicode hex="1E9E"/>
  <outline>
    <contour>
      <point x="452" y="-3" type="qcurve" smooth="yes"/>
      <point x="414" y="-3"/>
      <point x="351" y="11"/>
      <point x="319" y="25" type="qcurve"/>
      <point x="327" y="44" type="line"/>
      <point x="356" y="30"/>
      <point x="421" y="16"/>
      <point x="458" y="16" type="qcurve" smooth="yes"/>
      <point x="548" y="16"/>
      <point x="657" y="106"/>
      <point x="657" y="193" type="qcurve" smooth="yes"/>
      <point x="657" y="281"/>
      <point x="546" y="369"/>
      <point x="454" y="369" type="qcurve" smooth="yes"/>
      <point x="430" y="369"/>
      <point x="383" y="363"/>
      <point x="363" y="357" type="qcurve"/>
      <point x="356" y="373" type="line"/>
      <point x="606" y="630" type="line"/>
      <point x="603" y="618" type="line"/>
      <point x="564" y="653"/>
      <point x="460" y="684"/>
      <point x="404" y="684" type="qcurve" smooth="yes"/>
      <point x="279" y="684"/>
      <point x="147" y="549"/>
      <point x="147" y="422" type="qcurve" smooth="yes"/>
      <point x="147" y="0" type="line"/>
      <point x="127" y="0" type="line"/>
      <point x="127" y="424" type="line" smooth="yes"/>
      <point x="127" y="511"/>
      <point x="192" y="636"/>
      <point x="315" y="703"/>
      <point x="402" y="703" type="qcurve" smooth="yes"/>
      <point x="443" y="703"/>
      <point x="520" y="687"/>
      <point x="588" y="656"/>
      <point x="616" y="631" type="qcurve"/>
      <point x="616" y="615" type="line"/>
      <point x="375" y="367" type="line"/>
      <point x="374" y="377" type="line"/>
      <point x="392" y="383"/>
      <point x="433" y="388"/>
      <point x="454" y="388" type="qcurve" smooth="yes"/>
      <point x="521" y="388"/>
      <point x="621" y="344"/>
      <point x="677" y="257"/>
      <point x="677" y="193" type="qcurve" smooth="yes"/>
      <point x="677" y="129"/>
      <point x="622" y="42"/>
      <point x="521" y="-3"/>
    </contour>
  </outline>
</glyph>
<glyph name="uni1EE1" format="2">
  <advance width="614"/>
  <unicode hex="1EE1"/>
  <anchor x="354" y="562" name="t.uni0308"/>
  <anchor x="354" y="0" name="b.uni0324_3"/>
  <outline>
    <contour>
      <point x="372" y="619" type="qcurve" smooth="yes"/>
      <point x="351" y="619"/>
      <point x="318" y="640"/>
      <point x="291" y="667"/>
      <point x="263" y="688"/>
      <point x="246" y="688" type="qcurve" smooth="yes"/>
      <point x="222" y="688"/>
      <point x="194" y="652"/>
      <point x="192" y="621" type="qcurve"/>
      <point x="173" y="621" type="line"/>
      <point x="175" y="660"/>
      <point x="214" y="707"/>
      <point x="246" y="707" type="qcurve" smooth="yes"/>
      <point x="267" y="707"/>
      <point x="300" y="686"/>
      <point x="327" y="659"/>
      <point x="355" y="638"/>
      <point x="372" y="638" type="qcurve" smooth="yes"/>
      <point x="396" y="638"/>
      <point x="425" y="674"/>
      <point x="426" y="703" type="qcurve"/>
      <point x="445" y="703" type="line"/>
      <point x="444" y="666"/>
      <point x="404" y="619"/>
    </contour>
    <contour>
      <point x="305" y="-3" type="qcurve" smooth="yes"/>
      <point x="233" y="-3"/>
      <point x="120" y="64"/>
      <point x="54" y="183"/>
      <point x="54" y="259" type="qcurve" smooth="yes"/>
      <point x="54" y="336"/>
      <point x="120" y="453"/>
      <point x="233" y="520"/>
      <point x="305" y="520" type="qcurve" smooth="yes"/>
      <point x="333" y="520"/>
      <point x="370" y="518"/>
      <point x="408" y="515"/>
      <point x="435" y="515" type="qcurve" smooth="yes"/>
      <point x="482" y="515"/>
      <point x="526" y="560"/>
      <point x="526" y="588" type="qcurve" smooth="yes"/>
      <point x="526" y="608"/>
      <point x="514" y="641"/>
      <point x="506" y="655" type="qcurve"/>
      <point x="524" y="663" type="line"/>
      <point x="534" y="648"/>
      <point x="546" y="609"/>
      <point x="546" y="589" type="qcurve" smooth="yes"/>
      <point x="546" y="565"/>
      <point x="522" y="522"/>
      <point x="474" y="496"/>
      <point x="436" y="496" type="qcurve" smooth="yes"/>
      <point x="429" y="496"/>
      <point x="413" y="497"/>
      <point x="399" y="498" type="qcurve"/>
      <point x="390" y="506" type="line"/>
      <point x="464" y="481"/>
      <point x="556" y="350"/>
      <point x="556" y="259" type="qcurve" smooth="yes"/>
      <point x="556" y="183"/>
      <point x="491" y="64"/>
      <point x="377" y="-3"/>
    </contour>
    <contour>
      <point x="305" y="16" type="qcurve" smooth="yes"/>
      <point x="371" y="16"/>
      <point x="476" y="78"/>
      <point x="536" y="188"/>
      <point x="536" y="259" type="qcurve" smooth="yes"/>
      <point x="536" y="331"/>
      <point x="476" y="440"/>
      <point x="371" y="501"/>
      <point x="305" y="501" type="qcurve" smooth="yes"/>
      <point x="239" y="501"/>
      <point x="135" y="440"/>
      <point x="74" y="331"/>
      <point x="74" y="259" type="qcurve" smooth="yes"/>
      <point x="74" y="188"/>
      <point x="135" y="78"/>
      <point x="239" y="16"/>
    </contour>
  </outline>
</glyph>
<glyph name="quoteright" format="2">
  <advance width="182"/>
  <unicode hex="2019"/>
  <outline>
    <contour>
      <point x="62" y="556" type="line"/>
      <point x="93" y="704" type="line"/>
      <point x="93" y="693" type="line"/>
      <point x="81" y="693"/>
      <point x="65" y="709"/>
      <point x="65" y="719" type="qcurve" smooth="yes"/>
      <point x="65" y="730"/>
      <point x="80" y="745"/>
      <point x="91" y="745" type="qcurve" smooth="yes"/>
      <point x="103" y="745"/>
      <point x="117" y="728"/>
      <point x="117" y="719" type="qcurve" smooth="yes"/>
      <point x="117" y="714"/>
      <point x="116" y="704"/>
      <point x="114" y="696"/>
      <point x="113" y="690" type="qcurve"/>
      <point x="80" y="556" type="line"/>
    </contour>
  </outline>
</glyph>
<glyph name="bullet" format="2">
  <advance width="258"/>
  <unicode hex="2022"/>
  <outline>
    <contour>
      <point x="129" y="225" type="qcurve" smooth="yes"/>
      <point x="117" y="225"/>
      <point x="97" y="237"/>
      <point x="85" y="257"/>
      <point x="85" y="269" type="qcurve" smooth="yes"/>
      <point x="85" y="281"/>
      <point x="97" y="301"/>
      <point x="117" y="313"/>
      <point x="129" y="313" type="qcurve" smooth="yes"/>
      <point x="141" y="313"/>
      <point x="161" y="301"/>
      <point x="173" y="281"/>
      <point x="173" y="269" type="qcurve" smooth="yes"/>
      <point x="173" y="257"/>
      <point x="161" y="237"/>
      <point x="141" y="225"/>
    </contour>
  </outline>
</glyph>
<glyph name="guilsinglright" format="2">
  <advance width="273"/>
  <unicode hex="203A"/>
  <outline>
    <contour>
      <point x="68" y="74" type="line"/>
      <point x="45" y="74" type="line"/>
      <point x="191" y="259" type="line"/>
      <point x="45" y="444" type="line"/>
      <point x="68" y="444" type="line"/>
      <point x="215" y="259" type="line"/>
    </contour>
  </outline>
</glyph>
<glyph name="uni2052" format="2">
  <advance width="466"/>
  <unicode hex="2052"/>
  <outline>
    <contour>
      <point x="100" y="0" type="line"/>
      <point x="345" y="700" type="line"/>
      <point x="365" y="700" type="line"/>
      <point x="120" y="0" type="line"/>
    </contour>
    <contour>
      <point x="332" y="0" type="qcurve" smooth="yes"/>
      <point x="321" y="0"/>
      <point x="303" y="18"/>
      <point x="303" y="29" type="qcurve" smooth="yes"/>
      <point x="303" y="40"/>
      <point x="321" y="58"/>
      <point x="332" y="58" type="qcurve" smooth="yes"/>
      <point x="343" y="58"/>
      <point x="361" y="40"/>
      <point x="361" y="29" type="qcurve" smooth="yes"/>
      <point x="361" y="18"/>
      <point x="343" y="0"/>
    </contour>
    <contour>
      <point x="133" y="642" type="qcurve" smooth="yes"/>
      <point x="122" y="642"/>
      <point x="104" y="660"/>
      <point x="104" y="671" type="qcurve" smooth="yes"/>
      <point x="104" y="682"/>
      <point x="122" y="700"/>
      <point x="133" y="700" type="qcurve" smooth="yes"/>
      <point x="144" y="700"/>
      <point x="162" y="682"/>
      <point x="162" y="671" type="qcurve" smooth="yes"/>
      <point x="162" y="660"/>
      <point x="144" y="642"/>
    </contour>
  </outline>
</glyph>
<glyph name="colonmonetary" format="2">
  <advance width="711"/>
  <unicode hex="20A1"/>
  <outline>
    <contour>
      <point x="342" y="-120" type="line"/>
      <point x="581" y="820" type="line"/>
      <point x="600" y="820" type="line"/>
      <point x="361" y="-120" type="line"/>
    </contour>
    <contour>
      <point x="197" y="-120" type="line"/>
      <point x="436" y="820" type="line"/>
      <point x="455" y="820" type="line"/>
      <point x="216" y="-120" type="line"/>
    </contour>
    <contour>
      <point x="418" y="-3" type="qcurve" smooth="yes"/>
      <point x="341" y="-3"/>
      <point x="210" y="50"/>
      <point x="113" y="146"/>
      <point x="59" y="274"/>
      <point x="59" y="350" type="qcurve" smooth="yes"/>
      <point x="59" y="426"/>
      <point x="113" y="554"/>
      <point x="210" y="650"/>
      <point x="341" y="703"/>
      <point x="418" y="703" type="qcurve" smooth="yes"/>
      <point x="487" y="703"/>
      <point x="611" y="659"/>
      <point x="656" y="614" type="qcurve"/>
      <point x="644" y="600" type="line"/>
      <point x="596" y="646"/>
      <point x="482" y="684"/>
      <point x="418" y="684" type="qcurve" smooth="yes"/>
      <point x="346" y="684"/>
      <point x="222" y="633"/>
      <point x="130" y="542"/>
      <point x="79" y="421"/>
      <point x="79" y="350" type="qcurve" smooth="yes"/>
      <point x="79" y="279"/>
      <point x="130" y="158"/>
      <point x="222" y="67"/>
      <point x="346" y="16"/>
      <point x="418" y="16" type="qcurve" smooth="yes"/>
      <point x="482" y="16"/>
      <point x="596" y="55"/>
      <point x="644" y="101" type="qcurve"/>
      <point x="656" y="87" type="line"/>
      <point x="611" y="42"/>
      <point x="487" y="-3"/>
    </contour>
  </outline>
</glyph>
<glyph name="uni20A9" format="2">
  <advance width="1126"/>
  <unicode hex="20A9"/>
  <outline>
    <contour>
      <point x="298" y="0" type="line"/>
      <point x="48" y="700" type="line"/>
      <point x="70" y="700" type="line"/>
      <point x="314" y="16" type="line"/>
      <point x="303" y="16" type="line"/>
      <point x="553" y="700" type="line"/>
      <point x="573" y="700" type="line"/>
      <point x="823" y="16" type="line"/>
      <point x="813" y="16" type="line"/>
      <point x="1057" y="700" type="line"/>
      <point x="1078" y="700" type="line"/>
      <point x="828" y="0" type="line"/>
      <point x="808" y="0" type="line"/>
      <point x="561" y="678" type="line"/>
      <point x="565" y="678" type="line"/>
      <point x="318" y="0" type="line"/>
    </contour>
    <contour>
      <point x="30" y="272" type="line"/>
      <point x="30" y="290" type="line"/>
      <point x="1096" y="290" type="line"/>
      <point x="1096" y="272" type="line"/>
    </contour>
    <contour>
      <point x="30" y="410" type="line"/>
      <point x="30" y="428" type="line"/>
      <point x="1096" y="428" type="line"/>
      <point x="1096" y="410" type="line"/>
    </contour>
  </outline>
</glyph>
<glyph name="Euro" format="2">
  <advance width="792"/>
  <unicode hex="20AC"/>
  <outline>
    <contour>
      <point x="30" y="272" type="line"/>
      <point x="30" y="290" type="line"/>
      <point x="564" y="290" type="line"/>
      <point x="564" y="272" type="line"/>
    </contour>
    <contour>
      <point x="30" y="410" type="line"/>
      <point x="30" y="428" type="line"/>
      <point x="564" y="428" type="line"/>
      <point x="564" y="410" type="line"/>
    </contour>
    <contour>
      <point x="499" y="-3" type="qcurve" smooth="yes"/>
      <point x="422" y="-3"/>
      <point x="291" y="50"/>
      <point x="194" y="146"/>
      <point x="140" y="274"/>
      <point x="140" y="350" type="qcurve" smooth="yes"/>
      <point x="140" y="426"/>
      <point x="194" y="554"/>
      <point x="291" y="650"/>
      <point x="422" y="703"/>
      <point x="499" y="703" type="qcurve" smooth="yes"/>
      <point x="568" y="703"/>
      <point x="692" y="659"/>
      <point x="737" y="614" type="qcurve"/>
      <point x="725" y="600" type="line"/>
      <point x="677" y="646"/>
      <point x="563" y="684"/>
      <point x="499" y="684" type="qcurve" smooth="yes"/>
      <point x="427" y="684"/>
      <point x="303" y="633"/>
      <point x="211" y="542"/>
      <point x="160" y="421"/>
      <point x="160" y="350" type="qcurve" smooth="yes"/>
      <point x="160" y="279"/>
      <point x="211" y="158"/>
      <point x="303" y="67"/>
      <point x="427" y="16"/>
      <point x="499" y="16" type="qcurve" smooth="yes"/>
      <point x="563" y="16"/>
      <point x="677" y="55"/>
      <point x="725" y="101" type="qcurve"/>
      <point x="737" y="87" type="line"/>
      <point x="692" y="42"/>
      <point x="568" y="-3"/>
    </contour>
  </outline>
</glyph>
<glyph name="uni20B8" format="2">
  <advance width="712"/>
  <unicode hex="20B8"/>
  <outline>
    <contour>
      <point x="346" y="0" type="line"/>
      <point x="346" y="547" type="line"/>
      <point x="86" y="547" type="line"/>
      <point x="86" y="566" type="line"/>
      <point x="626" y="566" type="line"/>
      <point x="626" y="547" type="line"/>
      <point x="366" y="547" type="line"/>
      <point x="366" y="0" type="line"/>
    </contour>
    <contour>
      <point x="86" y="681" type="line"/>
      <point x="86" y="700" type="line"/>
      <point x="626" y="700" type="line"/>
      <point x="626" y="681" type="line"/>
    </contour>
  </outline>
</glyph>
<glyph name="uni20B9" format="2">
  <advance width="715"/>
  <unicode hex="20B9"/>
  <outline>
    <contour>
      <point x="133" y="260" type="line"/>
      <point x="133" y="279" type="line"/>
      <point x="272" y="279" type="line" smooth="yes"/>
      <point x="395" y="279"/>
      <point x="525" y="387"/>
      <point x="525" y="480" type="qcurve" smooth="yes"/>
      <point x="525" y="573"/>
      <point x="395" y="682"/>
      <point x="272" y="681" type="qcurve" smooth="yes"/>
      <point x="13" y="680" type="line"/>
      <point x="13" y="700" type="line"/>
      <point x="665" y="700" type="line"/>
      <point x="665" y="681" type="line"/>
      <point x="377" y="681" type="line"/>
      <point x="377" y="685" type="line"/>
      <point x="459" y="666"/>
      <point x="545" y="555"/>
      <point x="545" y="480" type="qcurve" smooth="yes"/>
      <point x="545" y="413"/>
      <point x="479" y="314"/>
      <point x="356" y="260"/>
      <point x="270" y="260" type="qcurve" smooth="yes"/>
    </contour>
    <contour>
      <point x="530" y="0" type="line"/>
      <point x="347" y="274" type="line"/>
      <point x="372" y="274" type="line"/>
      <point x="555" y="0" type="line"/>
    </contour>
    <contour>
      <point x="13" y="541" type="line"/>
      <point x="13" y="560" type="line"/>
      <point x="665" y="560" type="line"/>
      <point x="665" y="541" type="line"/>
    </contour>
  </outline>
</glyph>
<glyph name="uni20BC" format="2">
  <advance width="924"/>
  <unicode hex="20BC"/>
  <outline>
    <contour>
      <point x="133" y="0" type="line"/>
      <point x="133" y="288" type="line" smooth="yes"/>
      <point x="133" y="431"/>
      <point x="216" y="615"/>
      <point x="364" y="703"/>
      <point x="462" y="703" type="qcurve" smooth="yes"/>
      <point x="560" y="703"/>
      <point x="708" y="615"/>
      <point x="791" y="431"/>
      <point x="791" y="288" type="qcurve" smooth="yes"/>
      <point x="791" y="0" type="line"/>
      <point x="771" y="0" type="line"/>
      <point x="771" y="285" type="line" smooth="yes"/>
      <point x="771" y="424"/>
      <point x="693" y="600"/>
      <point x="554" y="684"/>
      <point x="462" y="684" type="qcurve" smooth="yes"/>
      <point x="370" y="684"/>
      <point x="231" y="600"/>
      <point x="153" y="424"/>
      <point x="153" y="285" type="qcurve" smooth="yes"/>
      <point x="153" y="0" type="line"/>
    </contour>
    <contour>
      <point x="453" y="120" type="line"/>
      <point x="453" y="820" type="line"/>
      <point x="472" y="820" type="line"/>
      <point x="472" y="120" type="line"/>
    </contour>
  </outline>
</glyph>
<glyph name="uni20BD" format="2">
  <advance width="717"/>
  <unicode hex="20BD"/>
  <outline>
    <contour>
      <point x="140" y="0" type="line"/>
      <point x="140" y="700" type="line"/>
      <point x="377" y="700" type="line" smooth="yes"/>
      <point x="506" y="700"/>
      <point x="652" y="579"/>
      <point x="652" y="470" type="qcurve" smooth="yes"/>
      <point x="652" y="361"/>
      <point x="506" y="240"/>
      <point x="377" y="240" type="qcurve" smooth="yes"/>
      <point x="151" y="240" type="line"/>
      <point x="160" y="249" type="line"/>
      <point x="160" y="0" type="line"/>
    </contour>
    <contour>
      <point x="160" y="251" type="line"/>
      <point x="151" y="259" type="line"/>
      <point x="379" y="259" type="line" smooth="yes"/>
      <point x="502" y="259"/>
      <point x="632" y="370"/>
      <point x="632" y="470" type="qcurve" smooth="yes"/>
      <point x="632" y="571"/>
      <point x="502" y="681"/>
      <point x="379" y="681" type="qcurve" smooth="yes"/>
      <point x="151" y="681" type="line"/>
      <point x="160" y="689" type="line"/>
    </contour>
    <contour>
      <point x="30" y="157" type="line"/>
      <point x="30" y="175" type="line"/>
      <point x="390" y="175" type="line"/>
      <point x="390" y="157" type="line"/>
    </contour>
  </outline>
</glyph>
<glyph name="uni2113" format="2">
  <advance width="462"/>
  <unicode hex="2113"/>
  <outline>
    <contour>
      <point x="232" y="0" type="qcurve" smooth="yes"/>
      <point x="181" y="0"/>
      <point x="131" y="50"/>
      <point x="121" y="141"/>
      <point x="129" y="200" type="qcurve"/>
      <point x="65" y="149" type="line"/>
      <point x="54" y="164" type="line"/>
      <point x="134" y="227" type="line"/>
      <point x="189" y="550" type="line"/>
      <point x="205" y="625"/>
      <point x="280" y="699"/>
      <point x="326" y="699" type="qcurve" smooth="yes"/>
      <point x="361" y="699"/>
      <point x="417" y="651"/>
      <point x="417" y="598" type="qcurve" smooth="yes"/>
      <point x="417" y="561"/>
      <point x="385" y="474"/>
      <point x="320" y="376"/>
      <point x="219" y="271"/>
      <point x="151" y="217" type="qcurve"/>
      <point x="135" y="123"/>
      <point x="164" y="18"/>
      <point x="232" y="18" type="qcurve" smooth="yes"/>
      <point x="282" y="18"/>
      <point x="366" y="70"/>
      <point x="407" y="118" type="qcurve"/>
      <point x="421" y="107" type="line"/>
      <point x="378" y="56"/>
      <point x="286" y="0"/>
    </contour>
    <contour>
      <point x="156" y="244" type="line"/>
      <point x="238" y="309"/>
      <point x="345" y="437"/>
      <point x="398" y="553"/>
      <point x="398" y="598" type="qcurve" smooth="yes"/>
      <point x="398" y="643"/>
      <point x="355" y="681"/>
      <point x="326" y="681" type="qcurve" smooth="yes"/>
      <point x="288" y="681"/>
      <point x="222" y="616"/>
      <point x="208" y="546" type="qcurve"/>
    </contour>
  </outline>
</glyph>
<glyph name="uni2116" format="2">
  <advance width="1190"/>
  <unicode hex="2116"/>
  <outline>
    <contour>
      <point x="133" y="0" type="line"/>
      <point x="133" y="700" type="line"/>
      <point x="150" y="700" type="line"/>
      <point x="674" y="23" type="line"/>
      <point x="663" y="23" type="line"/>
      <point x="663" y="700" type="line"/>
      <point x="683" y="700" type="line"/>
      <point x="683" y="0" type="line"/>
      <point x="666" y="0" type="line"/>
      <point x="142" y="677" type="line"/>
      <point x="153" y="677" type="line"/>
      <point x="153" y="0" type="line"/>
    </contour>
    <contour>
      <point x="819" y="272" type="line"/>
      <point x="819" y="291" type="line"/>
      <point x="1105" y="291" type="line"/>
      <point x="1105" y="272" type="line"/>
    </contour>
    <contour>
      <point x="962" y="391" type="qcurve" smooth="yes"/>
      <point x="915" y="391"/>
      <point x="841" y="431"/>
      <point x="799" y="501"/>
      <point x="799" y="547" type="qcurve" smooth="yes"/>
      <point x="799" y="593"/>
      <point x="841" y="663"/>
      <point x="915" y="703"/>
      <point x="962" y="703" type="qcurve" smooth="yes"/>
      <point x="1009" y="703"/>
      <point x="1083" y="663"/>
      <point x="1125" y="593"/>
      <point x="1125" y="547" type="qcurve" smooth="yes"/>
      <point x="1125" y="501"/>
      <point x="1083" y="431"/>
      <point x="1009" y="391"/>
    </contour>
    <contour>
      <point x="962" y="409" type="qcurve" smooth="yes"/>
      <point x="1024" y="409"/>
      <point x="1106" y="486"/>
      <point x="1106" y="547" type="qcurve" smooth="yes"/>
      <point x="1106" y="609"/>
      <point x="1024" y="685"/>
      <point x="962" y="685" type="qcurve" smooth="yes"/>
      <point x="901" y="685"/>
      <point x="818" y="609"/>
      <point x="818" y="547" type="qcurve" smooth="yes"/>
      <point x="818" y="486"/>
      <point x="901" y="409"/>
    </contour>
  </outline>
</glyph>
<glyph name="partialdiff" format="2">
  <advance width="700"/>
  <unicode hex="2202"/>
  <outline>
    <contour>
      <point x="327" y="-3" type="qcurve" smooth="yes"/>
      <point x="259" y="-3"/>
      <point x="154" y="51"/>
      <point x="95" y="149"/>
      <point x="95" y="214" type="qcurve" smooth="yes"/>
      <point x="95" y="279"/>
      <point x="154" y="376"/>
      <point x="262" y="430"/>
      <point x="335" y="430" type="qcurve" smooth="yes"/>
      <point x="400" y="430"/>
      <point x="507" y="378"/>
      <point x="572" y="280"/>
      <point x="574" y="209" type="qcurve"/>
      <point x="566" y="210" type="line"/>
      <point x="578" y="248"/>
      <point x="585" y="327"/>
      <point x="585" y="352" type="qcurve" smooth="yes"/>
      <point x="585" y="460"/>
      <point x="514" y="608"/>
      <point x="385" y="684"/>
      <point x="298" y="684" type="qcurve" smooth="yes"/>
      <point x="256" y="684"/>
      <point x="179" y="672"/>
      <point x="148" y="663" type="qcurve"/>
      <point x="143" y="682" type="line"/>
      <point x="171" y="690"/>
      <point x="253" y="703"/>
      <point x="298" y="703" type="qcurve" smooth="yes"/>
      <point x="390" y="703"/>
      <point x="528" y="623"/>
      <point x="605" y="466"/>
      <point x="605" y="350" type="qcurve" smooth="yes"/>
      <point x="605" y="244"/>
      <point x="543" y="85"/>
      <point x="419" y="-3"/>
    </contour>
    <contour>
      <point x="327" y="16" type="qcurve" smooth="yes"/>
      <point x="401" y="16"/>
      <point x="502" y="75"/>
      <point x="554" y="166"/>
      <point x="554" y="214" type="qcurve" smooth="yes"/>
      <point x="554" y="269"/>
      <point x="498" y="358"/>
      <point x="400" y="411"/>
      <point x="335" y="411" type="qcurve" smooth="yes"/>
      <point x="232" y="411"/>
      <point x="115" y="302"/>
      <point x="115" y="214" type="qcurve" smooth="yes"/>
      <point x="115" y="156"/>
      <point x="168" y="66"/>
      <point x="264" y="16"/>
    </contour>
  </outline>
</glyph>
<glyph name="minus" format="2">
  <advance width="560"/>
  <unicode hex="2212"/>
  <outline>
    <contour>
      <point x="75" y="340" type="line"/>
      <point x="75" y="359" type="line"/>
      <point x="485" y="359" type="line"/>
      <point x="485" y="340" type="line"/>
    </contour>
  </outline>
</glyph>
<glyph name="infinity" format="2">
  <advance width="914"/>
  <unicode hex="221E"/>
  <outline>
    <contour>
      <point x="679" y="174" type="qcurve" smooth="yes"/>
      <point x="623" y="174"/>
      <point x="546" y="210"/>
      <point x="493" y="269"/>
      <point x="451" y="341"/>
      <point x="411" y="412"/>
      <point x="360" y="471"/>
      <point x="288" y="507"/>
      <point x="235" y="507" type="qcurve" smooth="yes"/>
      <point x="189" y="507"/>
      <point x="116" y="466"/>
      <point x="74" y="395"/>
      <point x="74" y="350" type="qcurve" smooth="yes"/>
      <point x="74" y="305"/>
      <point x="116" y="234"/>
      <point x="189" y="193"/>
      <point x="235" y="193" type="qcurve" smooth="yes"/>
      <point x="288" y="193"/>
      <point x="360" y="229"/>
      <point x="411" y="288"/>
      <point x="451" y="360"/>
      <point x="493" y="431"/>
      <point x="546" y="490"/>
      <point x="623" y="526"/>
      <point x="679" y="526" type="qcurve" smooth="yes"/>
      <point x="731" y="526"/>
      <point x="812" y="480"/>
      <point x="860" y="401"/>
      <point x="860" y="351" type="qcurve" smooth="yes"/>
      <point x="860" y="301"/>
      <point x="812" y="221"/>
      <point x="731" y="174"/>
    </contour>
    <contour>
      <point x="235" y="174" type="qcurve" smooth="yes"/>
      <point x="184" y="174"/>
      <point x="102" y="220"/>
      <point x="54" y="300"/>
      <point x="54" y="350" type="qcurve" smooth="yes"/>
      <point x="54" y="400"/>
      <point x="102" y="480"/>
      <point x="184" y="526"/>
      <point x="235" y="526" type="qcurve" smooth="yes"/>
      <point x="291" y="526"/>
      <point x="368" y="490"/>
      <point x="421" y="431"/>
      <point x="463" y="360"/>
      <point x="503" y="288"/>
      <point x="554" y="229"/>
      <point x="626" y="193"/>
      <point x="679" y="193" type="qcurve" smooth="yes"/>
      <point x="726" y="193"/>
      <point x="798" y="235"/>
      <point x="840" y="306"/>
      <point x="840" y="351" type="qcurve" smooth="yes"/>
      <point x="840" y="396"/>
      <point x="798" y="467"/>
      <point x="726" y="507"/>
      <point x="679" y="507" type="qcurve" smooth="yes"/>
      <point x="626" y="507"/>
      <point x="554" y="471"/>
      <point x="503" y="412"/>
      <point x="463" y="341"/>
      <point x="421" y="269"/>
      <point x="368" y="210"/>
      <point x="291" y="174"/>
    </contour>
  </outline>
</glyph>
<glyph name="approxequal" format="2">
  <advance width="560"/>
  <unicode hex="2248"/>
  <outline>
    <contour>
      <point x="382" y="395" type="qcurve" smooth="yes"/>
      <point x="346" y="395"/>
      <point x="296" y="428"/>
      <point x="254" y="472"/>
      <point x="209" y="505"/>
      <point x="178" y="505" type="qcurve" smooth="yes"/>
      <point x="137" y="505"/>
      <point x="89" y="447"/>
      <point x="87" y="398" type="qcurve"/>
      <point x="69" y="398" type="line"/>
      <point x="72" y="457"/>
      <point x="132" y="523"/>
      <point x="178" y="523" type="qcurve" smooth="yes"/>
      <point x="214" y="523"/>
      <point x="264" y="490"/>
      <point x="306" y="446"/>
      <point x="351" y="413"/>
      <point x="382" y="413" type="qcurve" smooth="yes"/>
      <point x="423" y="413"/>
      <point x="471" y="471"/>
      <point x="473" y="520" type="qcurve"/>
      <point x="491" y="520" type="line"/>
      <point x="488" y="462"/>
      <point x="429" y="395"/>
    </contour>
    <contour>
      <point x="382" y="177" type="qcurve" smooth="yes"/>
      <point x="346" y="177"/>
      <point x="296" y="210"/>
      <point x="254" y="254"/>
      <point x="209" y="287"/>
      <point x="178" y="287" type="qcurve" smooth="yes"/>
      <point x="137" y="287"/>
      <point x="89" y="229"/>
      <point x="87" y="180" type="qcurve"/>
      <point x="69" y="180" type="line"/>
      <point x="72" y="239"/>
      <point x="132" y="305"/>
      <point x="178" y="305" type="qcurve" smooth="yes"/>
      <point x="214" y="305"/>
      <point x="264" y="272"/>
      <point x="306" y="228"/>
      <point x="351" y="195"/>
      <point x="382" y="195" type="qcurve" smooth="yes"/>
      <point x="423" y="195"/>
      <point x="471" y="253"/>
      <point x="473" y="302" type="qcurve"/>
      <point x="491" y="302" type="line"/>
      <point x="488" y="244"/>
      <point x="429" y="177"/>
    </contour>
  </outline>
</glyph>
<glyph name="uni27E8" format="2">
  <advance width="302"/>
  <unicode hex="27E8"/>
  <outline>
    <contour>
      <point x="217" y="-194" type="line"/>
      <point x="59" y="274" type="line"/>
      <point x="217" y="742" type="line"/>
      <point x="234" y="742" type="line"/>
      <point x="79" y="274" type="line"/>
      <point x="234" y="-194" type="line"/>
    </contour>
  </outline>
</glyph>
<glyph name="uni27E9" format="2">
  <advance width="302"/>
  <unicode hex="27E9"/>
  <outline>
    <contour>
      <point x="85" y="742" type="line"/>
      <point x="243" y="274" type="line"/>
      <point x="85" y="-194" type="line"/>
      <point x="68" y="-194" type="line"/>
      <point x="223" y="274" type="line"/>
      <point x="68" y="742" type="line"/>
    </contour>
  </outline>
</glyph>
<glyph name="A.ss01" format="2">
  <advance width="804"/>
  <anchor x="393" y="700" name="t.uni0308"/>
  <anchor x="393" y="0" name="b.uni0324_3"/>
  <anchor x="769" y="0" name="m.uni0328_4"/>
  <outline>
    <contour>
      <point x="127" y="0" type="line"/>
      <point x="127" y="407" type="line" smooth="yes"/>
      <point x="127" y="506"/>
      <point x="195" y="638"/>
      <point x="319" y="703"/>
      <point x="402" y="703" type="qcurve" smooth="yes"/>
      <point x="486" y="703"/>
      <point x="609" y="638"/>
      <point x="677" y="506"/>
      <point x="677" y="407" type="qcurve" smooth="yes"/>
      <point x="677" y="0" type="line"/>
      <point x="657" y="0" type="line"/>
      <point x="657" y="409" type="line" smooth="yes"/>
      <point x="657" y="547"/>
      <point x="521" y="684"/>
      <point x="402" y="684" type="qcurve" smooth="yes"/>
      <point x="283" y="684"/>
      <point x="147" y="547"/>
      <point x="147" y="409" type="qcurve" smooth="yes"/>
      <point x="147" y="0" type="line"/>
    </contour>
    <contour>
      <point x="141" y="231" type="line"/>
      <point x="141" y="250" type="line"/>
      <point x="666" y="250" type="line"/>
      <point x="666" y="231" type="line"/>
    </contour>
  </outline>
</glyph>
